<?xml version="1.0" encoding="utf-8"?>
<!-- Generator: Adobe Illustrator 23.0.1, SVG Export Plug-In . SVG Version: 6.00 Build 0)  -->
<svg version="1.1" id="Layer_1" xmlns="http://www.w3.org/2000/svg" xmlns:xlink="http://www.w3.org/1999/xlink" x="0px" y="0px"
	 viewBox="0 0 486 215" style="enable-background:new 0 0 486 215;" xml:space="preserve">
<style type="text/css">
	.st0{fill:url(#SVGID_1_);}
	.st1{fill:#FFFFFF;}
	.st2{fill:none;stroke:#FFFFFF;stroke-miterlimit:10;}
	.st3{fill:url(#SVGID_2_);}
	.st4{fill:url(#SVGID_3_);}
	.st5{fill:url(#SVGID_4_);}
	.st6{fill:url(#SVGID_5_);}
	.st7{fill:url(#SVGID_6_);}
	.st8{fill:url(#SVGID_7_);}
	.st9{fill:url(#SVGID_8_);}
	.st10{fill:url(#SVGID_9_);}
	.st11{fill:url(#SVGID_10_);}
	.st12{fill:url(#SVGID_11_);}
	.st13{fill:url(#SVGID_12_);}
	.st14{fill:url(#SVGID_13_);}
	.st15{fill:url(#SVGID_14_);}
	.st16{fill:url(#SVGID_15_);}
	.st17{fill:url(#SVGID_16_);}
	.st18{fill:url(#SVGID_17_);}
</style>
<linearGradient id="SVGID_1_" gradientUnits="userSpaceOnUse" x1="-29.5344" y1="-30.0307" x2="421.4656" y2="197.9693" gradientTransform="matrix(1 0 0 -1 0 216)">
	<stop  offset="0" style="stop-color:#FA16D0"/>
	<stop  offset="1" style="stop-color:#E63B62"/>
</linearGradient>
<path class="st0" d="M465.8,3H21.2C11.2,3,3,11.2,3,21.2v173.6c0,10,8.2,18.2,18.2,18.2h444.6c10,0,18.2-8.2,18.2-18.2V21.2
	C484,11.2,475.8,3,465.8,3z M320.7,81.1H27V27h293.7V81.1z"/>
<title>example</title>
<path class="st1" d="M457,81H320V27h137V81z M321,80h135V28H321V80z"/>
<g>
	<path class="st1" d="M72.7,170.1h-4.4v11.1h-1.2v-11.1h-4.3V169h9.9V170.1z"/>
	<path class="st1" d="M81.8,181.3h-1.2v-5c0.1-0.8-0.1-1.6-0.5-2.3c-0.3-0.5-0.9-0.8-1.5-0.8c-0.3,0-0.7,0.1-1,0.2
		c-0.3,0.1-0.6,0.3-0.9,0.5s-0.5,0.5-0.7,0.8s-0.4,0.6-0.5,1v5.5h-1.2v-12.5h1.2v5.6c0.3-0.7,0.8-1.2,1.5-1.6c0.6-0.4,1.3-0.6,2-0.6
		c0.4,0,0.9,0.1,1.3,0.3s0.7,0.5,0.9,0.8c0.2,0.4,0.4,0.8,0.5,1.2c0.1,0.5,0.2,1,0.2,1.6L81.8,181.3z"/>
	<path class="st1" d="M88.1,181.4c-0.6,0-1.2-0.1-1.8-0.4c-0.5-0.2-1-0.6-1.4-1s-0.7-0.9-0.9-1.5c-0.2-0.6-0.3-1.2-0.3-1.8
		s0.1-1.2,0.3-1.8c0.4-1.1,1.3-2,2.3-2.5c0.6-0.3,1.2-0.4,1.8-0.4c0.6,0,1.2,0.1,1.8,0.4c0.5,0.2,1,0.6,1.4,1s0.7,0.9,0.9,1.5
		c0.2,0.6,0.3,1.2,0.3,1.8v0.3c0,0.1,0,0.1,0,0.2h-7.7c0,0.5,0.1,0.9,0.3,1.3c0.2,0.4,0.4,0.8,0.7,1.1c0.6,0.6,1.4,0.9,2.3,0.9
		c0.3,0,0.6,0,0.8-0.1c0.3-0.1,0.5-0.2,0.8-0.3c0.2-0.1,0.5-0.3,0.7-0.5s0.3-0.4,0.4-0.7l1,0.3c-0.1,0.3-0.3,0.6-0.6,0.9
		c-0.3,0.3-0.5,0.5-0.9,0.7c-0.3,0.2-0.7,0.4-1.1,0.5C89,181.4,88.6,181.4,88.1,181.4z M91.4,176.3c0-0.5-0.1-0.9-0.3-1.3
		c-0.2-0.4-0.4-0.7-0.7-1c-0.3-0.3-0.6-0.5-1-0.7s-0.8-0.2-1.2-0.2c-0.8,0-1.7,0.3-2.3,0.9c-0.3,0.3-0.5,0.6-0.7,1s-0.3,0.9-0.3,1.3
		H91.4z"/>
	<path class="st1" d="M103.3,181.4c-0.7,0-1.4-0.2-2-0.6c-0.6-0.4-1-0.9-1.4-1.4v5.5h-1.2v-12.6h1v1.7c0.4-0.6,0.8-1,1.4-1.4
		c0.6-0.3,1.2-0.5,1.9-0.5c0.6,0,1.2,0.1,1.7,0.4c0.5,0.2,1,0.6,1.3,1c0.8,0.9,1.2,2,1.2,3.2c0,0.6-0.1,1.2-0.3,1.8
		c-0.2,0.5-0.5,1-0.8,1.5c-0.4,0.4-0.8,0.8-1.3,1C104.4,181.2,103.9,181.4,103.3,181.4z M103,180.4c0.5,0,0.9-0.1,1.3-0.3
		s0.7-0.5,1-0.8s0.5-0.7,0.6-1.1c0.2-0.4,0.2-0.9,0.2-1.3c0-0.5-0.1-0.9-0.3-1.4c-0.2-0.4-0.4-0.8-0.7-1.2c-0.3-0.3-0.7-0.6-1.1-0.8
		s-0.9-0.3-1.3-0.3c-0.3,0-0.6,0.1-0.9,0.2c-0.3,0.1-0.6,0.3-0.9,0.5s-0.5,0.4-0.7,0.7c-0.2,0.2-0.3,0.5-0.4,0.9v2.7
		c0.1,0.3,0.3,0.6,0.5,0.9c0.2,0.3,0.4,0.5,0.7,0.7c0.3,0.2,0.6,0.4,0.9,0.5C102.3,180.3,102.6,180.4,103,180.4z"/>
	<path class="st1" d="M111.6,181.4c-0.4,0-0.8-0.1-1.2-0.2c-0.3-0.1-0.7-0.3-0.9-0.6c-0.3-0.3-0.5-0.6-0.6-0.9
		c-0.2-0.3-0.2-0.7-0.2-1.1c0-0.4,0.1-0.7,0.3-1.1c0.2-0.3,0.5-0.6,0.8-0.9c0.4-0.2,0.8-0.4,1.2-0.6c0.5-0.1,1-0.2,1.5-0.2
		s0.9,0,1.4,0.1c0.4,0.1,0.9,0.2,1.3,0.3v-0.8c0-0.7-0.2-1.4-0.7-1.9s-1.2-0.7-1.9-0.7c-0.5,0-1,0.1-1.4,0.3c-0.5,0.2-1,0.5-1.5,0.8
		l-0.4-0.8c1-0.7,2.2-1.1,3.4-1.2c1,0,1.9,0.3,2.6,1s1,1.6,1,2.6v4c0,0.3,0.1,0.5,0.4,0.5v1c-0.1,0-0.3,0-0.4,0
		c-0.3,0-0.5-0.1-0.7-0.2c-0.2-0.2-0.3-0.4-0.3-0.6v-0.7c-0.4,0.5-0.9,1-1.6,1.2C113,181.2,112.3,181.4,111.6,181.4z M111.9,180.5
		c0.6,0,1.2-0.1,1.7-0.3s0.9-0.5,1.2-0.9c0.1-0.1,0.2-0.2,0.2-0.3s0.1-0.2,0.1-0.3v-1.5c-0.4-0.1-0.8-0.3-1.2-0.3
		c-0.4-0.1-0.9-0.1-1.3-0.1c-0.7,0-1.4,0.1-2,0.5c-0.5,0.3-0.8,0.8-0.8,1.4c0,0.3,0.1,0.5,0.2,0.8c0.1,0.2,0.3,0.5,0.4,0.6
		c0.2,0.2,0.4,0.3,0.7,0.4C111.3,180.5,111.6,180.5,111.9,180.5L111.9,180.5z"/>
	<path class="st1" d="M121.7,181.4c-0.7,0-1.4-0.1-2-0.3s-1.2-0.6-1.7-1l0.5-0.8c0.5,0.4,1,0.7,1.5,0.9s1.1,0.3,1.7,0.3
		s1.2-0.1,1.7-0.4c0.4-0.3,0.7-0.7,0.6-1.2c0-0.2-0.1-0.4-0.2-0.6c-0.1-0.2-0.3-0.3-0.5-0.4c-0.3-0.1-0.5-0.3-0.8-0.3
		c-0.3-0.1-0.7-0.2-1.2-0.3s-1-0.3-1.3-0.4c-0.3-0.1-0.6-0.2-0.9-0.4c-0.2-0.1-0.4-0.3-0.6-0.6c-0.1-0.3-0.2-0.6-0.2-0.9
		c0-0.4,0.1-0.8,0.3-1.2c0.2-0.3,0.4-0.6,0.7-0.9c0.3-0.2,0.7-0.4,1.1-0.5s0.9-0.2,1.3-0.2c0.6,0,1.3,0.1,1.9,0.3
		c0.5,0.2,1,0.5,1.4,0.9l-0.6,0.7c-0.3-0.4-0.8-0.6-1.2-0.8c-0.5-0.2-1-0.3-1.5-0.3c-0.3,0-0.6,0-0.9,0.1c-0.2,0.1-0.5,0.2-0.7,0.3
		s-0.4,0.3-0.5,0.5s-0.2,0.5-0.2,0.7s0,0.4,0.1,0.6c0.1,0.2,0.2,0.3,0.4,0.4c0.2,0.1,0.5,0.2,0.7,0.3c0.3,0.1,0.6,0.2,1,0.3
		c0.6,0.1,1.1,0.3,1.5,0.4c0.4,0.1,0.7,0.3,1.1,0.5c0.3,0.2,0.5,0.4,0.7,0.7s0.2,0.7,0.2,1c0,0.8-0.3,1.5-0.9,1.9
		C123.5,181.2,122.6,181.5,121.7,181.4z"/>
	<path class="st1" d="M130,181.4c-0.7,0-1.4-0.1-2-0.3s-1.2-0.6-1.7-1l0.5-0.8c0.5,0.4,1,0.7,1.5,0.9s1.1,0.3,1.7,0.3
		c0.6,0,1.2-0.1,1.7-0.4c0.4-0.3,0.7-0.7,0.6-1.2c0-0.2-0.1-0.4-0.2-0.6c-0.1-0.2-0.3-0.3-0.5-0.4c-0.3-0.1-0.5-0.3-0.8-0.3
		c-0.3-0.1-0.7-0.2-1.2-0.3s-1-0.3-1.3-0.4c-0.3-0.1-0.6-0.2-0.9-0.4c-0.2-0.1-0.4-0.4-0.6-0.6c-0.1-0.3-0.2-0.6-0.2-0.9
		c0-0.4,0.1-0.8,0.3-1.2c0.2-0.3,0.4-0.6,0.7-0.9c0.3-0.2,0.7-0.4,1.1-0.5c0.4-0.1,0.9-0.2,1.3-0.2c0.6,0,1.3,0.1,1.9,0.3
		c0.5,0.2,1,0.5,1.4,0.9l-0.6,0.7c-0.3-0.3-0.8-0.6-1.2-0.8c-0.5-0.2-1-0.3-1.5-0.3c-0.3,0-0.6,0-0.9,0.1c-0.2,0.1-0.5,0.2-0.7,0.3
		s-0.4,0.3-0.5,0.5s-0.2,0.5-0.2,0.7s0,0.4,0.1,0.6c0.1,0.2,0.2,0.3,0.4,0.4c0.2,0.1,0.4,0.2,0.7,0.3s0.6,0.2,1,0.3
		c0.6,0.1,1.1,0.3,1.5,0.4c0.4,0.1,0.7,0.3,1.1,0.5c0.6,0.3,0.9,1,0.9,1.6c0,0.8-0.3,1.5-0.9,1.9C131.8,181.2,130.9,181.5,130,181.4
		z"/>
	<path class="st1" d="M146.5,172.3h1.1l-3.9,8.9h-1l-1.9-4.6l-1.9,4.6h-1l-3.8-8.9h1.1l3.3,7.7l1.7-4.1l-1.5-3.6h1l1.2,2.9l1.2-2.9
		h1l-1.5,3.6l1.7,4.1L146.5,172.3z"/>
	<path class="st1" d="M152.7,181.4c-1.2,0-2.4-0.5-3.2-1.4c-0.4-0.4-0.7-0.9-0.9-1.5s-0.3-1.2-0.3-1.8c0-1.2,0.5-2.4,1.3-3.3
		c0.4-0.4,0.9-0.8,1.4-1c0.6-0.3,1.2-0.4,1.8-0.4s1.2,0.1,1.8,0.4c0.5,0.2,1,0.6,1.4,1s0.7,0.9,0.9,1.5s0.3,1.2,0.3,1.8
		s-0.1,1.2-0.3,1.8c-0.2,0.5-0.5,1-0.9,1.5C155.1,180.9,153.9,181.4,152.7,181.4L152.7,181.4z M149.5,176.8c0,0.5,0.1,1,0.3,1.4
		s0.4,0.8,0.7,1.1s0.6,0.6,1,0.8s0.8,0.3,1.3,0.3c0.4,0,0.9-0.1,1.3-0.3c0.4-0.2,0.7-0.5,1-0.8c0.9-1.1,1.2-2.6,0.7-3.9
		c-0.2-0.4-0.4-0.8-0.7-1.1s-0.6-0.6-1-0.8s-0.8-0.3-1.3-0.3c-0.4,0-0.9,0.1-1.3,0.3c-0.4,0.2-0.7,0.5-1,0.8s-0.5,0.7-0.7,1.2
		C149.5,175.8,149.4,176.3,149.5,176.8L149.5,176.8z"/>
	<path class="st1" d="M163.6,173.4c-0.7,0-1.5,0.2-2.1,0.6c-0.6,0.4-1,1-1.2,1.7v5.6h-1.2v-8.9h1.1v2.1c0.3-0.6,0.8-1.2,1.3-1.6
		c0.5-0.4,1.2-0.6,1.8-0.6h0.2L163.6,173.4L163.6,173.4z"/>
	<path class="st1" d="M168.4,181.4c-0.6,0-1.2-0.1-1.7-0.4c-0.5-0.2-1-0.6-1.4-1s-0.7-0.9-0.9-1.5s-0.3-1.1-0.3-1.7
		c0-1.2,0.4-2.4,1.2-3.3c0.4-0.4,0.8-0.8,1.3-1c1.2-0.6,2.6-0.5,3.6,0.2c0.6,0.4,1,0.9,1.4,1.4v-5.5h1.2v11c0,0.3,0.1,0.5,0.4,0.5v1
		c-0.1,0-0.3,0-0.4,0c-0.3,0-0.5-0.1-0.7-0.3s-0.3-0.4-0.3-0.6v-0.8c-0.4,0.6-0.8,1.1-1.4,1.4C169.7,181.2,169,181.4,168.4,181.4z
		 M168.6,180.4c0.3,0,0.6-0.1,0.9-0.2c0.3-0.1,0.6-0.3,0.9-0.5c0.3-0.2,0.5-0.4,0.7-0.7s0.3-0.6,0.4-0.9v-2.7
		c-0.1-0.3-0.3-0.6-0.5-0.9c-0.2-0.3-0.5-0.5-0.7-0.7c-0.3-0.2-0.6-0.4-0.9-0.5c-0.3-0.1-0.6-0.2-0.9-0.2c-0.5,0-0.9,0.1-1.3,0.3
		c-0.4,0.2-0.7,0.5-1,0.8s-0.5,0.7-0.6,1.2c-0.2,0.4-0.2,0.9-0.2,1.3c0,0.9,0.4,1.8,1,2.5c0.3,0.3,0.7,0.6,1.1,0.8
		C167.7,180.3,168.2,180.4,168.6,180.4z"/>
	<path class="st1" d="M64.3,204.6h0.3h0.3c0.2,0,0.3,0,0.5-0.1s0.3-0.2,0.3-0.4c0.2-0.3,0.3-0.5,0.4-0.8c0.1-0.4,0.3-0.9,0.6-1.5
		l-3.9-8.9H64l3.3,7.9l3.1-7.9h1.1l-4.7,11.5c-0.1,0.3-0.3,0.6-0.6,0.9c-0.3,0.3-0.8,0.4-1.2,0.4h-0.3c-0.1,0-0.2,0-0.4,0V204.6z"/>
	<path class="st1" d="M76.6,202c-0.6,0-1.2-0.1-1.8-0.4c-0.5-0.2-1-0.6-1.4-1s-0.7-0.9-0.9-1.5c-0.2-0.6-0.3-1.2-0.3-1.8
		c0-1.2,0.5-2.4,1.3-3.3c0.4-0.4,0.9-0.8,1.4-1c0.6-0.3,1.2-0.4,1.8-0.4c0.6,0,1.2,0.1,1.8,0.4c0.5,0.2,1,0.6,1.4,1s0.7,0.9,0.9,1.5
		c0.2,0.6,0.3,1.2,0.3,1.8s-0.1,1.2-0.3,1.8c-0.2,0.5-0.5,1-0.9,1.5c-0.4,0.4-0.9,0.8-1.4,1C77.9,201.9,77.2,202,76.6,202z
		 M73.4,197.4c0,0.5,0.1,1,0.3,1.4c0.2,0.4,0.4,0.8,0.7,1.1c0.3,0.3,0.6,0.6,1,0.8s0.8,0.3,1.3,0.3c0.4,0,0.9-0.1,1.3-0.3
		s0.7-0.5,1-0.8c0.9-1.1,1.2-2.6,0.7-3.9c-0.2-0.4-0.4-0.8-0.7-1.1c-0.3-0.3-0.6-0.6-1-0.8s-0.8-0.3-1.3-0.3c-0.4,0-0.9,0.1-1.3,0.3
		s-0.7,0.5-1,0.8C73.7,195.5,73.3,196.4,73.4,197.4L73.4,197.4z"/>
	<path class="st1" d="M85.8,202c-0.8,0.1-1.7-0.3-2.2-1c-0.5-0.9-0.8-1.9-0.7-2.9v-5.3h1.2v5c0,2,0.7,3,2.1,3c0.7,0,1.4-0.2,1.9-0.7
		c0.3-0.2,0.5-0.5,0.8-0.8c0.2-0.3,0.4-0.6,0.5-1v-5.6h1.2v7.6c0,0.3,0.1,0.5,0.4,0.5v1c-0.1,0-0.2,0-0.3,0h-0.2
		c-0.3,0-0.5-0.1-0.7-0.3s-0.3-0.5-0.3-0.7v-1c-0.4,0.7-0.9,1.2-1.6,1.6C87.3,201.8,86.6,202,85.8,202z"/>
	<path class="st1" d="M100.5,202c-0.7,0-1.4-0.1-2-0.4c-0.6-0.2-1.2-0.6-1.7-1l0.5-0.8c0.5,0.4,1,0.7,1.5,0.9s1.1,0.3,1.7,0.3
		s1.2-0.1,1.7-0.4c0.4-0.3,0.7-0.7,0.6-1.2c0-0.2-0.1-0.4-0.2-0.6c-0.1-0.2-0.3-0.3-0.5-0.4c-0.3-0.1-0.6-0.2-0.8-0.3
		c-0.3-0.1-0.7-0.2-1.2-0.3s-1-0.3-1.3-0.4c-0.3-0.1-0.6-0.2-0.9-0.4c-0.2-0.1-0.4-0.4-0.6-0.6c-0.1-0.3-0.2-0.6-0.2-0.9
		c0-0.4,0.1-0.8,0.3-1.2c0.2-0.3,0.4-0.6,0.7-0.9c0.3-0.2,0.7-0.4,1.1-0.5c1-0.3,2.2-0.2,3.2,0.2c0.5,0.2,1,0.5,1.4,0.9l-0.6,0.7
		c-0.3-0.4-0.8-0.6-1.2-0.8c-0.5-0.2-1-0.3-1.5-0.3c-0.3,0-0.6,0-0.9,0.1c-0.2,0.1-0.5,0.2-0.7,0.3s-0.4,0.3-0.5,0.5
		s-0.2,0.5-0.2,0.8c0,0.2,0,0.4,0.1,0.6c0.1,0.2,0.2,0.3,0.4,0.4c0.2,0.1,0.5,0.2,0.7,0.3c0.3,0.1,0.6,0.2,1,0.3
		c0.6,0.1,1.1,0.3,1.5,0.4c0.4,0.1,0.7,0.3,1.1,0.5c0.3,0.2,0.5,0.4,0.7,0.7s0.2,0.7,0.2,1c0,0.8-0.4,1.5-1,1.9
		C102.3,201.9,101.4,202.1,100.5,202z"/>
	<path class="st1" d="M110.2,201.4c-0.1,0.1-0.2,0.1-0.3,0.1c-0.1,0.1-0.3,0.1-0.5,0.2c-0.2,0.1-0.4,0.1-0.6,0.2
		c-0.2,0-0.5,0.1-0.7,0.1s-0.5,0-0.7-0.1s-0.4-0.2-0.6-0.3c-0.2-0.2-0.3-0.3-0.4-0.6c-0.1-0.2-0.2-0.5-0.2-0.8v-6.4H105v-0.9h1.2v-3
		h1.2v3h2.1v0.9h-2.1v6.1c0,0.3,0.1,0.6,0.4,0.7c0.2,0.2,0.5,0.2,0.7,0.2c0.3,0,0.6-0.1,0.9-0.2c0.2-0.1,0.3-0.1,0.5-0.2
		L110.2,201.4z"/>
	<path class="st1" d="M115.3,202c-0.6,0-1.2-0.1-1.8-0.4c-0.5-0.2-1-0.6-1.4-1s-0.7-0.9-0.9-1.5s-0.3-1.2-0.3-1.8s0.1-1.2,0.3-1.8
		c0.2-0.5,0.5-1.1,0.9-1.5s0.9-0.8,1.4-1c0.6-0.3,1.2-0.4,1.8-0.4s1.2,0.1,1.8,0.4c0.5,0.2,1,0.6,1.4,1s0.7,0.9,0.9,1.5
		s0.3,1.2,0.3,1.8s-0.1,1.2-0.3,1.8c-0.2,0.5-0.5,1.1-0.9,1.5C117.7,201.6,116.5,202.1,115.3,202L115.3,202z M112,197.4
		c0,0.5,0.1,1,0.3,1.4s0.4,0.8,0.7,1.1s0.6,0.6,1,0.8s0.8,0.3,1.3,0.3c0.4,0,0.9-0.1,1.3-0.3s0.7-0.5,1-0.8c0.9-1.1,1.2-2.6,0.7-3.9
		c-0.2-0.4-0.4-0.8-0.7-1.1s-0.6-0.6-1-0.8s-0.8-0.3-1.3-0.3c-0.4,0-0.9,0.1-1.3,0.3s-0.7,0.5-1,0.8
		C112.4,195.5,112,196.4,112,197.4L112,197.4z"/>
	<path class="st1" d="M126.2,194c-0.7,0-1.5,0.2-2.1,0.6c-0.6,0.4-1,1-1.2,1.7v5.6h-1.2V193h1.1v2.1c0.3-0.6,0.8-1.2,1.3-1.6
		c0.5-0.4,1.2-0.6,1.8-0.6h0.2L126.2,194L126.2,194z"/>
	<path class="st1" d="M131.1,202c-1.2,0-2.4-0.5-3.2-1.4s-1.3-2.1-1.3-3.3c0-0.6,0.1-1.2,0.3-1.8c0.2-0.5,0.5-1,0.9-1.5
		c0.4-0.4,0.9-0.8,1.4-1c1.1-0.5,2.4-0.5,3.6,0c0.5,0.2,1,0.6,1.4,1c0.8,0.9,1.2,2,1.2,3.2v0.3c0,0.1,0,0.1,0,0.2h-7.7
		c0.1,0.9,0.4,1.7,1.1,2.4c0.3,0.3,0.6,0.5,1,0.7s0.8,0.3,1.2,0.3c0.3,0,0.6,0,0.9-0.1c0.3-0.1,0.5-0.2,0.8-0.3
		c0.2-0.1,0.5-0.3,0.6-0.5c0.2-0.2,0.3-0.4,0.4-0.7l1,0.3c-0.1,0.3-0.3,0.6-0.6,0.9c-0.3,0.3-0.6,0.5-0.9,0.7
		c-0.3,0.2-0.7,0.4-1.1,0.5C132,202,131.6,202,131.1,202z M134.4,196.9c-0.1-0.9-0.4-1.7-1.1-2.3c-0.3-0.3-0.6-0.5-1-0.7
		s-0.8-0.2-1.2-0.2c-0.8,0-1.7,0.3-2.3,0.9c-0.3,0.3-0.5,0.6-0.7,1s-0.3,0.9-0.3,1.3H134.4z"/>
	<path class="st1" d="M152.5,192.9h1.1l-3.9,8.9h-1l-1.9-4.6l-1.9,4.6h-1l-3.8-8.9h1.1l3.3,7.7l1.7-4.1l-1.5-3.6h1l1.2,2.9l1.2-2.9
		h1l-1.5,3.6l1.7,4.1L152.5,192.9z"/>
	<path class="st1" d="M155.2,191v-1.7h1.2v1.7H155.2z M155.2,201.9V193h1.2v8.9H155.2z"/>
	<path class="st1" d="M163.3,201.4c-0.1,0.1-0.2,0.1-0.3,0.1c-0.1,0.1-0.3,0.1-0.4,0.2c-0.2,0.1-0.4,0.1-0.6,0.2
		c-0.2,0-0.5,0.1-0.7,0.1s-0.5,0-0.7-0.1s-0.4-0.2-0.6-0.3c-0.2-0.2-0.3-0.3-0.4-0.6c-0.1-0.2-0.2-0.5-0.1-0.8v-6.4h-1.2v-0.9h1.2
		v-3h1.2v3h2.1v0.9h-2.1v6.1c0,0.3,0.1,0.6,0.4,0.7c0.2,0.2,0.5,0.2,0.7,0.2c0.3,0,0.6-0.1,0.9-0.2c0.2-0.1,0.3-0.1,0.5-0.2
		L163.3,201.4z"/>
	<path class="st1" d="M172.3,201.9h-1.2v-5c0.1-0.8-0.1-1.6-0.5-2.3c-0.3-0.5-0.9-0.8-1.5-0.8c-0.3,0-0.7,0.1-1,0.2
		c-0.7,0.3-1.3,0.7-1.7,1.4c-0.2,0.3-0.4,0.6-0.5,1v5.5h-1.2v-12.5h1.2v5.6c0.3-0.7,0.9-1.2,1.5-1.6c0.6-0.4,1.3-0.6,2-0.6
		c0.5,0,0.9,0.1,1.3,0.3c0.3,0.2,0.6,0.5,0.9,0.8c0.2,0.4,0.4,0.8,0.5,1.2c0.1,0.5,0.2,1,0.2,1.6V201.9z"/>
	<path class="st1" d="M181.9,202c-0.8,0.1-1.7-0.3-2.2-1c-0.5-0.9-0.8-1.9-0.7-2.9v-5.3h1.2v5c0,2,0.7,3,2.1,3c0.3,0,0.7-0.1,1-0.2
		c0.3-0.1,0.6-0.3,0.9-0.5c0.3-0.2,0.5-0.5,0.8-0.8c0.2-0.3,0.4-0.6,0.5-1v-5.6h1.2v7.6c0,0.3,0.1,0.5,0.4,0.5v1c-0.1,0-0.2,0-0.3,0
		h-0.2c-0.3,0-0.5-0.1-0.7-0.3s-0.3-0.5-0.3-0.7v-1c-0.4,0.7-0.9,1.2-1.6,1.6C183.4,201.8,182.7,202,181.9,202z"/>
	<path class="st1" d="M192.3,202c-0.7,0-1.4-0.1-2-0.4c-0.6-0.2-1.2-0.6-1.7-1l0.5-0.8c0.5,0.4,1,0.7,1.5,0.9s1.1,0.3,1.7,0.3
		c0.6,0,1.2-0.1,1.7-0.4c0.4-0.3,0.7-0.7,0.6-1.2c0-0.2-0.1-0.4-0.2-0.6c-0.1-0.2-0.3-0.3-0.5-0.4c-0.3-0.1-0.5-0.2-0.8-0.3
		s-0.7-0.2-1.2-0.3s-1-0.3-1.3-0.4c-0.3-0.1-0.6-0.2-0.9-0.4c-0.2-0.1-0.4-0.3-0.6-0.6c-0.1-0.3-0.2-0.6-0.2-0.9
		c0-0.4,0.1-0.8,0.3-1.2c0.2-0.3,0.4-0.6,0.7-0.9c0.3-0.2,0.7-0.4,1.1-0.5c0.4-0.1,0.9-0.2,1.3-0.2c0.6,0,1.3,0.1,1.9,0.3
		c0.5,0.2,1,0.5,1.4,0.9l-0.6,0.7c-0.3-0.3-0.8-0.6-1.2-0.8c-0.5-0.2-1-0.3-1.5-0.3c-0.3,0-0.6,0-0.9,0.1c-0.2,0.1-0.5,0.2-0.7,0.3
		s-0.4,0.3-0.5,0.5s-0.2,0.5-0.2,0.8c0,0.2,0,0.4,0.1,0.6c0.1,0.2,0.2,0.3,0.4,0.4c0.2,0.1,0.5,0.2,0.7,0.3c0.3,0.1,0.6,0.2,1,0.3
		c0.6,0.1,1.1,0.3,1.5,0.4c0.4,0.1,0.7,0.3,1.1,0.5c0.3,0.2,0.5,0.4,0.7,0.7s0.2,0.7,0.2,1c0,0.8-0.3,1.5-0.9,1.9
		C194.1,201.9,193.2,202.1,192.3,202z"/>
</g>
<g>
	<path class="st1" d="M247.8,108.3h-4.4v11.1h-1.2v-11.1h-4.3v-1.1h9.9V108.3z"/>
	<path class="st1" d="M256.9,119.4h-1.2v-5c0.1-0.8-0.1-1.6-0.5-2.3c-0.3-0.5-0.9-0.8-1.5-0.8c-0.3,0-0.7,0.1-1,0.2
		s-0.6,0.3-0.9,0.5s-0.5,0.5-0.8,0.8c-0.2,0.3-0.4,0.6-0.5,1v5.5h-1.2v-12.4h1.2v5.6c0.3-0.7,0.8-1.2,1.5-1.6c0.6-0.4,1.3-0.6,2-0.6
		c0.5,0,0.9,0.1,1.3,0.3c0.4,0.2,0.7,0.5,0.9,0.8c0.2,0.4,0.4,0.8,0.5,1.2c0.1,0.5,0.2,1,0.1,1.6L256.9,119.4z"/>
	<path class="st1" d="M263.3,119.6c-0.6,0-1.2-0.1-1.8-0.4c-1.7-0.8-2.7-2.5-2.7-4.3c0-0.6,0.1-1.2,0.3-1.8c0.2-0.5,0.5-1,0.9-1.5
		c0.4-0.4,0.9-0.8,1.4-1c0.6-0.2,1.2-0.4,1.8-0.4c0.6,0,1.2,0.1,1.8,0.4c0.5,0.2,1,0.6,1.4,1s0.7,0.9,0.9,1.5
		c0.2,0.6,0.3,1.2,0.3,1.8v0.3c0,0.1,0,0.1,0,0.2h-7.7c0,0.5,0.1,0.9,0.3,1.3c0.2,0.4,0.4,0.8,0.7,1.1c0.3,0.3,0.6,0.5,1,0.7
		s0.8,0.2,1.2,0.2c0.3,0,0.6,0,0.9-0.1s0.5-0.2,0.8-0.3c0.2-0.1,0.5-0.3,0.6-0.5c0.2-0.2,0.3-0.4,0.5-0.7l1,0.3
		c-0.1,0.3-0.3,0.6-0.6,0.9s-0.5,0.5-0.9,0.7c-0.3,0.2-0.7,0.4-1.1,0.5C264.1,119.5,263.7,119.6,263.3,119.6z M266.6,114.5
		c0-0.5-0.1-0.9-0.3-1.3s-0.4-0.7-0.7-1c-0.3-0.3-0.6-0.5-1-0.7s-0.8-0.2-1.2-0.2c-0.4,0-0.8,0.1-1.2,0.2c-0.4,0.2-0.7,0.4-1,0.7
		c-0.3,0.3-0.5,0.6-0.7,1s-0.3,0.9-0.3,1.3H266.6z"/>
	<path class="st1" d="M274.7,106.9l-0.3,1.8h0.4v1.8h-1.1v-1.8l0.4-1.8H274.7z M276.8,106.9l-0.3,1.8h0.4v1.8h-1.1v-1.8l0.4-1.8
		H276.8z"/>
	<path class="st1" d="M278.4,114.9c0-0.6,0.1-1.2,0.3-1.8c0.2-0.5,0.5-1,0.9-1.5c0.4-0.4,0.9-0.8,1.4-1c0.6-0.3,1.2-0.4,1.8-0.4
		c0.8,0,1.5,0.2,2.2,0.6c0.6,0.4,1.1,0.9,1.4,1.6l-1.1,0.4c-0.2-0.5-0.6-0.8-1.1-1.1c-0.5-0.3-1-0.4-1.5-0.4c-0.4,0-0.9,0.1-1.3,0.3
		c-0.4,0.2-0.7,0.4-1,0.8c-0.3,0.3-0.5,0.7-0.7,1.1c-0.2,0.5-0.2,0.9-0.2,1.4s0.1,1,0.3,1.4c0.2,0.4,0.4,0.8,0.7,1.2
		c0.3,0.3,0.6,0.6,1,0.8c0.4,0.2,0.8,0.3,1.3,0.3c0.3,0,0.6,0,0.9-0.1s0.5-0.2,0.8-0.3c0.2-0.1,0.4-0.3,0.6-0.5s0.3-0.4,0.4-0.6
		l1.1,0.3c-0.1,0.3-0.3,0.6-0.5,0.9s-0.5,0.5-0.9,0.7c-0.3,0.2-0.7,0.4-1.1,0.5s-0.8,0.2-1.2,0.2c-0.6,0-1.2-0.1-1.8-0.4
		c-0.5-0.2-1-0.6-1.4-1C278.8,117.3,278.4,116.1,278.4,114.9z"/>
	<path class="st1" d="M292.2,119.6c-0.6,0-1.2-0.1-1.8-0.4c-0.5-0.2-1-0.6-1.4-1s-0.7-0.9-0.9-1.5c-0.2-0.6-0.3-1.2-0.3-1.8
		c0-1.2,0.4-2.4,1.3-3.3c0.4-0.4,0.9-0.8,1.4-1c0.6-0.3,1.2-0.4,1.8-0.4c0.6,0,1.2,0.1,1.8,0.4c0.5,0.2,1,0.6,1.4,1
		c1.2,1.4,1.6,3.3,0.9,5c-0.4,1.1-1.2,2-2.3,2.5C293.4,119.5,292.8,119.6,292.2,119.6z M289,115c0,0.5,0.1,1,0.3,1.4
		s0.4,0.8,0.7,1.1c0.3,0.3,0.6,0.6,1,0.8c0.4,0.2,0.8,0.3,1.3,0.3c0.4,0,0.9-0.1,1.3-0.3c0.4-0.2,0.7-0.5,1-0.8s0.5-0.7,0.7-1.1
		c0.5-1.4,0.3-2.9-0.7-4c-0.3-0.3-0.6-0.6-1-0.8c-0.4-0.2-0.8-0.3-1.3-0.3c-0.4,0-0.9,0.1-1.3,0.3c-0.4,0.2-0.7,0.5-1,0.8
		C289.3,113.1,288.9,114,289,115L289,115z"/>
	<path class="st1" d="M311.9,119.4h-1.2v-5c0.1-0.8-0.1-1.6-0.5-2.3c-0.3-0.5-0.9-0.8-1.5-0.7c-0.3,0-0.7,0.1-1,0.2
		s-0.6,0.3-0.9,0.5c-0.5,0.5-0.9,1.1-1.1,1.9v5.5h-1.2v-5c0.1-0.8-0.1-1.6-0.5-2.3c-0.3-0.5-0.9-0.8-1.5-0.7c-0.7,0-1.3,0.2-1.8,0.7
		s-0.9,1.1-1.1,1.9v5.5h-1.2v-9h1.1v2c0.3-0.7,0.8-1.2,1.5-1.6c0.6-0.4,1.3-0.6,2-0.6s1.3,0.2,1.8,0.6s0.8,1,0.8,1.7
		c0.6-1.4,1.9-2.3,3.5-2.3c0.4,0,0.9,0.1,1.3,0.3c0.3,0.2,0.6,0.4,0.8,0.8s0.4,0.8,0.5,1.2c0.1,0.5,0.2,1.1,0.1,1.6L311.9,119.4z"/>
	<path class="st1" d="M327.7,119.4h-1.2v-5c0.1-0.8-0.1-1.6-0.5-2.3c-0.3-0.5-0.9-0.8-1.5-0.7c-0.3,0-0.7,0.1-1,0.2
		s-0.6,0.3-0.8,0.5c-0.3,0.2-0.5,0.5-0.7,0.8s-0.3,0.6-0.5,1v5.5h-1.2v-5c0.1-0.8-0.1-1.6-0.5-2.3c-0.3-0.5-0.9-0.8-1.5-0.7
		c-0.7,0-1.3,0.2-1.8,0.7s-0.9,1.1-1.1,1.9v5.5h-1.2v-9h1.1v2c0.3-0.7,0.8-1.2,1.4-1.6s1.3-0.6,2-0.6s1.3,0.2,1.8,0.6s0.8,1,0.8,1.7
		c0.6-1.4,1.9-2.3,3.5-2.3c0.4,0,0.9,0.1,1.3,0.3c0.3,0.2,0.6,0.4,0.8,0.8s0.4,0.8,0.5,1.2c0.1,0.5,0.1,1.1,0.1,1.6L327.7,119.4z"/>
	<path class="st1" d="M334,119.6c-0.6,0-1.2-0.1-1.8-0.4c-0.5-0.2-1-0.6-1.4-1s-0.7-0.9-0.9-1.5c-0.2-0.6-0.3-1.2-0.3-1.8
		c0-1.2,0.4-2.4,1.3-3.3c0.4-0.4,0.9-0.8,1.4-1c0.6-0.3,1.2-0.4,1.8-0.4c0.6,0,1.2,0.1,1.8,0.4c0.5,0.2,1,0.6,1.4,1s0.7,0.9,0.9,1.5
		c0.2,0.6,0.3,1.2,0.3,1.8c0,0.6-0.1,1.2-0.3,1.8c-0.2,0.5-0.5,1-0.9,1.5C336.3,119.1,335.2,119.6,334,119.6L334,119.6z M330.7,115
		c0,0.9,0.4,1.8,1,2.5c0.3,0.3,0.6,0.6,1,0.8c0.4,0.2,0.8,0.3,1.3,0.3c0.4,0,0.9-0.1,1.3-0.3c0.4-0.2,0.7-0.5,1-0.8s0.5-0.7,0.7-1.1
		c0.5-1.4,0.3-2.9-0.7-4c-0.3-0.3-0.6-0.6-1-0.8c-0.8-0.4-1.7-0.4-2.5,0c-0.4,0.2-0.7,0.5-1,0.8C331.1,113.1,330.7,114,330.7,115
		L330.7,115z"/>
	<path class="st1" d="M347.9,119.4h-1.2v-5c0.1-0.8-0.1-1.6-0.5-2.3c-0.3-0.5-0.9-0.8-1.5-0.7c-0.3,0-0.7,0.1-1,0.2s-0.7,0.3-1,0.5
		s-0.6,0.5-0.8,0.8c-0.2,0.3-0.4,0.6-0.5,1v5.5h-1.2v-9h1.1v2c0.8-1.4,2.2-2.2,3.8-2.2c0.4,0,0.9,0.1,1.3,0.3
		c0.3,0.2,0.6,0.4,0.8,0.8c0.2,0.4,0.4,0.8,0.5,1.2c0.1,0.5,0.1,1.1,0.1,1.6L347.9,119.4z"/>
	<path class="st1" d="M359.3,119.6c-0.7,0-1.4-0.2-2-0.6s-1-0.9-1.4-1.4v5.5h-1.2v-12.6h1v1.7c0.4-0.5,0.9-1,1.4-1.3
		c0.6-0.3,1.2-0.5,1.9-0.5c0.6,0,1.2,0.1,1.7,0.4c0.5,0.2,1,0.6,1.3,1c0.8,0.9,1.2,2,1.2,3.2c0,0.6-0.1,1.2-0.3,1.8
		c-0.2,0.5-0.5,1-0.8,1.5c-0.4,0.4-0.8,0.8-1.3,1C360.4,119.5,359.9,119.6,359.3,119.6z M359,118.6c0.5,0,0.9-0.1,1.3-0.3
		c0.4-0.2,0.7-0.5,1-0.8s0.5-0.7,0.6-1.2c0.1-0.4,0.2-0.9,0.2-1.3c0-0.5-0.1-0.9-0.3-1.4c-0.2-0.4-0.4-0.8-0.7-1.2
		c-0.3-0.3-0.6-0.6-1-0.8c-0.4-0.2-0.9-0.3-1.3-0.3c-0.3,0-0.6,0.1-0.9,0.2s-0.6,0.3-0.9,0.5s-0.5,0.4-0.7,0.7
		c-0.2,0.2-0.3,0.5-0.4,0.8v2.8c0.1,0.3,0.3,0.6,0.5,0.9s0.4,0.5,0.7,0.7c0.3,0.2,0.6,0.4,0.9,0.5
		C358.4,118.5,358.7,118.6,359,118.6L359,118.6z"/>
	<path class="st1" d="M367.6,119.6c-0.8,0-1.5-0.3-2.1-0.8c-0.3-0.2-0.5-0.5-0.6-0.9c-0.1-0.3-0.2-0.7-0.2-1.1s0.1-0.8,0.3-1.1
		c0.2-0.3,0.5-0.6,0.8-0.8c0.4-0.3,0.8-0.4,1.2-0.6c0.5-0.1,1-0.2,1.5-0.2s0.9,0,1.4,0.1c0.4,0.1,0.8,0.2,1.3,0.3v-0.8
		c0-0.7-0.2-1.4-0.7-1.9s-1.2-0.7-1.9-0.7c-0.5,0-1,0.1-1.4,0.3c-0.5,0.2-1,0.5-1.5,0.8l-0.4-0.8c1-0.7,2.1-1.1,3.4-1.2
		c1-0.1,1.9,0.3,2.6,0.9c0.7,0.7,1,1.6,1,2.6v4c0,0.3,0.1,0.5,0.4,0.5v1c-0.1,0-0.3,0-0.5,0s-0.5-0.1-0.7-0.2
		c-0.2-0.2-0.3-0.4-0.3-0.6v-0.7c-0.4,0.5-0.9,1-1.6,1.2C369,119.4,368.3,119.6,367.6,119.6z M367.9,118.7c0.6,0,1.1-0.1,1.7-0.3
		c0.5-0.2,0.9-0.5,1.2-0.9c0.1-0.1,0.2-0.2,0.2-0.3c0.1-0.1,0.1-0.2,0.1-0.3v-1.5c-0.4-0.1-0.8-0.3-1.2-0.3
		c-0.4-0.1-0.9-0.1-1.3-0.1c-0.7,0-1.4,0.1-2,0.5c-0.5,0.3-0.8,0.8-0.8,1.4c0,0.3,0.1,0.5,0.2,0.8c0.1,0.2,0.3,0.5,0.5,0.6
		c0.2,0.2,0.4,0.3,0.7,0.4C367.3,118.7,367.6,118.7,367.9,118.7z"/>
	<path class="st1" d="M377.7,119.6c-0.7,0-1.4-0.1-2-0.3c-0.6-0.2-1.2-0.6-1.7-1l0.5-0.8c0.5,0.4,1,0.7,1.5,0.9
		c0.5,0.2,1.1,0.3,1.7,0.3s1.2-0.1,1.7-0.4c0.4-0.3,0.7-0.7,0.6-1.3c0-0.2-0.1-0.4-0.2-0.6s-0.3-0.3-0.5-0.4
		c-0.3-0.1-0.5-0.3-0.8-0.3c-0.3-0.1-0.7-0.2-1.2-0.3s-1-0.3-1.3-0.4s-0.6-0.2-0.9-0.4c-0.2-0.1-0.4-0.3-0.5-0.6
		c-0.1-0.3-0.2-0.6-0.2-0.9c0-0.4,0.1-0.8,0.3-1.2c0.2-0.3,0.4-0.6,0.7-0.8c0.3-0.2,0.7-0.4,1.1-0.5s0.9-0.2,1.3-0.2
		c0.6,0,1.3,0.1,1.9,0.3c0.5,0.2,1,0.5,1.4,0.9l-0.6,0.7c-0.3-0.3-0.8-0.6-1.2-0.8c-0.5-0.2-1-0.3-1.5-0.3c-0.3,0-0.6,0-0.9,0.1
		c-0.2,0.1-0.5,0.2-0.7,0.3c-0.2,0.1-0.4,0.3-0.5,0.5s-0.2,0.5-0.2,0.8c0,0.2,0,0.4,0.1,0.6s0.2,0.3,0.4,0.4
		c0.2,0.1,0.4,0.2,0.7,0.3c0.3,0.1,0.6,0.2,1,0.3c0.6,0.1,1.1,0.3,1.5,0.4s0.8,0.3,1.1,0.5c0.3,0.2,0.5,0.4,0.7,0.7
		c0.2,0.3,0.2,0.7,0.2,1c0,0.8-0.3,1.5-0.9,2C379.5,119.4,378.6,119.7,377.7,119.6z"/>
	<path class="st1" d="M386.1,119.6c-0.7,0-1.4-0.1-2-0.3c-0.6-0.2-1.2-0.6-1.7-1l0.5-0.8c0.5,0.4,1,0.7,1.5,0.9
		c0.5,0.2,1.1,0.3,1.7,0.3s1.2-0.1,1.7-0.4c0.4-0.3,0.7-0.7,0.6-1.3c0-0.2,0-0.4-0.2-0.6c-0.1-0.2-0.3-0.3-0.5-0.4
		c-0.3-0.1-0.5-0.3-0.8-0.3c-0.3-0.1-0.7-0.2-1.2-0.3c-0.4-0.1-0.9-0.2-1.3-0.4c-0.3-0.1-0.6-0.2-0.9-0.4c-0.2-0.1-0.4-0.3-0.5-0.6
		c-0.1-0.3-0.2-0.6-0.2-0.9c0-0.4,0.1-0.8,0.3-1.2c0.2-0.3,0.4-0.6,0.7-0.8c0.3-0.2,0.7-0.4,1.1-0.5s0.9-0.2,1.3-0.2
		c0.6,0,1.3,0.1,1.9,0.3c0.5,0.2,1,0.5,1.4,0.9l-0.6,0.7c-0.3-0.3-0.8-0.6-1.2-0.8c-0.5-0.2-1-0.3-1.5-0.3c-0.3,0-0.6,0-0.9,0.1
		s-0.5,0.2-0.7,0.3c-0.2,0.1-0.4,0.3-0.5,0.5s-0.2,0.5-0.2,0.8c0,0.2,0,0.4,0.1,0.6s0.2,0.3,0.4,0.4s0.5,0.2,0.7,0.3
		c0.3,0.1,0.6,0.2,1,0.3c0.6,0.1,1.1,0.3,1.5,0.4s0.8,0.3,1.1,0.5s0.5,0.4,0.7,0.7c0.2,0.3,0.2,0.7,0.2,1c0,0.8-0.3,1.5-1,2
		C387.9,119.5,387,119.7,386.1,119.6z"/>
	<path class="st1" d="M402.5,110.5h1.1l-3.9,9h-1l-1.9-4.6l-1.9,4.6h-1l-3.9-9h1.1l3.3,7.7l1.7-4.1l-1.5-3.6h1l1.2,2.9l1.2-2.9h1
		l-1.5,3.6l1.7,4.1L402.5,110.5z"/>
	<path class="st1" d="M408.7,119.6c-0.6,0-1.2-0.1-1.8-0.4c-0.5-0.2-1-0.6-1.4-1s-0.7-0.9-0.9-1.5c-0.2-0.6-0.3-1.2-0.3-1.8
		c0-1.2,0.4-2.4,1.3-3.3c0.4-0.4,0.9-0.8,1.4-1c0.6-0.3,1.2-0.4,1.8-0.4c0.6,0,1.2,0.1,1.8,0.4c0.5,0.2,1,0.6,1.4,1
		c0.8,0.9,1.3,2.1,1.3,3.3c0,0.6-0.1,1.2-0.3,1.8c-0.2,0.5-0.5,1-0.9,1.5C411.1,119.1,409.9,119.6,408.7,119.6L408.7,119.6z
		 M405.5,115c0,0.9,0.4,1.8,1,2.5c0.3,0.3,0.6,0.6,1,0.8c0.4,0.2,0.8,0.3,1.3,0.3c0.4,0,0.9-0.1,1.3-0.3c0.4-0.2,0.7-0.5,1-0.8
		s0.5-0.7,0.7-1.1c0.5-1.4,0.3-2.9-0.7-4c-0.3-0.3-0.6-0.6-1-0.8c-0.4-0.2-0.8-0.3-1.3-0.3c-0.4,0-0.9,0.1-1.3,0.3
		c-0.4,0.2-0.7,0.5-1,0.8s-0.5,0.7-0.7,1.2C405.6,114,405.5,114.5,405.5,115z"/>
	<path class="st1" d="M419.6,111.5c-0.7,0-1.5,0.2-2.1,0.7c-0.6,0.4-1,1-1.2,1.7v5.6h-1.2v-9h1.1v2.2c0.3-0.6,0.8-1.2,1.3-1.6
		s1.2-0.6,1.8-0.6h0.2L419.6,111.5z"/>
	<path class="st1" d="M424.4,119.6c-0.6,0-1.2-0.1-1.7-0.4c-0.5-0.2-1-0.6-1.4-1s-0.7-0.9-0.9-1.5c-0.2-0.6-0.3-1.1-0.3-1.7
		s0.1-1.2,0.3-1.8c0.2-0.5,0.5-1,0.9-1.5c0.4-0.4,0.8-0.8,1.3-1s1.1-0.4,1.6-0.4c0.7,0,1.4,0.2,2,0.6s1,0.9,1.4,1.4v-5.4h1.2v11
		c0,0.3,0.1,0.5,0.4,0.5v1c-0.1,0-0.3,0-0.4,0c-0.3,0-0.5-0.1-0.7-0.3c-0.2-0.2-0.3-0.4-0.3-0.6v-0.9c-0.3,0.6-0.8,1.1-1.4,1.4
		C425.7,119.4,425.1,119.6,424.4,119.6z M424.6,118.6c0.3,0,0.6-0.1,0.9-0.2s0.6-0.3,0.9-0.5s0.5-0.4,0.7-0.7
		c0.2-0.3,0.3-0.6,0.4-0.9v-2.8c-0.1-0.3-0.3-0.6-0.5-0.9s-0.5-0.5-0.8-0.7s-0.6-0.4-0.9-0.5s-0.6-0.2-0.9-0.2
		c-0.5,0-0.9,0.1-1.3,0.3c-0.4,0.2-0.7,0.5-1,0.8s-0.5,0.7-0.6,1.2c-0.1,0.4-0.2,0.9-0.2,1.3c0,0.5,0.1,0.9,0.3,1.4
		c0.3,0.8,0.9,1.5,1.8,1.9C423.7,118.5,424.2,118.6,424.6,118.6L424.6,118.6z"/>
	<path class="st1" d="M431.3,110.5l0.3-1.8h-0.4v-1.8h1.1v1.8l-0.4,1.8H431.3z M433.4,110.5l0.3-1.8h-0.4v-1.8h1.1v1.8l-0.4,1.8
		H433.4z"/>
	<path class="st1" d="M239.5,142.8h0.3h0.3c0.2,0,0.3,0,0.5-0.1s0.3-0.2,0.4-0.4c0.1-0.3,0.3-0.6,0.4-0.8c0.1-0.4,0.4-0.9,0.6-1.5
		l-3.9-9h1.2l3.3,7.9l3.1-7.9h1.1l-4.6,11.5c-0.1,0.3-0.3,0.6-0.6,0.9c-0.3,0.3-0.8,0.4-1.2,0.4h-0.3h-0.4L239.5,142.8z"/>
	<path class="st1" d="M251.7,140.2c-0.6,0-1.2-0.1-1.8-0.4c-0.5-0.2-1-0.6-1.4-1s-0.7-0.9-0.9-1.5c-0.4-1.1-0.4-2.4,0-3.6
		c0.2-0.5,0.5-1.1,0.9-1.5s0.9-0.8,1.4-1c1.1-0.5,2.4-0.5,3.5,0c0.5,0.2,1,0.6,1.4,1c0.8,0.9,1.3,2,1.3,3.3c0,0.6-0.1,1.2-0.3,1.8
		c-0.2,0.5-0.5,1-0.9,1.5c-0.4,0.4-0.9,0.8-1.4,1C253,140.1,252.4,140.2,251.7,140.2z M248.5,135.6c0,0.5,0.1,1,0.3,1.4
		s0.4,0.8,0.7,1.1s0.6,0.6,1,0.8c0.8,0.4,1.7,0.4,2.5,0c0.4-0.2,0.7-0.5,1-0.8s0.5-0.7,0.7-1.1c0.3-0.9,0.3-1.9,0-2.8
		c-0.2-0.4-0.4-0.8-0.7-1.1s-0.6-0.6-1-0.8s-0.8-0.3-1.3-0.3c-0.4,0-0.9,0.1-1.3,0.3s-0.7,0.5-1,0.8s-0.5,0.7-0.7,1.2
		C248.6,134.7,248.5,135.1,248.5,135.6z"/>
	<path class="st1" d="M261,140.2c-0.8,0.1-1.7-0.3-2.2-1c-0.5-0.9-0.8-1.9-0.7-2.9v-5.2h1.1v5.1c0,2,0.7,3,2.1,3
		c0.3,0,0.7-0.1,1-0.2c0.3-0.1,0.6-0.3,0.9-0.5s0.5-0.5,0.8-0.8c0.2-0.3,0.4-0.6,0.5-1v-5.6h1.2v7.4c0,0.3,0.1,0.5,0.4,0.5v1h-0.3
		h-0.2c-0.3,0-0.5-0.1-0.7-0.3s-0.3-0.5-0.3-0.7v-1c-0.4,0.7-0.9,1.2-1.6,1.6C262.4,140,261.7,140.2,261,140.2z"/>
	<path class="st1" d="M286,140h-1.2v-5c0.1-0.8-0.1-1.6-0.5-2.3c-0.3-0.5-0.9-0.8-1.5-0.7c-0.3,0-0.7,0.1-1,0.2s-0.6,0.3-0.8,0.5
		c-0.3,0.2-0.5,0.5-0.7,0.8s-0.3,0.6-0.5,1v5.5h-1.2v-5c0.1-0.8-0.1-1.6-0.5-2.3c-0.3-0.5-0.9-0.8-1.5-0.7c-0.7,0-1.3,0.2-1.8,0.7
		s-0.9,1.1-1.1,1.9v5.5h-1.2v-9h1.1v2c0.3-0.7,0.8-1.2,1.4-1.6c0.6-0.4,1.3-0.6,2-0.6s1.3,0.2,1.8,0.6c0.5,0.4,0.8,1,0.8,1.7
		c0.6-1.4,1.9-2.3,3.5-2.3c0.4,0,0.9,0.1,1.3,0.3c0.3,0.2,0.6,0.4,0.8,0.8c0.2,0.4,0.4,0.8,0.5,1.2c0.1,0.5,0.1,1.1,0.1,1.6L286,140
		z"/>
	<path class="st1" d="M292.4,140.2c-0.6,0-1.2-0.1-1.8-0.4c-0.5-0.2-1-0.6-1.4-1s-0.7-0.9-0.9-1.5c-0.2-0.6-0.3-1.2-0.3-1.8
		s0.1-1.2,0.3-1.8c0.2-0.5,0.5-1,0.9-1.5c0.8-0.9,2-1.4,3.2-1.4c0.6,0,1.2,0.1,1.8,0.4c0.5,0.2,1,0.6,1.4,1s0.7,0.9,0.9,1.5
		c0.2,0.6,0.3,1.2,0.3,1.8v0.3c0,0.1,0,0.1,0,0.2h-7.7c0.1,0.9,0.4,1.7,1.1,2.4c0.3,0.3,0.6,0.5,1,0.7s0.8,0.2,1.2,0.3
		c0.3,0,0.6,0,0.9-0.1s0.5-0.2,0.8-0.3c0.2-0.1,0.5-0.3,0.6-0.5c0.2-0.2,0.3-0.4,0.5-0.7l1,0.3c-0.1,0.3-0.3,0.6-0.6,0.9
		c-0.3,0.3-0.6,0.5-0.9,0.7s-0.7,0.4-1.1,0.5C293.2,140.2,292.8,140.2,292.4,140.2z M295.7,135.1c0-0.5-0.1-0.9-0.3-1.3
		c-0.2-0.4-0.4-0.7-0.7-1s-0.6-0.5-1-0.7c-0.8-0.3-1.7-0.3-2.5,0c-0.4,0.2-0.7,0.4-1,0.7s-0.5,0.6-0.7,1s-0.3,0.9-0.3,1.3H295.7z"/>
	<path class="st1" d="M311.9,140h-1.2v-5c0.1-0.8-0.1-1.6-0.5-2.3c-0.3-0.5-0.9-0.8-1.5-0.7c-0.3,0-0.7,0.1-1,0.2s-0.6,0.3-0.8,0.5
		c-0.3,0.2-0.5,0.5-0.7,0.8s-0.3,0.6-0.4,1v5.5h-1.2v-5c0.1-0.8-0.1-1.6-0.5-2.3c-0.3-0.5-0.9-0.8-1.5-0.7c-0.7,0-1.3,0.2-1.8,0.7
		s-0.9,1.1-1.1,1.9v5.5h-1.1v-9h1.1v2c0.3-0.6,0.8-1.2,1.4-1.6c0.6-0.4,1.3-0.6,2-0.6s1.3,0.2,1.8,0.6c0.5,0.4,0.8,1,0.8,1.7
		c0.6-1.4,2-2.2,3.5-2.2c0.4,0,0.9,0.1,1.3,0.3c0.3,0.2,0.6,0.4,0.8,0.8c0.2,0.4,0.4,0.8,0.5,1.2c0.1,0.5,0.2,1.1,0.1,1.6L311.9,140
		z"/>
	<path class="st1" d="M318.2,140.2c-1.2,0-2.4-0.5-3.2-1.4c-0.4-0.4-0.7-0.9-0.9-1.5s-0.3-1.2-0.3-1.8s0.1-1.2,0.3-1.8
		c0.2-0.5,0.5-1,0.9-1.5c0.4-0.4,0.9-0.8,1.4-1c0.6-0.3,1.2-0.4,1.8-0.4c0.6,0,1.2,0.1,1.8,0.4c0.5,0.2,1,0.6,1.4,1s0.7,0.9,0.9,1.5
		c0.2,0.6,0.3,1.2,0.3,1.8s-0.1,1.2-0.3,1.8c-0.2,0.5-0.5,1-0.9,1.5C320.6,139.7,319.4,140.2,318.2,140.2L318.2,140.2z M315,135.6
		c0,0.5,0.1,1,0.3,1.4s0.4,0.8,0.7,1.1c0.3,0.3,0.6,0.6,1,0.8s0.8,0.3,1.3,0.3c0.4,0,0.9-0.1,1.3-0.3s0.7-0.4,1-0.8
		c0.3-0.3,0.5-0.7,0.7-1.1c0.3-0.9,0.3-1.9,0-2.8c-0.2-0.4-0.4-0.8-0.7-1.1s-0.6-0.6-1-0.8c-0.8-0.4-1.7-0.4-2.5,0
		c-0.4,0.2-0.7,0.5-1,0.8C315.3,133.7,314.9,134.7,315,135.6L315,135.6z"/>
	<path class="st1" d="M329.1,132.1c-0.7,0-1.5,0.2-2.1,0.6c-0.6,0.4-1,1-1.2,1.7v5.6h-1.2v-9h1.1v2.1c0.3-0.6,0.8-1.2,1.3-1.6
		c0.5-0.4,1.2-0.6,1.8-0.6h0.2v1.2H329.1L329.1,132.1z"/>
	<path class="st1" d="M330.6,129.2v-1.7h1.2v1.7H330.6z M330.6,140v-9h1.2v9H330.6z"/>
	<path class="st1" d="M333.6,139.3l6-7.3h-5.9v-0.9h7.2v0.8l-6,7.3h6v0.9h-7.3L333.6,139.3z"/>
	<path class="st1" d="M346.4,140.2c-1.2,0-2.4-0.5-3.2-1.4c-0.4-0.4-0.7-0.9-0.9-1.5s-0.3-1.2-0.3-1.8c0-1.2,0.4-2.4,1.3-3.2
		c0.4-0.4,0.9-0.8,1.4-1c0.6-0.2,1.2-0.4,1.8-0.4s1.2,0.1,1.8,0.4c0.5,0.2,1,0.6,1.4,1c0.8,0.9,1.2,2,1.2,3.2v0.3c0,0.1,0,0.1,0,0.2
		h-7.7c0,0.5,0.1,0.9,0.3,1.3c0.2,0.4,0.4,0.8,0.7,1.1c0.6,0.6,1.4,1,2.3,1c0.6,0,1.1-0.2,1.6-0.4c0.2-0.1,0.5-0.3,0.7-0.5
		s0.3-0.4,0.4-0.7l1,0.3c-0.1,0.3-0.3,0.6-0.6,0.9c-0.5,0.6-1.2,1-2,1.2C347.3,140.2,346.9,140.2,346.4,140.2z M349.7,135.1
		c0-0.9-0.4-1.7-1-2.3c-0.3-0.3-0.6-0.5-1-0.7s-0.8-0.2-1.2-0.2s-0.8,0.1-1.2,0.2c-0.4,0.2-0.7,0.4-1,0.7s-0.5,0.6-0.7,1
		s-0.3,0.9-0.3,1.3H349.7z"/>
	<path class="st1" d="M352.8,141.4l0.3-1.4h-0.4v-1.6h1.1v1.6l-0.4,1.4H352.8z"/>
	<path class="st1" d="M363.2,140.2c-0.8,0-1.5-0.3-2.1-0.8c-0.3-0.2-0.5-0.5-0.6-0.9c-0.2-0.3-0.2-0.7-0.2-1.1
		c0-0.4,0.1-0.7,0.3-1.1c0.2-0.3,0.5-0.6,0.8-0.9c0.4-0.3,0.8-0.4,1.2-0.6c0.5-0.1,1-0.2,1.5-0.2s0.9,0,1.4,0.1
		c0.4,0.1,0.8,0.2,1.3,0.3v-0.8c0-0.7-0.2-1.4-0.7-1.9s-1.2-0.7-1.9-0.7c-0.5,0-1,0.1-1.4,0.3c-0.5,0.2-1,0.5-1.5,0.8l-0.4-0.8
		c1-0.7,2.1-1.1,3.4-1.2c1,0,1.9,0.3,2.6,1s1,1.6,1,2.6v4c0,0.3,0.1,0.5,0.4,0.5v1c-0.1,0-0.3,0-0.5,0c-0.3,0-0.5-0.1-0.7-0.2
		c-0.2-0.2-0.3-0.4-0.3-0.6v-0.7c-0.4,0.5-0.9,1-1.6,1.2C364.6,140.1,363.9,140.2,363.2,140.2z M363.5,139.3c0.6,0,1.1-0.1,1.7-0.4
		c0.5-0.2,0.9-0.5,1.2-0.9c0.1-0.1,0.2-0.2,0.2-0.3s0.1-0.2,0.1-0.3v-1.5c-0.4-0.1-0.8-0.3-1.2-0.3c-0.4-0.1-0.9-0.1-1.3-0.1
		c-0.7,0-1.4,0.1-2,0.5c-0.5,0.3-0.8,0.8-0.8,1.4c0,0.3,0.1,0.5,0.2,0.8c0.1,0.2,0.3,0.5,0.5,0.6c0.2,0.2,0.4,0.3,0.7,0.4
		C362.9,139.2,363.2,139.3,363.5,139.3L363.5,139.3z"/>
	<path class="st1" d="M377.8,140h-1.2v-5c0.1-0.8-0.1-1.6-0.5-2.3c-0.3-0.5-0.9-0.8-1.5-0.7c-0.3,0-0.7,0.1-1,0.2s-0.7,0.3-1,0.5
		s-0.6,0.5-0.8,0.8s-0.4,0.6-0.5,1v5.5h-1.2v-9h1.1v2c0.8-1.3,2.2-2.2,3.8-2.2c0.4,0,0.9,0.1,1.3,0.3c0.3,0.2,0.6,0.4,0.8,0.8
		s0.4,0.8,0.5,1.2c0.1,0.5,0.1,1.1,0.1,1.6L377.8,140z"/>
	<path class="st1" d="M384,140.2c-0.6,0-1.2-0.1-1.7-0.4c-0.5-0.2-1-0.6-1.4-1s-0.7-0.9-0.9-1.5c-0.2-0.6-0.3-1.1-0.3-1.7
		c0-0.6,0.1-1.2,0.3-1.8c0.2-0.5,0.5-1,0.9-1.5c0.4-0.4,0.8-0.8,1.3-1s1.1-0.4,1.6-0.4c0.7,0,1.4,0.2,2,0.6c0.6,0.4,1,0.9,1.4,1.4
		v-5.5h1.2v11c0,0.3,0.1,0.5,0.4,0.5v1c-0.1,0-0.3,0-0.4,0c-0.3,0-0.5-0.1-0.7-0.3s-0.3-0.4-0.3-0.6v-0.9c-0.4,0.6-0.9,1.1-1.5,1.4
		C385.3,140,384.6,140.2,384,140.2z M384.2,139.2c0.3,0,0.6-0.1,0.9-0.2c0.3-0.1,0.6-0.3,0.9-0.5s0.5-0.4,0.7-0.7s0.3-0.6,0.4-0.9
		v-2.8c-0.1-0.3-0.3-0.6-0.5-0.9c-0.2-0.3-0.5-0.5-0.8-0.7s-0.6-0.4-0.9-0.5s-0.6-0.2-0.9-0.2c-0.5,0-0.9,0.1-1.3,0.3
		s-0.7,0.5-1,0.8s-0.5,0.7-0.6,1.2c-0.1,0.4-0.2,0.9-0.2,1.3c0,0.5,0.1,0.9,0.3,1.4c0.2,0.4,0.4,0.8,0.7,1.1
		c0.3,0.3,0.7,0.6,1.1,0.8C383.3,139.1,383.8,139.2,384.2,139.2L384.2,139.2z"/>
	<path class="st1" d="M398.1,140.2c-0.8,0.1-1.7-0.3-2.2-1c-0.5-0.9-0.8-1.9-0.7-2.9v-5.2h1.2v5.1c0,2,0.7,3,2.1,3
		c0.3,0,0.7-0.1,1-0.2c0.3-0.1,0.6-0.3,0.9-0.5s0.5-0.5,0.8-0.8c0.2-0.3,0.4-0.6,0.5-1v-5.6h1.2v7.4c0,0.3,0.1,0.5,0.4,0.5v1H403
		h-0.2c-0.3,0-0.5-0.1-0.7-0.3s-0.3-0.5-0.3-0.7v-1c-0.4,0.7-0.9,1.2-1.6,1.6C399.6,140,398.9,140.2,398.1,140.2z"/>
	<path class="st1" d="M408.5,140.2c-0.7,0-1.4-0.1-2-0.4c-0.6-0.2-1.2-0.5-1.7-1l0.5-0.8c0.5,0.4,1,0.7,1.5,0.9s1.1,0.3,1.7,0.3
		s1.2-0.1,1.7-0.4c0.4-0.3,0.7-0.7,0.6-1.3c0-0.2-0.1-0.4-0.2-0.6c-0.1-0.2-0.3-0.3-0.5-0.4c-0.3-0.1-0.5-0.3-0.8-0.3
		c-0.3-0.1-0.7-0.2-1.2-0.3s-0.9-0.2-1.3-0.4c-0.3-0.1-0.6-0.2-0.9-0.4c-0.2-0.1-0.4-0.3-0.5-0.6s-0.2-0.6-0.2-0.9
		c0-0.4,0.1-0.8,0.3-1.2c0.2-0.3,0.4-0.6,0.7-0.9c0.3-0.2,0.7-0.4,1.1-0.5c1-0.3,2.2-0.2,3.2,0.2c0.5,0.2,1,0.5,1.4,0.9l-0.7,0.8
		c-0.3-0.3-0.8-0.6-1.2-0.8c-0.5-0.2-1-0.3-1.5-0.3c-0.3,0-0.6,0-0.9,0.1c-0.2,0.1-0.5,0.2-0.7,0.3c-0.4,0.3-0.7,0.8-0.6,1.3
		c0,0.2,0,0.4,0.1,0.6c0.1,0.2,0.2,0.3,0.4,0.4c0.2,0.1,0.5,0.2,0.7,0.3c0.3,0.1,0.6,0.2,1,0.3c0.6,0.1,1.1,0.3,1.5,0.4
		c0.4,0.1,0.8,0.3,1.1,0.5s0.5,0.4,0.7,0.7s0.2,0.7,0.2,1c0,0.8-0.3,1.5-1,2C410.3,140.1,409.4,140.3,408.5,140.2z"/>
	<path class="st1" d="M417.8,140.2c-0.6,0-1.2-0.1-1.8-0.4c-0.5-0.2-1-0.6-1.4-1s-0.7-0.9-0.9-1.5s-0.3-1.2-0.3-1.8
		c0-1.2,0.4-2.4,1.3-3.2c1.3-1.3,3.3-1.7,5-1c0.5,0.2,1,0.6,1.4,1s0.7,0.9,0.9,1.5c0.2,0.6,0.3,1.2,0.3,1.8v0.3c0,0.1,0,0.1,0,0.2
		h-7.7c0.1,0.9,0.4,1.7,1.1,2.4c0.3,0.3,0.6,0.5,1,0.7s0.8,0.2,1.2,0.3c0.3,0,0.6,0,0.9-0.1s0.5-0.2,0.8-0.3
		c0.2-0.1,0.5-0.3,0.6-0.5c0.2-0.2,0.3-0.4,0.5-0.7l1,0.3c-0.1,0.3-0.3,0.6-0.6,0.9c-0.3,0.3-0.6,0.5-0.9,0.7s-0.7,0.4-1.1,0.5
		C418.6,140.2,418.2,140.2,417.8,140.2z M421.1,135.1c0-0.5-0.1-0.9-0.3-1.3c-0.2-0.4-0.4-0.7-0.7-1c-0.3-0.3-0.6-0.5-1-0.7
		c-0.8-0.3-1.7-0.3-2.5,0c-0.4,0.2-0.7,0.4-1,0.7s-0.5,0.6-0.7,1s-0.3,0.9-0.3,1.3H421.1z"/>
	<path class="st1" d="M428.4,129.2v-1.7h1.2v1.7H428.4z M428.4,140v-9h1.2v9H428.4z"/>
	<path class="st1" d="M439.6,140h-1.2v-5c0.1-0.8-0.1-1.6-0.5-2.3c-0.3-0.5-0.9-0.8-1.5-0.7c-0.3,0-0.7,0.1-1,0.2s-0.7,0.3-1,0.5
		s-0.6,0.5-0.8,0.8s-0.4,0.6-0.5,1v5.5h-1.2v-9h1.1v2c0.8-1.3,2.2-2.2,3.8-2.2c0.4,0,0.9,0.1,1.3,0.3c0.3,0.2,0.6,0.4,0.8,0.8
		s0.4,0.8,0.5,1.2c0.1,0.5,0.1,1.1,0.1,1.6L439.6,140z"/>
	<path class="st1" d="M238.3,156.2c0-0.6,0.1-1.2,0.3-1.8c0.2-0.5,0.5-1,0.9-1.5c0.4-0.4,0.9-0.8,1.4-1c0.6-0.2,1.2-0.4,1.8-0.4
		c0.8,0,1.5,0.2,2.2,0.6c0.6,0.4,1.1,0.9,1.4,1.6l-1.1,0.4c-0.2-0.4-0.6-0.8-1.1-1.1s-1-0.4-1.5-0.4c-0.4,0-0.9,0.1-1.3,0.3
		s-0.7,0.4-1,0.8c-0.3,0.3-0.5,0.7-0.7,1.1c-0.2,0.5-0.3,0.9-0.3,1.4s0.1,1,0.3,1.4s0.4,0.8,0.7,1.2c0.3,0.3,0.6,0.6,1,0.8
		s0.8,0.3,1.3,0.3c0.3,0,0.6,0,0.9-0.1s0.5-0.2,0.8-0.3c0.2-0.1,0.4-0.3,0.6-0.5s0.3-0.4,0.4-0.6l1.1,0.3c-0.1,0.3-0.3,0.6-0.5,0.9
		c-0.2,0.3-0.5,0.5-0.9,0.7c-0.3,0.2-0.7,0.4-1.1,0.5s-0.8,0.2-1.2,0.2c-0.6,0-1.2-0.1-1.8-0.4c-1.1-0.5-1.9-1.4-2.4-2.5
		C238.4,157.4,238.3,156.8,238.3,156.2z"/>
	<path class="st1" d="M252.1,160.8c-0.6,0-1.2-0.1-1.8-0.4c-0.5-0.2-1-0.6-1.4-1s-0.7-0.9-0.9-1.5s-0.3-1.2-0.3-1.8s0.1-1.2,0.3-1.8
		c0.2-0.5,0.5-1,0.9-1.5c0.4-0.4,0.9-0.8,1.4-1c0.6-0.3,1.2-0.4,1.8-0.4s1.2,0.1,1.8,0.4c0.5,0.2,1,0.6,1.4,1
		c0.8,0.9,1.3,2.1,1.3,3.3c0,0.6-0.1,1.2-0.3,1.8c-0.2,0.5-0.5,1-0.9,1.5C254.5,160.4,253.3,160.9,252.1,160.8L252.1,160.8z
		 M248.8,156.2c0,0.5,0.1,1,0.3,1.4s0.4,0.8,0.7,1.1s0.6,0.6,1,0.8c0.8,0.4,1.7,0.4,2.5,0c0.4-0.2,0.7-0.5,1-0.8
		c1-1.1,1.2-2.6,0.7-4c-0.2-0.4-0.4-0.8-0.7-1.1s-0.6-0.6-1-0.8s-0.8-0.3-1.3-0.3c-0.4,0-0.9,0.1-1.3,0.3s-0.7,0.5-1,0.8
		C249.2,154.3,248.8,155.2,248.8,156.2L248.8,156.2z"/>
	<path class="st1" d="M271.8,160.7h-1.2v-5c0.1-0.8-0.1-1.6-0.5-2.3c-0.3-0.5-0.9-0.8-1.5-0.7c-0.3,0-0.7,0.1-1,0.2
		c-0.3,0.1-0.6,0.3-0.8,0.5c-0.3,0.2-0.5,0.5-0.7,0.8s-0.3,0.6-0.5,1v5.5h-1.2v-5c0.1-0.8-0.1-1.6-0.5-2.3c-0.3-0.5-0.9-0.8-1.5-0.7
		c-0.7,0-1.3,0.2-1.8,0.7s-0.9,1.1-1.1,1.9v5.5h-1.2v-8.9h1.1v2c0.3-0.7,0.8-1.2,1.4-1.6c0.6-0.4,1.3-0.6,2-0.6s1.3,0.2,1.8,0.6
		c0.5,0.4,0.8,1,0.8,1.7c0.6-1.4,1.9-2.3,3.5-2.3c0.4,0,0.9,0.1,1.3,0.3c0.3,0.2,0.6,0.4,0.8,0.8c0.2,0.4,0.4,0.8,0.5,1.2
		c0.1,0.5,0.2,1.1,0.1,1.6L271.8,160.7z"/>
	<path class="st1" d="M278.7,160.8c-0.7,0-1.4-0.2-2-0.5s-1-0.8-1.4-1.4v1.7h-1v-12.5h1.2v5.5c0.4-0.6,0.9-1.1,1.4-1.5
		c1.1-0.7,2.5-0.7,3.6-0.2c0.5,0.2,0.9,0.6,1.3,1c0.4,0.5,0.6,1,0.8,1.5c0.2,0.6,0.3,1.1,0.3,1.7c0,0.6-0.1,1.2-0.3,1.8
		c-0.2,0.5-0.5,1-0.9,1.5c-0.4,0.4-0.8,0.8-1.4,1C279.8,160.7,279.3,160.8,278.7,160.8z M278.4,159.8c0.5,0,0.9-0.1,1.4-0.3
		c0.4-0.2,0.8-0.5,1-0.8c0.3-0.3,0.5-0.7,0.7-1.1c0.2-0.4,0.2-0.9,0.3-1.3c0-0.5-0.1-0.9-0.2-1.4c-0.1-0.4-0.4-0.8-0.6-1.2
		c-0.3-0.3-0.6-0.6-1-0.8s-0.8-0.3-1.3-0.3c-0.3,0-0.7,0.1-1,0.2c-0.3,0.1-0.6,0.3-0.9,0.5s-0.5,0.5-0.7,0.7
		c-0.2,0.3-0.4,0.5-0.5,0.9v2.8c0,0.3,0.2,0.6,0.4,0.9c0.2,0.3,0.4,0.5,0.7,0.7c0.3,0.2,0.6,0.4,0.9,0.5
		C277.8,159.8,278.1,159.8,278.4,159.8L278.4,159.8z"/>
	<path class="st1" d="M284.9,149.8v-1.7h1.2v1.7H284.9z M284.9,160.7v-8.9h1.2v8.9H284.9z"/>
	<path class="st1" d="M296.1,160.7h-1.2v-5c0.1-0.8-0.1-1.6-0.5-2.3c-0.3-0.5-0.9-0.8-1.5-0.7c-0.3,0-0.7,0.1-1,0.2
		c-0.3,0.1-0.7,0.3-1,0.5s-0.6,0.5-0.8,0.8s-0.4,0.6-0.5,1v5.5h-1.2v-8.9h1.1v2c0.4-0.7,0.9-1.2,1.6-1.6c0.7-0.4,1.4-0.6,2.2-0.6
		c0.4,0,0.9,0.1,1.3,0.3c0.3,0.2,0.6,0.4,0.8,0.8c0.2,0.4,0.4,0.8,0.4,1.2c0.1,0.5,0.1,1.1,0.1,1.6L296.1,160.7z"/>
	<path class="st1" d="M300.9,160.8c-0.4,0-0.8-0.1-1.2-0.2c-0.3-0.1-0.7-0.3-0.9-0.6c-0.3-0.2-0.5-0.5-0.6-0.9
		c-0.1-0.3-0.2-0.7-0.2-1.1c0-0.4,0.1-0.8,0.3-1.1s0.5-0.6,0.8-0.9c0.4-0.3,0.8-0.4,1.2-0.6c0.5-0.1,1-0.2,1.5-0.2s0.9,0,1.4,0.1
		c0.4,0.1,0.9,0.2,1.3,0.3v-0.8c0-0.7-0.2-1.4-0.7-1.9s-1.2-0.7-1.9-0.7c-0.5,0-1,0.1-1.4,0.3c-0.5,0.2-1,0.5-1.5,0.8l-0.4-0.8
		c1-0.7,2.2-1.1,3.4-1.2c1-0.1,1.9,0.3,2.6,0.9c0.7,0.7,1,1.6,1,2.6v4c0,0.3,0.1,0.5,0.4,0.5v1c-0.1,0-0.3,0.1-0.5,0.1
		c-0.3,0-0.5-0.1-0.7-0.2c-0.2-0.2-0.3-0.4-0.3-0.6v-0.7c-0.4,0.5-0.9,1-1.5,1.2C302.3,160.7,301.6,160.8,300.9,160.8z M301.2,159.9
		c0.6,0,1.1-0.1,1.7-0.3c0.5-0.2,0.9-0.5,1.2-0.9c0.1-0.1,0.2-0.2,0.2-0.3s0.1-0.2,0.1-0.3v-1.5c-0.4-0.1-0.8-0.3-1.2-0.3
		c-0.4-0.1-0.9-0.1-1.3-0.1c-0.7,0-1.4,0.1-2,0.5c-0.5,0.3-0.8,0.8-0.8,1.4c0,0.3,0.1,0.5,0.2,0.8c0.1,0.2,0.3,0.5,0.5,0.6
		c0.2,0.2,0.4,0.3,0.7,0.4C300.6,159.9,300.9,159.9,301.2,159.9L301.2,159.9z"/>
	<path class="st1" d="M312.2,160.2l-0.3,0.1c-0.3,0.1-0.7,0.2-1,0.3c-0.2,0-0.5,0.1-0.7,0.1s-0.5,0-0.7-0.1s-0.4-0.2-0.6-0.3
		c-0.2-0.2-0.3-0.3-0.4-0.5s-0.2-0.5-0.1-0.8v-6.4h-1.2v-0.9h1.2v-3h1.2v3h2.1v0.9h-2.1v6.1c0,0.3,0.1,0.6,0.4,0.7
		c0.2,0.2,0.5,0.2,0.7,0.2c0.3,0,0.6-0.1,0.9-0.2c0.2-0.1,0.3-0.1,0.5-0.2L312.2,160.2z"/>
	<path class="st1" d="M313.7,149.8v-1.7h1.2v1.7H313.7z M313.7,160.7v-8.9h1.2v8.9H313.7z"/>
	<path class="st1" d="M321.2,160.8c-0.6,0-1.2-0.1-1.8-0.4c-0.5-0.2-1-0.6-1.4-1s-0.7-0.9-0.9-1.5c-0.2-0.6-0.3-1.2-0.3-1.8
		s0.1-1.2,0.3-1.8c0.2-0.5,0.5-1,0.9-1.5c0.4-0.4,0.9-0.8,1.4-1c0.6-0.3,1.2-0.4,1.8-0.4s1.2,0.1,1.8,0.4c0.5,0.2,1,0.6,1.4,1
		s0.7,0.9,0.9,1.5s0.3,1.2,0.3,1.8s-0.1,1.2-0.3,1.8c-0.4,1.1-1.2,2-2.3,2.5C322.4,160.7,321.8,160.8,321.2,160.8z M318,156.2
		c0,0.5,0.1,1,0.3,1.4s0.4,0.8,0.7,1.1c0.3,0.3,0.6,0.6,1,0.8c0.8,0.4,1.7,0.4,2.5,0c0.4-0.2,0.7-0.5,1-0.8s0.5-0.7,0.7-1.1
		c0.3-0.9,0.3-1.9,0-2.8c-0.2-0.4-0.4-0.8-0.7-1.1s-0.6-0.6-1-0.8s-0.8-0.3-1.3-0.3c-0.4,0-0.9,0.1-1.3,0.3s-0.7,0.5-1,0.8
		s-0.5,0.7-0.7,1.2C318.1,155.3,318,155.7,318,156.2L318,156.2z"/>
	<path class="st1" d="M335.2,160.7H334v-5c0.1-0.8-0.1-1.6-0.5-2.3c-0.3-0.5-0.9-0.8-1.5-0.7c-0.3,0-0.7,0.1-1,0.2
		c-0.3,0.1-0.7,0.3-1,0.5s-0.6,0.5-0.8,0.8c-0.2,0.3-0.4,0.6-0.5,1v5.5h-1.2v-8.9h1.1v2c0.4-0.7,0.9-1.2,1.6-1.6
		c0.7-0.4,1.4-0.6,2.2-0.6c0.4,0,0.9,0.1,1.3,0.3c0.3,0.2,0.6,0.4,0.8,0.8c0.2,0.4,0.4,0.8,0.4,1.2c0.1,0.5,0.1,1.1,0.1,1.6
		L335.2,160.7z"/>
	<path class="st1" d="M352.8,151.7h1.1l-3.8,8.9h-1l-1.9-4.6l-1.9,4.6h-1l-3.8-8.9h1.1l3.3,7.7l1.7-4.1l-1.5-3.6h1l1.2,2.9l1.2-2.9
		h1l-1.5,3.6l1.7,4.1L352.8,151.7z"/>
	<path class="st1" d="M355.5,149.8v-1.7h1.2v1.7H355.5z M355.5,160.7v-8.9h1.2v8.9H355.5z"/>
	<path class="st1" d="M363.6,160.2l-0.3,0.1c-0.3,0.1-0.7,0.2-1,0.3c-0.2,0-0.5,0.1-0.7,0.1s-0.5,0-0.7-0.1s-0.4-0.2-0.6-0.3
		c-0.4-0.3-0.6-0.8-0.6-1.3v-6.4h-1.2v-0.9h1.2v-3h1.2v3h2.1v0.9h-2.1v6.1c0,0.3,0.1,0.6,0.4,0.7c0.2,0.2,0.5,0.2,0.7,0.2
		c0.3,0,0.6-0.1,0.9-0.2c0.2-0.1,0.3-0.1,0.5-0.2L363.6,160.2z"/>
	<path class="st1" d="M372.6,160.7h-1.2v-5c0.1-0.8-0.1-1.6-0.5-2.3c-0.3-0.5-0.9-0.8-1.5-0.8c-0.3,0-0.7,0.1-1,0.2
		c-0.3,0.1-0.6,0.3-0.9,0.6c-0.3,0.2-0.5,0.5-0.7,0.8s-0.4,0.6-0.5,1v5.5h-1.2v-12.5h1.2v5.6c0.3-0.7,0.9-1.2,1.5-1.6
		c0.6-0.4,1.3-0.6,2-0.6c0.4,0,0.9,0.1,1.3,0.3s0.7,0.5,0.9,0.8c0.2,0.4,0.4,0.8,0.5,1.2c0.1,0.5,0.2,1,0.2,1.6L372.6,160.7z"/>
	<path class="st1" d="M381.7,160.8c-0.4,0-0.8-0.1-1.2-0.2c-0.3-0.1-0.7-0.3-0.9-0.6c-0.3-0.2-0.5-0.5-0.6-0.9
		c-0.1-0.3-0.2-0.7-0.2-1.1c0-0.4,0.1-0.8,0.3-1.1s0.5-0.6,0.8-0.9c0.4-0.3,0.8-0.4,1.2-0.6c0.5-0.1,1-0.2,1.5-0.2s0.9,0,1.4,0.1
		c0.4,0.1,0.9,0.2,1.3,0.3v-0.8c0-0.7-0.2-1.4-0.7-1.9s-1.2-0.7-1.9-0.7c-0.5,0-1,0.1-1.4,0.3c-0.5,0.2-1,0.5-1.5,0.8l-0.4-0.8
		c1-0.7,2.2-1.1,3.4-1.2c1-0.1,1.9,0.3,2.6,0.9c0.7,0.7,1,1.6,1,2.6v4c0,0.3,0.1,0.5,0.4,0.5v1c-0.1,0-0.3,0.1-0.4,0.1
		c-0.3,0-0.5-0.1-0.7-0.2c-0.2-0.2-0.3-0.4-0.3-0.6v-0.7c-0.4,0.5-0.9,1-1.5,1.2C383.1,160.7,382.4,160.8,381.7,160.8z M381.9,159.9
		c0.6,0,1.2-0.1,1.7-0.3s0.9-0.5,1.2-0.9c0.1-0.1,0.2-0.2,0.2-0.3s0.1-0.2,0.1-0.3v-1.5c-0.4-0.1-0.8-0.3-1.2-0.3
		c-0.4-0.1-0.9-0.1-1.3-0.1c-0.7,0-1.4,0.1-2,0.5c-0.5,0.3-0.8,0.8-0.8,1.4c0,0.3,0.1,0.5,0.2,0.8c0.1,0.2,0.3,0.5,0.4,0.6
		c0.2,0.2,0.4,0.3,0.7,0.4C381.4,159.9,381.7,159.9,381.9,159.9L381.9,159.9z"/>
	<path class="st1" d="M388.8,148.1h1.2v10.5c0,0.3,0.1,0.6,0.3,0.8c0.2,0.2,0.5,0.3,0.8,0.3c0.1,0,0.3,0,0.4,0
		c0.2,0,0.3-0.1,0.5-0.1l0.2,1c-0.3,0.1-0.5,0.2-0.8,0.2c-0.3,0.1-0.5,0.1-0.8,0.1c-0.5,0-0.9-0.1-1.3-0.5c-0.3-0.3-0.5-0.8-0.5-1.3
		L388.8,148.1z"/>
	<path class="st1" d="M393.5,148.1h1.2v10.5c0,0.3,0.1,0.6,0.3,0.8s0.5,0.3,0.8,0.3c0.1,0,0.3,0,0.4,0c0.2,0,0.3-0.1,0.5-0.1l0.2,1
		c-0.3,0.1-0.5,0.2-0.8,0.2c-0.3,0.1-0.5,0.1-0.8,0.1c-0.9,0.1-1.7-0.6-1.7-1.5c0-0.1,0-0.2,0-0.3L393.5,148.1z"/>
	<path class="st1" d="M405.8,160.8c-0.6,0-1.2-0.1-1.8-0.4c-1.1-0.5-1.9-1.4-2.3-2.5c-0.2-0.6-0.3-1.2-0.3-1.8s0.1-1.2,0.3-1.8
		c0.2-0.5,0.5-1,0.9-1.5c0.4-0.4,0.9-0.8,1.4-1c0.6-0.3,1.2-0.4,1.8-0.4c0.6,0,1.2,0.1,1.8,0.4c0.5,0.2,1,0.6,1.4,1s0.7,0.9,0.9,1.5
		c0.2,0.6,0.3,1.2,0.3,1.8s-0.1,1.2-0.3,1.8C409.3,159.7,407.6,160.8,405.8,160.8L405.8,160.8z M402.5,156.2c0,0.5,0.1,1,0.3,1.4
		s0.4,0.8,0.7,1.1c0.3,0.3,0.6,0.6,1,0.8c0.8,0.4,1.7,0.4,2.5,0c0.4-0.2,0.7-0.5,1-0.8s0.5-0.7,0.7-1.1c0.3-0.9,0.3-1.9,0-2.8
		c-0.2-0.4-0.4-0.8-0.7-1.1s-0.6-0.6-1-0.8c-0.8-0.4-1.7-0.4-2.5,0c-0.4,0.2-0.7,0.5-1,0.8s-0.5,0.7-0.7,1.2
		C402.6,155.3,402.5,155.7,402.5,156.2L402.5,156.2z"/>
	<path class="st1" d="M412.5,160.7v-8h-1.3v-0.9h1.2v-0.2c0-0.9,0.2-1.8,0.8-2.6c0.4-0.6,1.2-1,1.9-0.9c0.3,0,0.7,0.1,1,0.1
		c0.3,0.1,0.6,0.2,0.9,0.4l-0.4,0.9c-0.2-0.1-0.4-0.2-0.6-0.3s-0.5-0.1-0.7-0.1c-0.5,0-1,0.2-1.3,0.6c-0.3,0.6-0.5,1.2-0.4,1.8v0.3
		h2.5v0.9h-2.5v8H412.5z"/>
	<path class="st1" d="M421.8,163.4h0.3h0.3c0.2,0,0.3,0,0.5-0.1s0.3-0.2,0.4-0.4c0.1-0.3,0.3-0.6,0.4-0.8c0.1-0.4,0.4-0.9,0.6-1.5
		l-3.9-8.9h1.2l3.3,7.9l3.1-7.9h1.1l-4.6,11.5c-0.1,0.3-0.4,0.6-0.6,0.9c-0.3,0.3-0.8,0.4-1.2,0.4h-0.5c-0.1,0-0.3,0-0.4-0.1
		L421.8,163.4L421.8,163.4z"/>
	<path class="st1" d="M434.1,160.8c-0.6,0-1.2-0.1-1.8-0.4c-0.5-0.2-1-0.6-1.4-1s-0.7-0.9-0.9-1.5s-0.3-1.2-0.3-1.8s0.1-1.2,0.3-1.8
		c0.2-0.5,0.5-1.1,0.9-1.5s0.9-0.8,1.4-1c0.6-0.3,1.2-0.4,1.8-0.4c0.6,0,1.2,0.1,1.8,0.4c0.5,0.2,1,0.6,1.4,1s0.7,0.9,0.9,1.5
		c0.2,0.6,0.3,1.2,0.3,1.8s-0.1,1.2-0.3,1.8c-0.2,0.5-0.5,1-0.9,1.5C436.4,160.4,435.3,160.9,434.1,160.8L434.1,160.8z M430.8,156.2
		c0,0.5,0.1,1,0.3,1.4c0.2,0.4,0.4,0.8,0.7,1.1s0.6,0.6,1,0.8s0.8,0.3,1.3,0.3c0.4,0,0.9-0.1,1.3-0.3s0.7-0.5,1-0.8
		c1-1.1,1.2-2.6,0.7-4c-0.2-0.4-0.4-0.8-0.7-1.1c-0.3-0.3-0.6-0.6-1-0.8s-0.8-0.3-1.3-0.3c-0.4,0-0.9,0.1-1.3,0.3s-0.7,0.5-1,0.8
		C431.1,154.3,430.8,155.2,430.8,156.2L430.8,156.2z"/>
	<path class="st1" d="M443.3,160.8c-0.8,0-1.7-0.3-2.2-1c-0.5-0.9-0.8-1.9-0.7-2.9v-5.3h1.2v5.1c0,2,0.7,3,2.1,3
		c0.3,0,0.7-0.1,1-0.2c0.3-0.1,0.6-0.3,0.9-0.5s0.5-0.5,0.8-0.8c0.2-0.3,0.4-0.6,0.5-1v-5.6h1.2v7.4c0,0.3,0.1,0.5,0.4,0.5v1
		c-0.1,0-0.2,0-0.3,0H448c-0.3,0-0.5-0.1-0.7-0.3s-0.3-0.5-0.3-0.7v-1c-0.4,0.7-0.9,1.2-1.6,1.6C444.8,160.6,444,160.8,443.3,160.8z
		"/>
	<path class="st1" d="M455.1,152.7c-0.7,0-1.5,0.2-2.1,0.6c-0.6,0.4-1,1-1.2,1.7v5.6h-1.2v-8.9h1.1v2.2c0.3-0.6,0.8-1.2,1.3-1.6
		c0.5-0.4,1.2-0.6,1.8-0.6h0.2v1H455.1z"/>
	<path class="st1" d="M243.5,181.4c-0.7,0-1.4-0.2-2-0.6c-0.6-0.4-1-0.9-1.4-1.4v5.5h-1.2v-12.6h1v1.7c0.4-0.6,0.9-1,1.4-1.4
		c0.6-0.3,1.2-0.5,1.9-0.5c0.6,0,1.2,0.1,1.7,0.4c0.5,0.2,1,0.6,1.3,1c0.4,0.4,0.7,0.9,0.9,1.5s0.3,1.1,0.3,1.7
		c0,0.6-0.1,1.2-0.3,1.8c-0.2,0.5-0.5,1-0.8,1.5c-0.4,0.4-0.8,0.8-1.3,1C244.6,181.3,244.1,181.4,243.5,181.4z M243.2,180.4
		c0.5,0,0.9-0.1,1.3-0.3s0.7-0.5,1-0.8s0.5-0.7,0.6-1.1c0.1-0.4,0.2-0.9,0.2-1.3c0-0.5-0.1-0.9-0.3-1.4c-0.2-0.4-0.4-0.8-0.7-1.1
		s-0.7-0.6-1.1-0.8s-0.9-0.3-1.3-0.3c-0.3,0-0.6,0.1-0.9,0.2c-0.3,0.1-0.6,0.3-0.9,0.5s-0.5,0.4-0.7,0.7c-0.2,0.2-0.3,0.5-0.4,0.9
		v2.8c0.1,0.3,0.3,0.6,0.5,0.9c0.2,0.3,0.5,0.5,0.7,0.7c0.3,0.2,0.6,0.4,0.9,0.5C242.5,180.4,242.9,180.4,243.2,180.4L243.2,180.4z"
		/>
	<path class="st1" d="M251.8,181.4c-0.4,0-0.8-0.1-1.2-0.2c-0.3-0.1-0.7-0.3-0.9-0.6c-0.3-0.2-0.5-0.5-0.6-0.9
		c-0.1-0.3-0.2-0.7-0.2-1.1c0-0.4,0.1-0.8,0.3-1.1s0.5-0.6,0.8-0.9c0.4-0.3,0.8-0.4,1.2-0.6c0.5-0.1,1-0.2,1.5-0.2s0.9,0,1.4,0.1
		c0.4,0.1,0.9,0.2,1.3,0.3v-0.8c0-0.7-0.2-1.4-0.7-1.9s-1.2-0.7-1.9-0.7c-0.5,0-1,0.1-1.4,0.3c-0.5,0.2-1,0.5-1.5,0.8l-0.4-0.8
		c1-0.7,2.2-1.1,3.4-1.2c1,0,1.9,0.3,2.6,1s1,1.6,1,2.6v4c0,0.3,0.1,0.5,0.4,0.5v1c-0.1,0-0.3,0-0.4,0c-0.3,0-0.5-0.1-0.7-0.2
		c-0.2-0.2-0.3-0.4-0.3-0.6v-0.7c-0.4,0.5-0.9,1-1.5,1.2C253.2,181.3,252.5,181.4,251.8,181.4z M252,180.5c0.6,0,1.2-0.1,1.7-0.3
		s0.9-0.5,1.2-0.9c0.1-0.1,0.2-0.2,0.2-0.3s0.1-0.2,0.1-0.3v-1.5c-0.4-0.1-0.8-0.3-1.2-0.3c-0.4-0.1-0.9-0.1-1.3-0.1
		c-0.7,0-1.4,0.1-2,0.5c-0.5,0.3-0.8,0.8-0.8,1.4c0,0.3,0.1,0.5,0.2,0.8c0.1,0.2,0.3,0.5,0.4,0.6c0.2,0.2,0.4,0.3,0.7,0.4
		C251.5,180.5,251.8,180.5,252,180.5L252,180.5z"/>
	<path class="st1" d="M261.9,181.4c-0.7,0-1.4-0.1-2-0.3s-1.2-0.6-1.7-1l0.5-0.8c0.5,0.4,1,0.7,1.5,0.9s1.1,0.3,1.7,0.3
		s1.2-0.1,1.7-0.4c0.4-0.3,0.6-0.7,0.6-1.2c0-0.2,0-0.4-0.2-0.6c-0.1-0.2-0.3-0.3-0.5-0.4c-0.3-0.1-0.6-0.3-0.9-0.3
		c-0.3-0.1-0.7-0.2-1.2-0.3s-0.9-0.2-1.3-0.4c-0.3-0.1-0.6-0.2-0.9-0.4c-0.2-0.1-0.4-0.3-0.5-0.6s-0.2-0.6-0.2-0.9
		c0-0.4,0.1-0.8,0.3-1.2c0.2-0.3,0.4-0.6,0.7-0.9c0.3-0.2,0.7-0.4,1.1-0.5s0.9-0.2,1.3-0.2c0.6,0,1.3,0.1,1.9,0.3
		c0.5,0.2,1,0.5,1.4,0.9l-0.6,0.7c-0.3-0.3-0.8-0.6-1.2-0.8c-0.5-0.2-1-0.3-1.5-0.3c-0.3,0-0.6,0-0.9,0.1s-0.5,0.2-0.7,0.3
		s-0.4,0.3-0.5,0.5s-0.2,0.5-0.2,0.7s0,0.4,0.1,0.6c0.1,0.2,0.2,0.3,0.4,0.4c0.2,0.1,0.5,0.2,0.7,0.3c0.3,0.1,0.6,0.2,1,0.3
		c0.6,0.1,1.1,0.3,1.5,0.4c0.4,0.1,0.8,0.3,1.1,0.5s0.5,0.4,0.7,0.7s0.2,0.7,0.2,1c0,0.8-0.3,1.5-1,2
		C263.6,181.3,262.7,181.5,261.9,181.4z"/>
	<path class="st1" d="M270.2,181.4c-0.7,0-1.4-0.1-2-0.3s-1.2-0.6-1.7-1l0.5-0.8c0.5,0.4,1,0.7,1.5,0.9s1.1,0.3,1.7,0.3
		s1.2-0.1,1.7-0.4c0.4-0.3,0.7-0.7,0.6-1.3c0-0.2-0.1-0.4-0.2-0.6c-0.1-0.2-0.3-0.3-0.5-0.4c-0.3-0.1-0.5-0.3-0.8-0.3
		c-0.3-0.1-0.7-0.2-1.2-0.3s-1-0.3-1.3-0.4c-0.3-0.1-0.6-0.2-0.9-0.4c-0.2-0.1-0.4-0.3-0.5-0.6s-0.2-0.6-0.2-0.9
		c0-0.4,0.1-0.8,0.3-1.2c0.2-0.3,0.4-0.6,0.7-0.9c0.3-0.2,0.7-0.4,1.1-0.5s0.9-0.2,1.3-0.2c0.6,0,1.3,0.1,1.9,0.3
		c0.5,0.2,1,0.5,1.4,0.9L273,174c-0.3-0.3-0.8-0.6-1.2-0.8c-0.5-0.2-1-0.3-1.5-0.3c-0.3,0-0.6,0-0.9,0.1c-0.2,0.1-0.5,0.2-0.7,0.3
		s-0.4,0.3-0.5,0.5s-0.2,0.5-0.2,0.7s0,0.4,0.1,0.6c0.1,0.2,0.2,0.3,0.4,0.4c0.2,0.1,0.4,0.2,0.7,0.3s0.6,0.2,1,0.3
		c0.6,0.1,1.1,0.3,1.5,0.4c0.4,0.1,0.8,0.3,1.1,0.5c0.3,0.2,0.5,0.4,0.7,0.7s0.2,0.7,0.2,1c0,0.8-0.3,1.5-0.9,2
		C272,181.3,271.1,181.5,270.2,181.4z"/>
	<path class="st1" d="M286.7,172.3h1.1l-3.8,9h-1l-1.9-4.6l-1.9,4.5h-1l-3.9-9h1.1l3.3,7.7l1.7-4.1l-1.5-3.6h1l1.2,2.9l1.2-2.9h1
		l-1.5,3.6l1.7,4.1L286.7,172.3z"/>
	<path class="st1" d="M292.9,181.4c-0.6,0-1.2-0.1-1.8-0.4c-0.5-0.2-1-0.6-1.4-1s-0.7-0.9-0.9-1.5c-0.2-0.6-0.3-1.2-0.3-1.8
		s0.1-1.2,0.3-1.8c0.2-0.5,0.5-1.1,0.9-1.5s0.9-0.8,1.4-1c0.6-0.3,1.2-0.4,1.8-0.4s1.2,0.1,1.8,0.4c0.5,0.2,1,0.6,1.4,1
		s0.7,0.9,0.9,1.5s0.3,1.2,0.3,1.8s-0.1,1.2-0.3,1.8c-0.2,0.5-0.5,1-0.9,1.5c-0.4,0.4-0.9,0.8-1.4,1
		C294.1,181.3,293.5,181.5,292.9,181.4z M289.7,176.8c0,0.5,0.1,0.9,0.3,1.4c0.2,0.4,0.4,0.8,0.7,1.1c0.3,0.3,0.6,0.6,1,0.8
		c0.8,0.4,1.7,0.4,2.5,0c0.4-0.2,0.7-0.5,1-0.8s0.5-0.7,0.7-1.1c0.3-0.9,0.3-1.9,0-2.8c-0.2-0.4-0.4-0.8-0.7-1.1s-0.6-0.6-1-0.8
		s-0.8-0.3-1.3-0.3c-0.4,0-0.9,0.1-1.3,0.3s-0.7,0.5-1,0.8C290,175,289.6,175.9,289.7,176.8L289.7,176.8z"/>
	<path class="st1" d="M303.8,173.3c-0.7,0-1.5,0.2-2.1,0.6c-0.6,0.4-1,1-1.2,1.7v5.6h-1.2v-9h1.1v2.1c0.3-0.6,0.8-1.2,1.3-1.6
		c0.5-0.4,1.2-0.6,1.8-0.6h0.2v1.2H303.8z"/>
	<path class="st1" d="M308.6,181.4c-0.6,0-1.2-0.1-1.7-0.4c-0.5-0.2-1-0.6-1.4-1c-0.8-0.9-1.2-2-1.2-3.2c0-0.6,0.1-1.2,0.3-1.8
		c0.2-0.5,0.5-1,0.9-1.5c0.4-0.4,0.8-0.8,1.3-1s1.1-0.4,1.6-0.4c0.7,0,1.4,0.2,2,0.6c0.6,0.4,1,0.9,1.4,1.4v-5.5h1.2v11
		c0,0.3,0.1,0.5,0.4,0.5v1c-0.1,0-0.3,0-0.4,0c-0.3,0-0.5-0.1-0.7-0.3s-0.3-0.4-0.3-0.6v-0.9c-0.3,0.6-0.8,1.1-1.4,1.4
		C309.9,181.2,309.2,181.4,308.6,181.4z M308.8,180.4c0.3,0,0.6-0.1,0.9-0.2c0.3-0.1,0.6-0.3,0.9-0.5s0.5-0.4,0.7-0.7
		s0.3-0.6,0.4-0.9v-2.8c-0.1-0.3-0.3-0.6-0.5-0.9c-0.2-0.3-0.5-0.5-0.8-0.7s-0.6-0.4-0.9-0.5s-0.7-0.2-1-0.2c-0.5,0-0.9,0.1-1.3,0.3
		s-0.7,0.5-1,0.8s-0.5,0.7-0.6,1.2c-0.2,0.4-0.2,0.9-0.2,1.3c0,0.5,0.1,0.9,0.3,1.4c0.2,0.4,0.4,0.8,0.7,1.1c0.3,0.3,0.7,0.6,1,0.8
		C307.9,180.3,308.4,180.4,308.8,180.4L308.8,180.4z"/>
	<path class="st1" d="M318.5,181.4c-0.7,0-1.4-0.1-2-0.3s-1.2-0.6-1.7-1l0.5-0.8c0.5,0.4,1,0.7,1.5,0.9s1.1,0.3,1.7,0.3
		s1.2-0.1,1.7-0.4c0.4-0.3,0.7-0.8,0.6-1.3c0-0.2-0.1-0.4-0.2-0.6c-0.1-0.2-0.3-0.3-0.5-0.4c-0.3-0.1-0.5-0.3-0.8-0.3
		c-0.3-0.1-0.7-0.2-1.2-0.3s-1-0.3-1.3-0.4c-0.3-0.1-0.6-0.2-0.9-0.4c-0.2-0.1-0.4-0.3-0.5-0.6s-0.2-0.6-0.2-0.9
		c0-0.4,0.1-0.8,0.3-1.2c0.2-0.3,0.4-0.6,0.7-0.9c0.3-0.2,0.7-0.4,1.1-0.5s0.9-0.2,1.3-0.2c0.6,0,1.3,0.1,1.9,0.3
		c0.5,0.2,1,0.5,1.4,0.9l-0.6,0.7c-0.3-0.3-0.8-0.6-1.2-0.8c-0.5-0.2-1-0.3-1.5-0.3c-0.3,0-0.6,0-0.9,0.1c-0.2,0.1-0.5,0.2-0.7,0.3
		s-0.4,0.3-0.5,0.5s-0.2,0.5-0.2,0.7s0,0.4,0.1,0.6c0.1,0.2,0.2,0.3,0.4,0.4c0.2,0.1,0.5,0.2,0.7,0.3c0.3,0.1,0.6,0.2,1,0.3
		c0.6,0.1,1.1,0.3,1.5,0.4c0.4,0.1,0.8,0.3,1.1,0.5c0.3,0.2,0.5,0.4,0.7,0.7s0.2,0.7,0.2,1c0,0.8-0.3,1.5-0.9,2
		C320.3,181.3,319.4,181.5,318.5,181.4z"/>
	<path class="st1" d="M324.1,182.7l0.3-1.4H324v-1.6h1.2v1.6l-0.4,1.4H324.1z"/>
	<path class="st1" d="M334.4,181.4c-0.8,0-1.5-0.3-2.1-0.8c-0.3-0.2-0.5-0.5-0.6-0.9c-0.1-0.3-0.2-0.7-0.2-1.1
		c0-0.4,0.1-0.8,0.3-1.1s0.5-0.6,0.8-0.9c0.4-0.3,0.8-0.4,1.2-0.6c0.5-0.1,1-0.2,1.5-0.2s0.9,0,1.4,0.1c0.4,0.1,0.8,0.2,1.3,0.3
		v-0.8c0-0.7-0.2-1.4-0.7-1.9s-1.2-0.7-1.9-0.7c-0.5,0-1,0.1-1.4,0.3c-0.5,0.2-1,0.5-1.5,0.8l-0.4-0.8c1-0.7,2.1-1.1,3.4-1.2
		c1,0,1.9,0.3,2.6,1s1,1.6,1,2.6v4c0,0.3,0.1,0.5,0.4,0.5v1c-0.1,0-0.3,0-0.5,0s-0.5-0.1-0.7-0.2c-0.2-0.2-0.3-0.4-0.3-0.6v-0.7
		c-0.4,0.5-0.9,1-1.6,1.2C335.9,181.3,335.1,181.4,334.4,181.4z M334.7,180.5c0.6,0,1.1-0.1,1.7-0.3c0.5-0.2,0.9-0.5,1.2-0.9
		c0.1-0.1,0.2-0.2,0.2-0.3c0.1-0.1,0.1-0.2,0.1-0.3v-1.5c-0.4-0.1-0.8-0.3-1.2-0.3c-0.4-0.1-0.9-0.1-1.3-0.1c-0.7,0-1.4,0.1-2,0.5
		c-0.5,0.3-0.8,0.8-0.8,1.4c0,0.3,0.1,0.5,0.2,0.8c0.1,0.2,0.3,0.5,0.5,0.6c0.2,0.2,0.4,0.3,0.7,0.4
		C334.1,180.5,334.4,180.5,334.7,180.5z"/>
	<path class="st1" d="M349.1,181.3h-1.2v-5c0.1-0.8-0.1-1.6-0.5-2.3c-0.3-0.5-0.9-0.8-1.5-0.7c-0.3,0-0.7,0.1-1,0.2
		c-0.4,0.1-0.7,0.3-1,0.5s-0.6,0.5-0.8,0.8s-0.4,0.6-0.5,1v5.5h-1.2v-9h1.1v2c0.4-0.7,0.9-1.2,1.6-1.6c0.7-0.4,1.4-0.6,2.2-0.6
		c0.4,0,0.9,0.1,1.3,0.3c0.3,0.2,0.6,0.4,0.8,0.8c0.2,0.4,0.4,0.8,0.5,1.2c0.1,0.5,0.1,1.1,0.1,1.6L349.1,181.3z"/>
	<path class="st1" d="M355.2,181.4c-0.6,0-1.2-0.1-1.7-0.4c-0.5-0.2-1-0.6-1.4-1c-0.8-0.9-1.2-2-1.2-3.2c0-0.6,0.1-1.2,0.3-1.8
		c0.2-0.5,0.5-1,0.9-1.5c0.4-0.4,0.8-0.8,1.3-1s1.1-0.4,1.6-0.4c0.7,0,1.4,0.2,2,0.6c0.6,0.4,1,0.9,1.4,1.4v-5.5h1.2v11
		c0,0.3,0.1,0.5,0.4,0.5v1c-0.1,0-0.3,0-0.4,0c-0.3,0-0.5-0.1-0.7-0.3s-0.3-0.4-0.3-0.6v-0.9C357.8,180.6,356.6,181.3,355.2,181.4
		L355.2,181.4z M355.5,180.4c0.3,0,0.6-0.1,0.9-0.2c0.3-0.1,0.6-0.3,0.9-0.5s0.5-0.4,0.7-0.7s0.3-0.6,0.4-0.9v-2.8
		c-0.1-0.3-0.3-0.6-0.5-0.9c-0.2-0.3-0.4-0.5-0.7-0.7c-0.3-0.2-0.6-0.4-0.9-0.5s-0.6-0.2-1-0.2c-0.5,0-0.9,0.1-1.3,0.3
		s-0.7,0.5-1,0.8s-0.5,0.7-0.6,1.2c-0.1,0.4-0.2,0.9-0.2,1.3c0,0.9,0.4,1.8,1,2.5c0.3,0.3,0.7,0.6,1.1,0.8
		C354.6,180.3,355.1,180.4,355.5,180.4L355.5,180.4z"/>
	<path class="st1" d="M374.1,181.3h-1.2v-5c0.1-0.8-0.1-1.6-0.5-2.3c-0.3-0.5-0.9-0.8-1.5-0.7c-0.3,0-0.7,0.1-1,0.2
		c-0.4,0.1-0.7,0.3-1,0.5s-0.6,0.5-0.8,0.8s-0.4,0.6-0.5,1v5.5h-1.2v-9h1.1v2c0.4-0.7,0.9-1.2,1.6-1.6c0.7-0.4,1.4-0.6,2.2-0.6
		c0.4,0,0.9,0.1,1.3,0.3c0.3,0.2,0.6,0.4,0.8,0.8c0.2,0.4,0.4,0.8,0.4,1.2c0.1,0.5,0.1,1.1,0.1,1.6L374.1,181.3z"/>
	<path class="st1" d="M380.5,181.4c-0.6,0-1.2-0.1-1.8-0.4c-1.7-0.8-2.7-2.5-2.7-4.3c0-1.2,0.4-2.4,1.3-3.2c0.4-0.4,0.9-0.8,1.4-1
		c0.6-0.2,1.2-0.4,1.8-0.4c0.6,0,1.2,0.1,1.8,0.4c0.5,0.2,1,0.6,1.4,1c0.8,0.9,1.2,2,1.2,3.2v0.3c0,0.1,0,0.1,0,0.2h-7.7
		c0,0.5,0.1,0.9,0.3,1.3c0.2,0.4,0.4,0.8,0.7,1.1c0.6,0.6,1.4,0.9,2.3,0.9c0.3,0,0.6,0,0.9-0.1s0.5-0.2,0.8-0.3
		c0.2-0.1,0.5-0.3,0.7-0.5s0.3-0.4,0.4-0.7l1,0.3c-0.1,0.3-0.3,0.6-0.6,0.9c-0.3,0.3-0.5,0.5-0.9,0.7c-0.3,0.2-0.7,0.4-1.1,0.5
		C381.3,181.4,380.9,181.4,380.5,181.4z M383.8,176.3c0-0.5-0.1-0.9-0.3-1.3c-0.2-0.4-0.4-0.7-0.7-1c-0.3-0.3-0.6-0.5-1-0.7
		s-0.8-0.2-1.2-0.2c-0.8,0-1.7,0.3-2.3,0.9c-0.3,0.3-0.5,0.6-0.7,1s-0.3,0.9-0.3,1.3H383.8z"/>
	<path class="st1" d="M389.1,181.3l-3.6-9h1.2l3.1,7.9l3.1-7.9h1.1l-3.6,9H389.1z"/>
	<path class="st1" d="M399.2,181.4c-0.6,0-1.2-0.1-1.8-0.4c-0.5-0.2-1-0.6-1.4-1c-0.8-0.9-1.3-2.1-1.3-3.3c0-0.6,0.1-1.2,0.3-1.8
		c0.2-0.5,0.5-1,0.9-1.5c0.4-0.4,0.9-0.8,1.4-1c1.1-0.5,2.4-0.5,3.6,0c0.5,0.2,1,0.6,1.4,1c0.8,0.9,1.2,2,1.2,3.2v0.3
		c0,0.1,0,0.1,0,0.2h-7.7c0.1,0.9,0.4,1.7,1.1,2.4c0.3,0.3,0.6,0.5,1,0.7s0.8,0.3,1.2,0.3c0.3,0,0.6,0,0.9-0.1s0.5-0.2,0.8-0.3
		c0.2-0.1,0.5-0.3,0.6-0.5c0.2-0.2,0.3-0.4,0.5-0.7l1,0.3c-0.1,0.3-0.3,0.6-0.6,0.9c-0.3,0.3-0.6,0.5-0.9,0.7s-0.7,0.4-1.1,0.5
		C400,181.4,399.6,181.4,399.2,181.4z M402.5,176.3c-0.1-0.9-0.4-1.7-1.1-2.3c-0.3-0.3-0.6-0.5-1-0.7s-0.8-0.2-1.2-0.2
		c-0.8,0-1.7,0.3-2.3,0.9c-0.3,0.3-0.5,0.6-0.7,1s-0.3,0.9-0.3,1.3H402.5z"/>
	<path class="st1" d="M409.8,173.3c-0.7,0-1.5,0.2-2.1,0.6c-0.6,0.4-1,1-1.2,1.7v5.6h-1.2v-9h1.1v2.1c0.3-0.6,0.8-1.2,1.3-1.6
		c0.5-0.4,1.2-0.6,1.8-0.6h0.2v1.2H409.8z"/>
	<path class="st1" d="M419,181.4c-0.6,0-1.2-0.1-1.7-0.4c-0.5-0.2-0.9-0.6-1.3-1s-0.7-0.9-0.9-1.5c-0.2-0.5-0.3-1.1-0.3-1.7
		c0-0.6,0.1-1.2,0.3-1.8c0.2-0.5,0.5-1,0.9-1.5c0.4-0.4,0.8-0.8,1.3-1c0.5-0.3,1.1-0.4,1.7-0.4c0.7,0,1.4,0.2,2,0.6
		c0.6,0.4,1.1,0.9,1.4,1.4v-1.9h1v9c0,0.6-0.1,1.1-0.4,1.6c-0.2,0.5-0.6,0.9-1,1.2s-0.9,0.6-1.4,0.7c-0.5,0.2-1.1,0.3-1.7,0.3
		c-0.9,0-1.7-0.2-2.5-0.6c-0.6-0.4-1.1-0.9-1.5-1.5l0.7-0.6c0.3,0.6,0.8,1,1.4,1.3s1.2,0.4,1.9,0.4c0.4,0,0.8-0.1,1.2-0.2
		c0.4-0.1,0.7-0.3,1-0.5s0.5-0.6,0.7-0.9c0.2-0.4,0.3-0.8,0.3-1.3v-1.8c-0.3,0.6-0.8,1-1.4,1.4C420.3,181.2,419.6,181.4,419,181.4z
		 M419.3,180.4c0.3,0,0.7-0.1,1-0.2c0.3-0.1,0.6-0.3,0.9-0.5s0.5-0.4,0.7-0.7c0.2-0.2,0.3-0.5,0.4-0.8v-2.8
		c-0.1-0.3-0.3-0.6-0.5-0.9c-0.2-0.3-0.5-0.5-0.7-0.7c-0.3-0.2-0.6-0.3-0.9-0.5c-0.3-0.1-0.7-0.2-1-0.2c-0.5,0-0.9,0.1-1.4,0.3
		c-0.4,0.2-0.7,0.5-1,0.8s-0.5,0.7-0.6,1.2c-0.1,0.4-0.2,0.9-0.2,1.3c0,0.5,0.1,0.9,0.3,1.4c0.2,0.4,0.4,0.8,0.7,1.1
		c0.3,0.3,0.7,0.6,1,0.8C418.4,180.3,418.8,180.4,419.3,180.4L419.3,180.4z"/>
	<path class="st1" d="M426,170.4v-1.7h1.2v1.7H426z M426,181.3v-9h1.2v9H426z"/>
	<path class="st1" d="M432.4,181.3l-3.6-9h1.2l3.1,7.9l3.1-7.9h1.1l-3.6,9H432.4z"/>
	<path class="st1" d="M442.5,181.4c-0.6,0-1.2-0.1-1.8-0.4c-0.5-0.2-1-0.6-1.4-1c-0.8-0.9-1.3-2.1-1.3-3.3s0.4-2.4,1.3-3.2
		c1.3-1.3,3.3-1.7,5-1c0.5,0.2,1,0.6,1.4,1c0.8,0.9,1.2,2,1.2,3.2v0.3c0,0.1,0,0.1,0,0.2h-7.7c0.1,0.9,0.4,1.7,1.1,2.4
		c0.3,0.3,0.6,0.5,1,0.7s0.8,0.3,1.2,0.3c0.3,0,0.6,0,0.9-0.1s0.5-0.2,0.8-0.3c0.2-0.1,0.5-0.3,0.6-0.5c0.2-0.2,0.3-0.4,0.5-0.7
		l1,0.3c-0.1,0.3-0.3,0.6-0.6,0.9c-0.3,0.3-0.6,0.5-0.9,0.7s-0.7,0.4-1.1,0.5C443.3,181.4,442.9,181.4,442.5,181.4z M445.7,176.3
		c-0.1-0.9-0.4-1.7-1.1-2.3c-0.3-0.3-0.6-0.5-1-0.7s-0.8-0.2-1.2-0.2c-0.4,0-0.8,0.1-1.2,0.2c-0.4,0.2-0.7,0.4-1,0.7s-0.5,0.6-0.7,1
		s-0.3,0.9-0.3,1.3H445.7z"/>
	<path class="st1" d="M243.2,201.5l-0.3,0.1l-0.5,0.2l-0.6,0.1c-0.2,0-0.5,0.1-0.7,0.1s-0.5,0-0.7-0.1s-0.4-0.2-0.6-0.3
		c-0.2-0.2-0.3-0.3-0.4-0.5s-0.2-0.5-0.1-0.8v-6.4h-1.2v-1h1.2v-3h1.2v3h2.1v1h-2.1v6c0,0.3,0.1,0.5,0.4,0.7
		c0.2,0.2,0.5,0.2,0.7,0.2c0.3,0,0.6-0.1,0.9-0.2c0.2-0.1,0.3-0.1,0.5-0.2L243.2,201.5z"/>
	<path class="st1" d="M248.3,202c-0.6,0-1.2-0.1-1.8-0.4c-0.5-0.2-1-0.6-1.4-1s-0.7-0.9-0.9-1.5c-0.4-1.1-0.4-2.4,0-3.6
		c0.2-0.5,0.5-1.1,0.9-1.5s0.9-0.8,1.4-1c0.6-0.3,1.2-0.4,1.8-0.4s1.2,0.1,1.8,0.4c0.5,0.2,1,0.6,1.4,1s0.7,0.9,0.9,1.5
		c0.4,1.1,0.4,2.4,0,3.6c-0.2,0.5-0.5,1-0.9,1.5c-0.4,0.4-0.9,0.8-1.4,1C249.5,201.9,248.9,202.1,248.3,202z M245,197.4
		c0,0.5,0.1,1,0.3,1.4s0.4,0.8,0.7,1.1s0.6,0.6,1,0.8s0.8,0.3,1.3,0.3c0.4,0,0.9-0.1,1.3-0.3s0.7-0.5,1-0.8c0.9-1.1,1.2-2.6,0.7-3.9
		c-0.2-0.4-0.4-0.8-0.7-1.1s-0.6-0.6-1-0.8s-0.8-0.3-1.3-0.3c-0.4,0-0.9,0.1-1.3,0.3s-0.7,0.5-1,0.8s-0.5,0.7-0.7,1.2
		C245.1,196.5,245,197,245,197.4z"/>
	<path class="st1" d="M261.3,202c-0.4,0-0.8-0.1-1.2-0.2c-0.3-0.1-0.7-0.3-0.9-0.6c-0.3-0.3-0.5-0.6-0.6-0.9
		c-0.2-0.3-0.2-0.7-0.2-1.1c0-0.4,0.1-0.8,0.3-1.1c0.2-0.3,0.5-0.6,0.8-0.9c0.4-0.3,0.8-0.4,1.2-0.6c0.5-0.1,1-0.2,1.5-0.2
		s0.9,0,1.4,0.1c0.4,0.1,0.9,0.2,1.3,0.3V196c0-0.7-0.2-1.4-0.7-1.9s-1.2-0.7-1.9-0.7c-0.5,0-1,0.1-1.4,0.3c-0.5,0.2-1,0.5-1.5,0.8
		l-0.4-0.8c1-0.7,2.2-1.1,3.4-1.2c1-0.1,1.9,0.3,2.6,0.9c0.7,0.7,1,1.6,1,2.6v4c0,0.3,0.1,0.5,0.4,0.5v1c-0.1,0-0.3,0-0.5,0.1
		c-0.3,0-0.5-0.1-0.7-0.2c-0.2-0.2-0.3-0.4-0.3-0.6v-0.7c-0.4,0.5-0.9,1-1.5,1.2C262.7,201.9,262,202,261.3,202z M261.6,201.2
		c0.6,0,1.1-0.1,1.7-0.3c0.5-0.2,0.9-0.5,1.2-0.9c0.1-0.1,0.2-0.2,0.2-0.3s0.1-0.2,0.1-0.3v-1.5c-0.4-0.1-0.8-0.3-1.2-0.3
		c-0.4-0.1-0.9-0.1-1.3-0.1c-0.7,0-1.4,0.1-2,0.5c-0.5,0.3-0.8,0.8-0.8,1.4c0,0.3,0.1,0.5,0.2,0.8c0.1,0.2,0.3,0.5,0.5,0.6
		c0.2,0.2,0.4,0.3,0.7,0.4C261,201.1,261.3,201.2,261.6,201.2L261.6,201.2z"/>
	<path class="st1" d="M275.9,201.9h-1.2v-5c0.1-0.8-0.1-1.6-0.5-2.3c-0.3-0.5-0.9-0.8-1.5-0.7c-0.3,0-0.7,0.1-1,0.2
		c-0.3,0.1-0.7,0.3-1,0.5s-0.6,0.5-0.8,0.8c-0.2,0.3-0.4,0.6-0.5,1v5.5h-1.2v-9h1.1v2c0.4-0.7,0.9-1.2,1.6-1.6
		c0.7-0.4,1.4-0.6,2.2-0.6c0.4,0,0.9,0.1,1.3,0.3c0.3,0.2,0.6,0.4,0.8,0.8c0.2,0.4,0.4,0.8,0.5,1.2c0.1,0.5,0.1,1.1,0.1,1.6
		L275.9,201.9z"/>
	<path class="st1" d="M278.7,204.6h0.3h0.3c0.2,0,0.3,0,0.5-0.1s0.3-0.2,0.4-0.4c0.1-0.3,0.3-0.6,0.4-0.8c0.1-0.4,0.3-0.9,0.6-1.5
		l-4-8.9h1.2l3.3,7.9l3.1-7.9h1.1l-4.6,11.5c-0.1,0.3-0.4,0.6-0.6,0.9c-0.3,0.3-0.8,0.4-1.2,0.4h-0.3c-0.1,0-0.3,0-0.4-0.1
		L278.7,204.6L278.7,204.6L278.7,204.6z"/>
	<path class="st1" d="M291,202c-0.6,0-1.2-0.1-1.8-0.4c-0.5-0.2-1-0.6-1.4-1s-0.7-0.9-0.9-1.5c-0.4-1.1-0.4-2.4,0-3.6
		c0.2-0.5,0.5-1,0.9-1.5c0.4-0.4,0.9-0.8,1.4-1c0.6-0.3,1.2-0.4,1.8-0.4s1.2,0.1,1.8,0.4c0.5,0.2,1,0.6,1.4,1s0.7,0.9,0.9,1.5
		s0.3,1.2,0.3,1.8s-0.1,1.2-0.3,1.8c-0.2,0.5-0.5,1-0.9,1.5c-0.4,0.4-0.9,0.8-1.4,1C292.3,201.9,291.7,202.1,291,202z M287.8,197.4
		c0,0.5,0.1,1,0.3,1.4c0.2,0.4,0.4,0.8,0.7,1.1s0.6,0.6,1,0.8s0.8,0.3,1.3,0.3c0.4,0,0.9-0.1,1.3-0.3s0.7-0.5,1-0.8
		c0.9-1.1,1.2-2.6,0.7-3.9c-0.2-0.4-0.4-0.8-0.7-1.1c-0.3-0.3-0.6-0.6-1-0.8s-0.8-0.3-1.3-0.3c-0.4,0-0.9,0.1-1.3,0.3
		s-0.7,0.5-1,0.8s-0.5,0.7-0.7,1.2C287.9,196.5,287.8,197,287.8,197.4z"/>
	<path class="st1" d="M305,201.9h-1.2v-5c0.1-0.8-0.1-1.6-0.5-2.3c-0.3-0.5-0.9-0.8-1.5-0.7c-0.3,0-0.7,0.1-1,0.2
		c-0.4,0.1-0.7,0.3-1,0.5s-0.6,0.5-0.8,0.8c-0.2,0.3-0.4,0.6-0.5,1v5.5h-1.2v-9h1.1v2c0.4-0.7,0.9-1.2,1.6-1.6
		c0.7-0.4,1.4-0.6,2.2-0.6c0.4,0,0.9,0.1,1.3,0.3c0.3,0.2,0.6,0.4,0.8,0.8c0.2,0.4,0.4,0.8,0.4,1.2c0.1,0.5,0.1,1.1,0.1,1.6
		L305,201.9z"/>
	<path class="st1" d="M311.3,202c-1.2,0-2.4-0.5-3.2-1.4c-0.4-0.4-0.7-0.9-0.9-1.5c-0.2-0.6-0.3-1.2-0.3-1.8c0-1.2,0.4-2.4,1.3-3.2
		c0.4-0.4,0.9-0.8,1.4-1c1.1-0.5,2.4-0.5,3.6,0c0.5,0.2,1,0.6,1.4,1c0.8,0.9,1.2,2,1.2,3.2v0.3c0,0.1,0,0.1,0,0.2h-7.7
		c0,0.5,0.1,0.9,0.3,1.3c0.2,0.4,0.4,0.8,0.7,1.1c0.8,0.8,2,1.1,3.1,0.8c0.6-0.1,1.1-0.4,1.5-0.8c0.2-0.2,0.3-0.4,0.4-0.7l1,0.3
		c-0.1,0.3-0.3,0.6-0.6,0.9c-0.3,0.3-0.6,0.5-0.9,0.7s-0.7,0.4-1.1,0.5C312.2,202,311.7,202,311.3,202z M314.6,196.9
		c0-0.5-0.1-0.9-0.3-1.3c-0.2-0.4-0.4-0.7-0.7-1c-0.3-0.3-0.6-0.5-1-0.7s-0.8-0.2-1.2-0.2c-0.4,0-0.8,0.1-1.2,0.2
		c-0.8,0.3-1.4,0.9-1.7,1.7c-0.2,0.4-0.3,0.9-0.3,1.3H314.6z"/>
	<path class="st1" d="M317.4,201.9v-1.7h1v1.7H317.4z"/>
</g>
<rect x="342.5" y="86.6" class="st2" width="1" height="15.5"/>
<rect x="128.8" y="86.6" class="st2" width="1" height="75.5"/>
<g>
	<linearGradient id="SVGID_2_" gradientUnits="userSpaceOnUse" x1="27.3418" y1="-8.12" x2="62.8973" y2="158.9911">
		<stop  offset="0" style="stop-color:#FA16D0"/>
		<stop  offset="1" style="stop-color:#E63B62"/>
	</linearGradient>
	<path class="st3" d="M41.7,66.3c-1.4,0-2.8-0.2-4.2-0.7c-1.4-0.5-2.5-1.1-3.5-2l1.1-1.6c1,0.8,2.1,1.5,3.1,1.9
		c1.1,0.4,2.2,0.6,3.4,0.6c1.5,0,2.6-0.3,3.5-0.9c0.9-0.6,1.3-1.4,1.3-2.5c0-0.5-0.1-0.9-0.4-1.3c-0.2-0.3-0.6-0.6-1-0.9
		c-0.5-0.3-1-0.5-1.7-0.7c-0.7-0.2-1.5-0.4-2.4-0.6c-1-0.3-2-0.5-2.7-0.8s-1.4-0.5-1.9-0.9c-0.5-0.3-0.9-0.7-1.1-1.2
		c-0.2-0.5-0.4-1.1-0.4-1.8c0-0.9,0.2-1.7,0.5-2.4c0.4-0.7,0.9-1.3,1.5-1.7c0.6-0.5,1.3-0.8,2.2-1c0.8-0.2,1.7-0.4,2.6-0.4
		c1.4,0,2.7,0.2,3.8,0.7c1.1,0.5,2.1,1.1,2.8,1.8l-1.2,1.4c-0.7-0.7-1.5-1.2-2.5-1.6c-1-0.4-2-0.5-3-0.5c-0.6,0-1.2,0.1-1.7,0.2
		c-0.5,0.1-1,0.3-1.4,0.6c-0.4,0.3-0.7,0.6-1,1.1c-0.2,0.4-0.4,0.9-0.4,1.5c0,0.5,0.1,0.9,0.2,1.2c0.2,0.3,0.4,0.6,0.8,0.8
		s0.8,0.4,1.4,0.6c0.6,0.2,1.3,0.4,2.1,0.5c1.2,0.3,2.2,0.6,3.1,0.8c0.9,0.3,1.6,0.6,2.2,1c0.6,0.4,1,0.8,1.3,1.4
		c0.3,0.5,0.5,1.2,0.5,2c0,1.7-0.6,3-1.9,4C45.6,65.8,43.8,66.3,41.7,66.3z"/>
	<linearGradient id="SVGID_3_" gradientUnits="userSpaceOnUse" x1="46.2216" y1="-12.137" x2="81.7771" y2="154.9741">
		<stop  offset="0" style="stop-color:#FA16D0"/>
		<stop  offset="1" style="stop-color:#E63B62"/>
	</linearGradient>
	<path class="st4" d="M58.4,66.3c-2,0-3.5-0.7-4.4-2c-1-1.3-1.5-3.3-1.5-5.9V47.7h2.4V58c0,4.1,1.4,6.2,4.2,6.2
		c0.7,0,1.4-0.1,2.1-0.3c0.7-0.2,1.3-0.6,1.9-1c0.6-0.4,1.1-1,1.5-1.6c0.5-0.6,0.8-1.3,1.1-2.1V47.7h2.4v15.2c0,0.7,0.3,1,0.8,1v2.1
		c-0.3,0-0.5,0.1-0.7,0.1c-0.2,0-0.3,0-0.4,0c-0.6,0-1-0.2-1.4-0.6C66.1,65,66,64.5,66,63.9v-2.1c-0.8,1.4-1.9,2.5-3.2,3.3
		S59.9,66.3,58.4,66.3z"/>
	<linearGradient id="SVGID_4_" gradientUnits="userSpaceOnUse" x1="65.8256" y1="-16.308" x2="101.3812" y2="150.8031">
		<stop  offset="0" style="stop-color:#FA16D0"/>
		<stop  offset="1" style="stop-color:#E63B62"/>
	</linearGradient>
	<path class="st5" d="M82.4,66.3c-1.4,0-2.8-0.4-4-1.1c-1.2-0.7-2.1-1.7-2.8-2.8v3.5h-2.1V40.4h2.4v11.1c0.8-1.2,1.8-2.2,2.9-3
		c1.1-0.8,2.5-1.1,4-1.1c1.3,0,2.4,0.3,3.4,0.8c1,0.5,1.9,1.3,2.6,2.2c0.7,0.9,1.3,1.9,1.6,3c0.4,1.1,0.6,2.3,0.6,3.5
		c0,1.3-0.2,2.5-0.7,3.6c-0.4,1.1-1,2.1-1.8,3c-0.8,0.9-1.7,1.5-2.7,2C84.7,66,83.6,66.3,82.4,66.3z M81.8,64.2c1,0,1.9-0.2,2.7-0.6
		c0.8-0.4,1.5-1,2.1-1.6c0.6-0.7,1.1-1.5,1.4-2.3c0.3-0.9,0.5-1.8,0.5-2.7c0-1-0.2-1.9-0.5-2.8c-0.3-0.9-0.8-1.7-1.3-2.4
		c-0.6-0.7-1.3-1.2-2.1-1.6c-0.8-0.4-1.7-0.6-2.6-0.6c-0.7,0-1.4,0.1-2,0.4c-0.6,0.2-1.2,0.6-1.7,1c-0.5,0.4-1,0.9-1.4,1.5
		c-0.4,0.5-0.8,1.1-1,1.7v5.7c0.1,0.6,0.3,1.2,0.8,1.8c0.4,0.5,0.9,1,1.5,1.4c0.6,0.4,1.2,0.7,1.9,0.9
		C80.6,64.1,81.2,64.2,81.8,64.2z"/>
	<linearGradient id="SVGID_5_" gradientUnits="userSpaceOnUse" x1="81.1628" y1="-19.5713" x2="116.7184" y2="147.5398">
		<stop  offset="0" style="stop-color:#FA16D0"/>
		<stop  offset="1" style="stop-color:#E63B62"/>
	</linearGradient>
	<path class="st6" d="M95.2,40.4h2.4v21.4c0,0.7,0.2,1.2,0.6,1.6c0.4,0.4,0.9,0.6,1.6,0.6c0.3,0,0.6,0,0.9-0.1
		c0.3-0.1,0.7-0.2,1-0.3l0.4,1.9c-0.4,0.2-1,0.3-1.6,0.5c-0.6,0.1-1.2,0.2-1.7,0.2c-1.1,0-2-0.3-2.6-0.9c-0.6-0.6-0.9-1.5-0.9-2.6
		V40.4z"/>
	<linearGradient id="SVGID_6_" gradientUnits="userSpaceOnUse" x1="89.8856" y1="-21.4272" x2="125.4412" y2="145.6839">
		<stop  offset="0" style="stop-color:#FA16D0"/>
		<stop  offset="1" style="stop-color:#E63B62"/>
	</linearGradient>
	<path class="st7" d="M104.6,43.9v-3.5h2.4v3.5H104.6z M104.6,65.9V47.7h2.4v18.2H104.6z"/>
	<linearGradient id="SVGID_7_" gradientUnits="userSpaceOnUse" x1="107.6926" y1="-25.2159" x2="143.2482" y2="141.8952">
		<stop  offset="0" style="stop-color:#FA16D0"/>
		<stop  offset="1" style="stop-color:#E63B62"/>
	</linearGradient>
	<path class="st8" d="M139.3,65.9h-2.4V55.8c0-2.1-0.3-3.7-1-4.7c-0.7-1-1.7-1.5-3-1.5c-0.7,0-1.4,0.1-2,0.4
		c-0.6,0.3-1.2,0.6-1.7,1.1s-1,1-1.4,1.7c-0.4,0.6-0.7,1.3-0.9,2.1v11.1h-2.4V55.8c0-2.2-0.3-3.7-1-4.7c-0.7-1-1.7-1.5-3-1.5
		c-1.4,0-2.6,0.5-3.7,1.4c-1.1,1-1.8,2.2-2.3,3.8v11.2h-2.4V47.7h2.2v4.1c0.7-1.4,1.7-2.5,2.9-3.3c1.2-0.8,2.6-1.2,4-1.2
		c1.5,0,2.8,0.4,3.7,1.3c0.9,0.9,1.5,2,1.7,3.4c1.7-3.1,4-4.7,7-4.7c1,0,1.9,0.2,2.6,0.6c0.7,0.4,1.3,0.9,1.7,1.6
		c0.4,0.7,0.7,1.5,0.9,2.5c0.2,1,0.3,2,0.3,3.2V65.9z"/>
	<linearGradient id="SVGID_8_" gradientUnits="userSpaceOnUse" x1="133.5454" y1="-30.7165" x2="169.1009" y2="136.3946">
		<stop  offset="0" style="stop-color:#FA16D0"/>
		<stop  offset="1" style="stop-color:#E63B62"/>
	</linearGradient>
	<path class="st9" d="M152.2,66.3c-1.3,0-2.5-0.3-3.7-0.8c-1.1-0.5-2.1-1.2-2.9-2.1c-0.8-0.9-1.5-1.9-1.9-3
		c-0.5-1.1-0.7-2.4-0.7-3.7c0-1.3,0.2-2.5,0.7-3.6c0.5-1.1,1.1-2.1,1.9-3c0.8-0.9,1.8-1.5,2.9-2c1.1-0.5,2.3-0.8,3.6-0.8
		c1.3,0,2.5,0.3,3.7,0.8c1.1,0.5,2.1,1.2,2.9,2c0.8,0.9,1.4,1.9,1.9,3c0.4,1.1,0.7,2.3,0.7,3.6c0,0.2,0,0.4,0,0.6c0,0.2,0,0.3,0,0.4
		h-15.6c0.1,1,0.3,1.9,0.7,2.7c0.4,0.8,0.9,1.5,1.5,2.2c0.6,0.6,1.3,1.1,2.1,1.4c0.8,0.3,1.6,0.5,2.5,0.5c0.6,0,1.2-0.1,1.7-0.2
		c0.6-0.2,1.1-0.4,1.6-0.7c0.5-0.3,0.9-0.6,1.3-1c0.4-0.4,0.7-0.9,0.9-1.3l2.1,0.6c-0.3,0.7-0.7,1.3-1.2,1.8c-0.5,0.5-1.1,1-1.8,1.4
		c-0.7,0.4-1.4,0.7-2.2,0.9C154,66.2,153.1,66.3,152.2,66.3z M158.9,55.9c-0.1-1-0.3-1.9-0.7-2.7c-0.4-0.8-0.9-1.5-1.5-2.1
		c-0.6-0.6-1.3-1-2.1-1.4c-0.8-0.3-1.6-0.5-2.5-0.5c-0.9,0-1.7,0.2-2.5,0.5c-0.8,0.3-1.5,0.8-2.1,1.4c-0.6,0.6-1.1,1.3-1.4,2.1
		c-0.4,0.8-0.6,1.7-0.6,2.7H158.9z"/>
	<linearGradient id="SVGID_9_" gradientUnits="userSpaceOnUse" x1="152.8453" y1="-34.8229" x2="188.4008" y2="132.2882">
		<stop  offset="0" style="stop-color:#FA16D0"/>
		<stop  offset="1" style="stop-color:#E63B62"/>
	</linearGradient>
	<path class="st10" d="M163.6,56.8c0-1.3,0.2-2.5,0.7-3.6c0.4-1.1,1.1-2.1,1.9-3c0.8-0.9,1.8-1.5,2.9-2c1.1-0.5,2.4-0.7,3.7-0.7
		c1.7,0,3.2,0.4,4.5,1.2c1.3,0.8,2.3,1.8,2.9,3.2l-2.3,0.7c-0.5-0.9-1.2-1.7-2.2-2.2c-0.9-0.5-1.9-0.8-3.1-0.8
		c-0.9,0-1.8,0.2-2.6,0.6c-0.8,0.4-1.5,0.9-2.1,1.5c-0.6,0.6-1.1,1.4-1.4,2.3c-0.3,0.9-0.5,1.9-0.5,2.9c0,1,0.2,2,0.5,2.9
		c0.3,0.9,0.8,1.7,1.4,2.4c0.6,0.7,1.3,1.2,2.1,1.6c0.8,0.4,1.7,0.6,2.6,0.6c0.6,0,1.2-0.1,1.7-0.2c0.6-0.2,1.1-0.4,1.6-0.7
		c0.5-0.3,0.9-0.6,1.3-1c0.4-0.4,0.6-0.8,0.7-1.2l2.3,0.7c-0.3,0.7-0.6,1.3-1.1,1.8c-0.5,0.5-1.1,1-1.7,1.4s-1.4,0.7-2.2,0.9
		c-0.8,0.2-1.6,0.3-2.5,0.3c-1.3,0-2.6-0.3-3.7-0.8c-1.1-0.5-2.1-1.2-2.9-2.1c-0.8-0.9-1.5-1.9-1.9-3
		C163.9,59.3,163.6,58.1,163.6,56.8z"/>
	<linearGradient id="SVGID_10_" gradientUnits="userSpaceOnUse" x1="168.4624" y1="-38.1457" x2="204.0179" y2="128.9655">
		<stop  offset="0" style="stop-color:#FA16D0"/>
		<stop  offset="1" style="stop-color:#E63B62"/>
	</linearGradient>
	<path class="st11" d="M193.2,49.8c-1.6,0-3,0.5-4.2,1.3c-1.2,0.8-2,2-2.5,3.5v11.3h-2.4V47.7h2.2v4.4c0.7-1.4,1.6-2.5,2.7-3.3
		c1.1-0.8,2.4-1.2,3.7-1.2c0.2,0,0.3,0,0.5,0V49.8z"/>
	<linearGradient id="SVGID_11_" gradientUnits="userSpaceOnUse" x1="182.4232" y1="-41.1161" x2="217.9788" y2="125.9951">
		<stop  offset="0" style="stop-color:#FA16D0"/>
		<stop  offset="1" style="stop-color:#E63B62"/>
	</linearGradient>
	<path class="st12" d="M203.3,66.3c-1.3,0-2.5-0.3-3.6-0.8c-1.1-0.5-2-1.2-2.9-2c-0.8-0.9-1.4-1.9-1.9-3c-0.4-1.1-0.7-2.3-0.7-3.6
		c0-1.3,0.2-2.5,0.7-3.6c0.5-1.1,1.1-2.1,1.9-3c0.8-0.9,1.8-1.6,2.9-2.1s2.3-0.8,3.6-0.8c1.3,0,2.5,0.3,3.6,0.8
		c1.1,0.5,2.1,1.2,2.9,2.1c0.8,0.9,1.4,1.9,1.9,3c0.5,1.1,0.7,2.4,0.7,3.6c0,1.3-0.2,2.5-0.7,3.6c-0.4,1.1-1.1,2.1-1.9,3
		c-0.8,0.9-1.8,1.5-2.9,2C205.8,66,204.6,66.3,203.3,66.3z M196.6,56.9c0,1,0.2,2,0.5,2.9c0.3,0.9,0.8,1.6,1.4,2.3
		c0.6,0.7,1.3,1.2,2.1,1.6c0.8,0.4,1.7,0.6,2.6,0.6c0.9,0,1.8-0.2,2.6-0.6c0.8-0.4,1.5-0.9,2.1-1.6c0.6-0.7,1.1-1.4,1.4-2.3
		c0.4-0.9,0.5-1.8,0.5-2.9c0-1-0.2-2-0.5-2.9c-0.4-0.9-0.8-1.7-1.4-2.3c-0.6-0.7-1.3-1.2-2.1-1.6c-0.8-0.4-1.7-0.6-2.6-0.6
		c-0.9,0-1.8,0.2-2.6,0.6c-0.8,0.4-1.5,0.9-2.1,1.6c-0.6,0.7-1.1,1.5-1.4,2.4C196.8,54.9,196.6,55.9,196.6,56.9z"/>
	<linearGradient id="SVGID_12_" gradientUnits="userSpaceOnUse" x1="202.028" y1="-45.2873" x2="237.5835" y2="121.8238">
		<stop  offset="0" style="stop-color:#FA16D0"/>
		<stop  offset="1" style="stop-color:#E63B62"/>
	</linearGradient>
	<path class="st13" d="M215,56.8c0-1.3,0.2-2.5,0.7-3.6c0.4-1.1,1.1-2.1,1.9-3c0.8-0.9,1.8-1.5,2.9-2c1.1-0.5,2.4-0.7,3.7-0.7
		c1.7,0,3.2,0.4,4.5,1.2c1.3,0.8,2.3,1.8,2.9,3.2l-2.3,0.7c-0.5-0.9-1.2-1.7-2.2-2.2c-0.9-0.5-1.9-0.8-3.1-0.8
		c-0.9,0-1.8,0.2-2.6,0.6c-0.8,0.4-1.5,0.9-2.1,1.5c-0.6,0.6-1.1,1.4-1.4,2.3c-0.3,0.9-0.5,1.9-0.5,2.9c0,1,0.2,2,0.5,2.9
		c0.3,0.9,0.8,1.7,1.4,2.4c0.6,0.7,1.3,1.2,2.1,1.6c0.8,0.4,1.7,0.6,2.6,0.6c0.6,0,1.2-0.1,1.7-0.2c0.6-0.2,1.1-0.4,1.6-0.7
		c0.5-0.3,0.9-0.6,1.3-1c0.4-0.4,0.6-0.8,0.7-1.2l2.3,0.7c-0.3,0.7-0.6,1.3-1.1,1.8c-0.5,0.5-1.1,1-1.7,1.4s-1.4,0.7-2.2,0.9
		c-0.8,0.2-1.6,0.3-2.5,0.3c-1.3,0-2.6-0.3-3.7-0.8c-1.1-0.5-2.1-1.2-2.9-2.1c-0.8-0.9-1.5-1.9-1.9-3C215.3,59.3,215,58.1,215,56.8z
		"/>
	<linearGradient id="SVGID_13_" gradientUnits="userSpaceOnUse" x1="220.5573" y1="-49.2297" x2="256.1128" y2="117.8814">
		<stop  offset="0" style="stop-color:#FA16D0"/>
		<stop  offset="1" style="stop-color:#E63B62"/>
	</linearGradient>
	<path class="st14" d="M243.1,66.3c-1.3,0-2.5-0.3-3.6-0.8c-1.1-0.5-2-1.2-2.9-2c-0.8-0.9-1.4-1.9-1.9-3c-0.4-1.1-0.7-2.3-0.7-3.6
		c0-1.3,0.2-2.5,0.7-3.6c0.5-1.1,1.1-2.1,1.9-3c0.8-0.9,1.8-1.6,2.9-2.1s2.3-0.8,3.6-0.8s2.5,0.3,3.6,0.8s2.1,1.2,2.9,2.1
		c0.8,0.9,1.4,1.9,1.9,3c0.5,1.1,0.7,2.4,0.7,3.6c0,1.3-0.2,2.5-0.7,3.6c-0.4,1.1-1.1,2.1-1.9,3c-0.8,0.9-1.8,1.5-2.9,2
		S244.4,66.3,243.1,66.3z M236.5,56.9c0,1,0.2,2,0.5,2.9c0.3,0.9,0.8,1.6,1.4,2.3c0.6,0.7,1.3,1.2,2.1,1.6c0.8,0.4,1.7,0.6,2.6,0.6
		c0.9,0,1.8-0.2,2.6-0.6c0.8-0.4,1.5-0.9,2.1-1.6c0.6-0.7,1.1-1.4,1.4-2.3c0.3-0.9,0.5-1.8,0.5-2.9c0-1-0.2-2-0.5-2.9
		c-0.4-0.9-0.8-1.7-1.4-2.3s-1.3-1.2-2.1-1.6c-0.8-0.4-1.7-0.6-2.6-0.6c-0.9,0-1.8,0.2-2.6,0.6c-0.8,0.4-1.5,0.9-2.1,1.6
		c-0.6,0.7-1.1,1.5-1.4,2.4C236.7,54.9,236.5,55.9,236.5,56.9z"/>
	<linearGradient id="SVGID_14_" gradientUnits="userSpaceOnUse" x1="241.8447" y1="-53.7589" x2="277.4003" y2="113.3522">
		<stop  offset="0" style="stop-color:#FA16D0"/>
		<stop  offset="1" style="stop-color:#E63B62"/>
	</linearGradient>
	<path class="st15" d="M263.7,66.3c-1.3,0-2.4-0.3-3.5-0.8s-2-1.2-2.8-2.1s-1.4-1.9-1.8-3c-0.4-1.1-0.6-2.3-0.6-3.6
		c0-1.3,0.2-2.5,0.6-3.7c0.4-1.2,1-2.2,1.7-3c0.7-0.9,1.6-1.5,2.6-2c1-0.5,2.1-0.8,3.3-0.8c1.5,0,2.9,0.4,4.1,1.2
		c1.2,0.8,2.1,1.8,2.8,2.9V40.4h2.4v22.5c0,0.7,0.3,1,0.8,1v2.1c-0.3,0.1-0.6,0.1-0.8,0.1c-0.6,0-1-0.2-1.5-0.5
		c-0.4-0.4-0.6-0.8-0.6-1.3v-1.8c-0.7,1.2-1.7,2.1-2.9,2.8C266.3,65.9,265,66.3,263.7,66.3z M264.2,64.2c0.6,0,1.2-0.1,1.9-0.3
		c0.7-0.2,1.3-0.6,1.9-1c0.6-0.4,1.1-0.9,1.5-1.4c0.4-0.5,0.7-1.1,0.8-1.8V54c-0.2-0.6-0.6-1.2-1-1.8c-0.4-0.5-1-1-1.5-1.5
		c-0.6-0.4-1.2-0.7-1.8-1c-0.7-0.2-1.3-0.4-1.9-0.4c-1,0-1.9,0.2-2.7,0.6s-1.5,1-2,1.7c-0.6,0.7-1,1.5-1.3,2.4
		c-0.3,0.9-0.5,1.8-0.5,2.7c0,1,0.2,1.9,0.5,2.8c0.4,0.9,0.8,1.7,1.4,2.3c0.6,0.7,1.3,1.2,2.2,1.6C262.3,64,263.2,64.2,264.2,64.2z"
		/>
	<linearGradient id="SVGID_15_" gradientUnits="userSpaceOnUse" x1="255.7468" y1="-56.7168" x2="291.3024" y2="110.3943">
		<stop  offset="0" style="stop-color:#FA16D0"/>
		<stop  offset="1" style="stop-color:#E63B62"/>
	</linearGradient>
	<path class="st16" d="M277.9,43.9v-3.5h2.4v3.5H277.9z M277.9,65.9V47.7h2.4v18.2H277.9z"/>
	<linearGradient id="SVGID_16_" gradientUnits="userSpaceOnUse" x1="263.4275" y1="-58.351" x2="298.983" y2="108.7601">
		<stop  offset="0" style="stop-color:#FA16D0"/>
		<stop  offset="1" style="stop-color:#E63B62"/>
	</linearGradient>
	<path class="st17" d="M285.7,40.4h2.4v21.4c0,0.7,0.2,1.2,0.6,1.6c0.4,0.4,0.9,0.6,1.6,0.6c0.3,0,0.6,0,0.9-0.1
		c0.3-0.1,0.7-0.2,1-0.3l0.4,1.9c-0.4,0.2-1,0.3-1.6,0.5c-0.6,0.1-1.2,0.2-1.7,0.2c-1.1,0-2-0.3-2.6-0.9s-0.9-1.5-0.9-2.6V40.4z"/>
	<linearGradient id="SVGID_17_" gradientUnits="userSpaceOnUse" x1="277.7438" y1="-61.397" x2="313.2994" y2="105.7141">
		<stop  offset="0" style="stop-color:#FA16D0"/>
		<stop  offset="1" style="stop-color:#E63B62"/>
	</linearGradient>
	<path class="st18" d="M303,66.3c-1.3,0-2.5-0.3-3.7-0.8c-1.1-0.5-2.1-1.2-2.9-2.1s-1.5-1.9-1.9-3c-0.5-1.1-0.7-2.4-0.7-3.7
		c0-1.3,0.2-2.5,0.7-3.6c0.5-1.1,1.1-2.1,1.9-3c0.8-0.9,1.8-1.5,2.9-2c1.1-0.5,2.3-0.8,3.6-0.8c1.3,0,2.5,0.3,3.7,0.8
		c1.1,0.5,2.1,1.2,2.9,2s1.4,1.9,1.9,3c0.4,1.1,0.7,2.3,0.7,3.6c0,0.2,0,0.4,0,0.6c0,0.2,0,0.3,0,0.4h-15.6c0.1,1,0.3,1.9,0.7,2.7
		c0.4,0.8,0.9,1.5,1.5,2.2c0.6,0.6,1.3,1.1,2.1,1.4c0.8,0.3,1.6,0.5,2.5,0.5c0.6,0,1.2-0.1,1.8-0.2c0.6-0.2,1.1-0.4,1.6-0.7
		c0.5-0.3,0.9-0.6,1.3-1c0.4-0.4,0.7-0.9,0.9-1.3l2.1,0.6c-0.3,0.7-0.7,1.3-1.2,1.8c-0.5,0.5-1.1,1-1.8,1.4s-1.4,0.7-2.2,0.9
		C304.7,66.2,303.8,66.3,303,66.3z M309.7,55.9c-0.1-1-0.3-1.9-0.7-2.7c-0.4-0.8-0.9-1.5-1.5-2.1c-0.6-0.6-1.3-1-2.1-1.4
		c-0.8-0.3-1.6-0.5-2.5-0.5c-0.9,0-1.7,0.2-2.5,0.5c-0.8,0.3-1.5,0.8-2.1,1.4c-0.6,0.6-1.1,1.3-1.4,2.1c-0.4,0.8-0.6,1.7-0.6,2.7
		H309.7z"/>
</g>
<g>
	<path class="st1" d="M349.2,63.8v2.2h-11.9v-2.2h5v-15c-0.2,0.3-0.5,0.6-1,0.9c-0.5,0.3-1,0.6-1.5,0.9c-0.5,0.3-1.1,0.5-1.7,0.7
		c-0.6,0.2-1.1,0.3-1.5,0.3v-2.3c0.5,0,1.1-0.2,1.8-0.5c0.6-0.3,1.2-0.7,1.8-1c0.6-0.4,1.1-0.8,1.5-1.1c0.4-0.4,0.6-0.6,0.7-0.7h2.4
		v17.8H349.2z"/>
	<path class="st1" d="M359.7,55c1.1,0,2.2,0.2,3.2,0.6s1.8,0.9,2.6,1.6c0.7,0.7,1.3,1.5,1.7,2.5c0.4,1,0.6,2,0.6,3.2
		c0,1.2-0.2,2.4-0.7,3.4c-0.5,1-1.1,1.9-1.9,2.6c-0.8,0.7-1.7,1.3-2.7,1.7c-1,0.4-2.2,0.6-3.4,0.6c-0.9,0-1.7-0.1-2.5-0.3
		s-1.5-0.5-2.2-1s-1.3-0.9-1.8-1.5c-0.5-0.6-1-1.2-1.3-2l1.6-1.2c0.7,1.1,1.5,2.1,2.7,2.8c1.1,0.7,2.4,1,3.7,1
		c0.9,0,1.7-0.1,2.4-0.4c0.7-0.3,1.4-0.7,2-1.2c0.6-0.5,1-1.2,1.3-1.9c0.3-0.7,0.5-1.6,0.5-2.4c0-0.9-0.2-1.7-0.5-2.4
		c-0.3-0.7-0.7-1.3-1.3-1.8c-0.5-0.5-1.2-0.9-1.9-1.2c-0.7-0.3-1.5-0.4-2.3-0.4c-1.1,0-2.1,0.2-3.1,0.7c-1,0.5-1.8,1.2-2.4,2.1h-2.2
		c0-0.1,0.1-0.5,0.2-0.9s0.2-1.1,0.4-1.8c0.1-0.7,0.3-1.4,0.5-2.3c0.2-0.8,0.3-1.7,0.5-2.5c0.4-2,0.8-4.1,1.3-6.5h12v2.2h-10.2
		l-1.7,8.9c0.6-0.7,1.3-1.2,2.2-1.5C357.7,55.2,358.6,55,359.7,55z"/>
	<path class="st1" d="M379.9,41.1h2.1l10.3,24.8h-2.6l-3.2-7.8h-11.2l-3.2,7.8h-2.6L379.9,41.1z M385.9,56.2l-5-12.3l-5.1,12.3
		H385.9z"/>
	<path class="st1" d="M393.8,64l16.9-20.8h-16.6v-2.2h19.5V43l-16.7,20.8h16.7v2.2h-19.7V64z"/>
	<path class="st1" d="M417.9,58V40.8h2.4V58H417.9z M417.9,65.9V62h2.4v3.9H417.9z"/>
	<path class="st1" d="M441.4,45.7c-0.7-0.7-1.6-1.4-2.7-1.9c-1.1-0.5-2.4-0.8-3.8-0.8v9.3c0,0,0.1,0,0.1,0c0,0,0.1,0,0.1,0
		c1.3,0.3,2.5,0.6,3.6,0.9c1.1,0.4,2,0.8,2.7,1.3s1.3,1.2,1.7,1.9c0.4,0.7,0.6,1.7,0.6,2.8c0,1.1-0.2,2.1-0.6,2.9
		c-0.4,0.8-1,1.5-1.8,2.1c-0.8,0.5-1.7,1-2.7,1.2c-1.1,0.3-2.2,0.4-3.5,0.5v3.4h-1.3v-3.4c-3.4-0.2-6.4-1.4-9-3.6l1.2-2
		c0.8,0.9,1.9,1.6,3.3,2.3c1.4,0.6,2.9,1,4.6,1.1v-9.3l-0.2-0.1c-1.3-0.3-2.5-0.6-3.4-0.9s-1.8-0.7-2.5-1.2
		c-0.7-0.5-1.2-1.1-1.5-1.8c-0.3-0.7-0.5-1.5-0.5-2.5c0-1.1,0.2-2.1,0.6-2.9c0.4-0.9,0.9-1.6,1.6-2.2c0.7-0.6,1.5-1.1,2.5-1.4
		c1-0.3,2.1-0.5,3.3-0.6v-3.5h1.3v3.5c1.5,0,2.9,0.3,4.1,0.8c1.2,0.5,2.3,1.2,3.3,2L441.4,45.7z M428.3,47.7c0,0.7,0.1,1.2,0.3,1.7
		c0.2,0.5,0.6,0.9,1,1.2c0.5,0.3,1,0.6,1.8,0.9c0.7,0.2,1.6,0.5,2.5,0.7v-9.1c-2,0.1-3.4,0.5-4.3,1.4
		C428.7,45.3,428.3,46.4,428.3,47.7z M441.2,59.7c0-0.7-0.1-1.3-0.4-1.8c-0.3-0.5-0.7-0.9-1.2-1.3s-1.2-0.7-2-1
		c-0.8-0.3-1.7-0.5-2.7-0.8V64c2,0,3.5-0.4,4.6-1.1C440.7,62.2,441.2,61.1,441.2,59.7z"/>
</g>
</svg>
