<?xml version="1.0" encoding="utf-8"?>
<!-- Generator: Adobe Illustrator 23.0.1, SVG Export Plug-In . SVG Version: 6.00 Build 0)  -->
<svg version="1.1" id="Layer_1" xmlns="http://www.w3.org/2000/svg" xmlns:xlink="http://www.w3.org/1999/xlink" x="0px" y="0px"
	 viewBox="0 0 486 215" style="enable-background:new 0 0 486 215;" xml:space="preserve">
<style type="text/css">
	.st0{opacity:0.14;fill:#DE1A25;}
	.st1{fill:#DE1A25;}
	.st2{fill:none;stroke:#DE1A25;stroke-miterlimit:10;}
</style>
<rect x="10" y="9" class="st0" width="288" height="45"/>
<title>example</title>
<path class="st1" d="M32.3,47.3H29V33c0-2.9-0.5-5.1-1.5-6.5s-2.7-2.3-4.4-2.2c-1,0-1.9,0.2-2.8,0.6s-1.8,0.9-2.6,1.5
	c-0.8,0.7-1.5,1.4-2.1,2.3s-1.1,1.9-1.4,2.9v15.6h-3.3V11.5h3.3v16c1-1.9,2.4-3.4,4.2-4.5c1.7-1.1,3.8-1.7,5.8-1.7
	c1.3,0,2.6,0.2,3.7,0.8c1,0.5,1.9,1.3,2.5,2.3c0.7,1.1,1.2,2.2,1.4,3.5c0.3,1.5,0.5,3,0.4,4.5L32.3,47.3z"/>
<path class="st1" d="M45.8,47.8c-1.1,0-2.3-0.2-3.3-0.6c-1-0.4-1.9-1-2.7-1.7c-1.6-1.5-2.4-3.5-2.4-5.6c0-1.1,0.3-2.1,0.8-3.1
	s1.3-1.8,2.2-2.5c1-0.7,2.2-1.3,3.4-1.6c1.4-0.4,2.9-0.6,4.3-0.6c1.3,0,2.7,0.1,4,0.3c1.2,0.2,2.4,0.5,3.6,1v-2.3
	c0.1-2-0.6-3.9-1.9-5.4c-1.4-1.4-3.3-2.1-5.3-2c-1.4,0-2.7,0.3-4,0.8c-1.5,0.6-2.9,1.3-4.2,2.3L39,24.7c2.8-2.1,6.1-3.2,9.6-3.3
	c2.8-0.2,5.5,0.8,7.5,2.7c1.9,2,2.9,4.7,2.8,7.5V43c0,0.9,0.4,1.4,1.2,1.4v2.9c-0.4,0.1-0.8,0.1-1.3,0.2c-0.7,0-1.4-0.2-2-0.6
	c-0.5-0.5-0.8-1.1-0.8-1.8V43c-1.2,1.5-2.7,2.7-4.4,3.5C49.7,47.4,47.8,47.8,45.8,47.8z M46.6,45.3c1.6,0,3.3-0.3,4.8-1
	c1.3-0.5,2.5-1.4,3.3-2.6c0.3-0.3,0.5-0.6,0.7-1c0.1-0.3,0.2-0.7,0.2-1v-4.1c-1.1-0.4-2.3-0.8-3.5-1s-2.4-0.3-3.7-0.3
	c-2-0.1-4,0.4-5.7,1.5c-1.4,0.8-2.2,2.3-2.2,3.9c0,0.8,0.2,1.5,0.5,2.2s0.7,1.3,1.3,1.8s1.2,0.9,1.9,1.2
	C45,45.1,45.8,45.2,46.6,45.3z"/>
<path class="st1" d="M79.1,47.8c-2,0-4-0.5-5.7-1.6c-1.6-1.1-3-2.5-4-4.1v15.7h-3.3v-36h3v5c1-1.6,2.4-2.9,4.1-3.9
	c1.6-1,3.5-1.5,5.4-1.5c1.7,0,3.3,0.4,4.8,1.1s2.8,1.7,3.8,2.9c1.1,1.2,2,2.7,2.5,4.2c0.6,1.6,0.9,3.3,0.9,4.9
	c0,1.7-0.3,3.5-0.8,5.1c-0.5,1.5-1.3,3-2.4,4.2c-1,1.2-2.3,2.2-3.7,2.9C82.3,47.4,80.7,47.8,79.1,47.8z M78.2,44.9
	c1.3,0,2.6-0.3,3.8-0.9c1.1-0.6,2.1-1.4,2.9-2.3c0.8-1,1.4-2.1,1.8-3.3s0.6-2.5,0.6-3.8s-0.2-2.7-0.7-3.9c-0.5-1.2-1.1-2.3-2-3.3
	c-0.8-0.9-1.9-1.7-3-2.3c-1.2-0.6-2.5-0.8-3.8-0.8c-0.9,0-1.8,0.2-2.7,0.5c-0.9,0.3-1.8,0.8-2.6,1.4c-0.8,0.6-1.4,1.2-2,2
	c-0.6,0.7-0.9,1.5-1.1,2.4v7.8c0.4,0.9,0.8,1.8,1.4,2.5c0.6,0.8,1.2,1.4,2,2s1.6,1,2.5,1.3C76.3,44.7,77.2,44.9,78.2,44.9z"/>
<path class="st1" d="M109.3,47.8c-2,0-4-0.5-5.7-1.6c-1.6-1.1-3-2.5-4-4.1v15.7h-3.3v-36h3v5c1-1.6,2.4-2.9,4.1-3.9
	c1.6-1,3.5-1.5,5.4-1.5c1.7,0,3.3,0.4,4.8,1.1s2.8,1.7,3.8,2.9c1.1,1.3,2,2.7,2.5,4.3c0.6,1.6,0.9,3.3,0.9,4.9
	c0,1.7-0.3,3.5-0.8,5.1c-0.5,1.5-1.3,3-2.4,4.2c-1,1.2-2.3,2.2-3.7,2.9C112.5,47.4,110.9,47.8,109.3,47.8z M108.4,44.9
	c1.3,0,2.6-0.3,3.8-0.9c1.1-0.6,2.1-1.4,2.8-2.3c0.8-1,1.4-2.1,1.8-3.3s0.6-2.5,0.6-3.8s-0.2-2.7-0.7-3.9c-0.5-1.2-1.1-2.3-2-3.3
	c-0.8-0.9-1.9-1.7-3-2.3c-1.2-0.6-2.5-0.8-3.8-0.8c-0.9,0-1.8,0.2-2.7,0.5c-0.9,0.3-1.8,0.8-2.6,1.4c-0.8,0.6-1.5,1.2-2.1,2
	c-0.5,0.7-0.9,1.5-1.1,2.4v7.8c0.4,0.9,0.9,1.8,1.5,2.6s1.3,1.4,2.1,2c0.8,0.6,1.6,1,2.5,1.3C106.5,44.7,107.5,44.8,108.4,44.9z"/>
<path class="st1" d="M127.1,55.1c0.3,0,0.5,0.1,0.8,0.1h0.7c0.5,0,1,0,1.4-0.2c0.4-0.3,0.8-0.6,1-1.1c0.4-0.8,0.8-1.6,1.1-2.4
	c0.4-1,1-2.5,1.7-4.2l-11.1-25.5h3.4l9.4,22.5l8.8-22.5h3.2l-13.2,32.9c-0.4,1-1,1.8-1.8,2.5c-1,0.7-2.2,1.1-3.4,1h-0.9
	c-0.3,0-0.6-0.1-1.1-0.1L127.1,55.1z"/>
<path class="st1" d="M170.4,47.3L161,34.2l-5.5,5.1v8h-3.3V11.5h3.3v24.3l14.4-14h3.8l-10.4,10.4l10.8,15L170.4,47.3z"/>
<path class="st1" d="M178.2,16.4v-4.9h3.3v4.9H178.2z M178.2,47.3V21.8h3.3v25.5H178.2z"/>
<path class="st1" d="M201.1,46.1c-0.2,0.1-0.5,0.2-0.9,0.4s-0.8,0.4-1.3,0.5c-0.5,0.2-1.1,0.3-1.7,0.4c-0.7,0.1-1.3,0.2-2,0.2
	s-1.4-0.1-2.1-0.3c-0.6-0.2-1.2-0.5-1.7-0.9s-0.9-1-1.2-1.5c-0.3-0.7-0.5-1.4-0.4-2.2V24.4h-3.5v-2.6h3.5v-8.6h3.3v8.6h5.9v2.6h-5.9
	v17.4c0,0.8,0.4,1.6,1,2.1c0.6,0.4,1.3,0.7,2.1,0.7c0.9,0,1.7-0.1,2.5-0.5c0.5-0.2,0.9-0.4,1.4-0.7L201.1,46.1z"/>
<path class="st1" d="M217.5,46.1c-0.2,0.1-0.5,0.2-0.9,0.4s-0.9,0.4-1.3,0.5c-0.5,0.2-1.1,0.3-1.7,0.4c-0.7,0.1-1.3,0.2-2,0.2
	s-1.4-0.1-2.1-0.3c-0.6-0.2-1.2-0.5-1.7-0.9s-0.9-1-1.2-1.5c-0.3-0.7-0.5-1.4-0.4-2.2V24.4h-3.5v-2.6h3.5v-8.6h3.3v8.6h5.9v2.6h-5.9
	v17.4c0,0.8,0.4,1.6,1,2.1c0.6,0.4,1.3,0.7,2.1,0.7c0.9,0,1.7-0.1,2.5-0.5c0.5-0.2,0.9-0.4,1.4-0.7L217.5,46.1z"/>
<path class="st1" d="M232.1,47.8c-1.8,0-3.5-0.3-5.1-1c-1.5-0.7-2.9-1.7-4.1-2.9c-1.1-1.2-2.1-2.7-2.7-4.2c-0.7-1.6-1-3.4-1-5.1
	c0-1.7,0.3-3.5,1-5.1c0.6-1.5,1.5-3,2.6-4.2c1.1-1.2,2.5-2.2,4-2.8c3.3-1.4,7-1.4,10.2,0c1.5,0.7,2.9,1.6,4,2.9
	c2.3,2.5,3.6,5.8,3.5,9.2v0.8c0,0.2,0,0.4,0,0.5h-21.9c0.1,1.3,0.4,2.6,0.9,3.8c0.5,1.1,1.2,2.1,2.1,3c0.8,0.8,1.8,1.5,2.9,2
	c1.1,0.5,2.3,0.7,3.5,0.7c0.8,0,1.7-0.1,2.4-0.3c0.8-0.2,1.5-0.5,2.3-0.9c0.7-0.4,1.3-0.9,1.9-1.4c0.5-0.5,1-1.2,1.3-1.9l2.9,0.8
	c-0.4,0.9-1,1.8-1.7,2.5c-0.7,0.8-1.6,1.5-2.5,2c-1,0.6-2,1-3.1,1.3C234.5,47.6,233.3,47.8,232.1,47.8z M241.5,33.2
	c-0.1-1.3-0.4-2.6-0.9-3.8c-0.5-1.1-1.2-2.1-2.1-2.9c-1.7-1.7-4-2.6-6.4-2.6c-1.2,0-2.4,0.2-3.5,0.7c-1.1,0.4-2.1,1.1-2.9,1.9
	c-0.8,0.8-1.5,1.8-2,2.9c-0.5,1.2-0.8,2.4-0.9,3.7L241.5,33.2L241.5,33.2z"/>
<path class="st1" d="M271.3,47.3H268V33c0-3-0.4-5.2-1.4-6.6c-0.9-1.4-2.5-2.2-4.1-2.1c-1,0-2,0.2-2.9,0.5c-1,0.4-1.9,0.9-2.7,1.5
	c-0.9,0.7-1.6,1.5-2.2,2.3c-0.6,0.9-1.1,1.9-1.4,2.9v15.6H250V21.8h3v5.8c1.1-1.9,2.6-3.4,4.5-4.5s4.1-1.7,6.3-1.7
	c1.2,0,2.5,0.2,3.6,0.8c1,0.5,1.8,1.3,2.4,2.2c0.6,1.1,1.1,2.3,1.3,3.5c0.3,1.5,0.4,3,0.4,4.6L271.3,47.3z"/>
<path class="st1" d="M286.9,47.8c-2,0-4-0.3-5.8-1c-1.8-0.6-3.5-1.6-4.9-2.8l1.5-2.3c1.3,1.1,2.8,2,4.4,2.7c1.5,0.6,3.1,0.9,4.8,0.9
	c1.7,0.1,3.5-0.3,5-1.3c1.2-0.8,1.9-2.1,1.8-3.6c0-0.6-0.1-1.3-0.5-1.8s-0.9-1-1.4-1.3c-0.8-0.4-1.6-0.8-2.4-1
	c-1-0.3-2.1-0.6-3.4-0.9c-1.5-0.4-2.7-0.7-3.8-1.1c-0.9-0.3-1.8-0.7-2.7-1.2c-0.7-0.4-1.2-1-1.6-1.7c-0.4-0.8-0.5-1.7-0.5-2.5
	c0-1.2,0.2-2.3,0.8-3.4c0.5-1,1.2-1.8,2.1-2.4c0.9-0.7,1.9-1.1,3-1.5c1.2-0.3,2.5-0.5,3.7-0.5c1.8,0,3.6,0.3,5.3,1
	c1.5,0.5,2.8,1.4,3.9,2.5l-1.6,2c-1-1-2.2-1.7-3.5-2.2c-1.4-0.5-2.8-0.7-4.2-0.7c-0.8,0-1.6,0.1-2.5,0.3c-0.7,0.2-1.4,0.5-2,0.9
	c-0.5,0.4-1,0.9-1.3,1.4c-0.3,0.7-0.5,1.4-0.5,2.1c0,0.6,0.1,1.1,0.3,1.7c0.3,0.5,0.7,0.8,1.1,1.1c0.6,0.4,1.3,0.6,2,0.8
	c0.8,0.2,1.8,0.5,2.9,0.8c1.6,0.4,3.1,0.8,4.3,1.2c1.1,0.3,2.1,0.8,3.1,1.4c0.8,0.5,1.4,1.1,1.9,1.9c0.4,0.8,0.7,1.8,0.6,2.7
	c0.1,2.2-0.9,4.3-2.7,5.6C292,47.2,289.5,47.9,286.9,47.8z"/>
<path class="st1" d="M318.5,44.3v3h-16.6v-3h7v-21c-0.4,0.5-0.8,0.9-1.4,1.3c-1.4,1-2.9,1.7-4.5,2.3c-0.7,0.2-1.4,0.4-2.2,0.4V24
	c0.9,0,1.7-0.2,2.5-0.6c0.9-0.4,1.7-0.9,2.5-1.5c0.7-0.5,1.4-1,2-1.6c0.4-0.3,0.7-0.6,0.9-1h3.4v25H318.5z"/>
<path class="st1" d="M339.4,44.3v3h-16.6v-3h7v-21c-0.4,0.5-0.8,0.9-1.3,1.3c-1.4,1-2.9,1.7-4.4,2.3c-0.7,0.2-1.4,0.4-2.1,0.4V24
	c0.9,0,1.7-0.2,2.5-0.6c0.9-0.4,1.7-0.9,2.5-1.5c0.7-0.5,1.4-1,2-1.6c0.4-0.3,0.7-0.6,0.9-1h3.4v25H339.4z"/>
<path class="st1" d="M355.7,12.5h2.9L373,47.3h-3.6l-4.5-10.9h-15.6l-4.5,10.9h-3.7L355.7,12.5z M364.1,33.7l-7-17.2L350,33.7H364.1
	z"/>
<path class="st1" d="M388.8,12.5h2.9l14.5,34.8h-3.6L398,36.4h-15.6l-4.5,10.9h-3.7L388.8,12.5z M397.2,33.7l-7-17.2l-7.1,17.2
	H397.2z"/>
<path class="st1" d="M411.3,36.1v-24h3.3v24H411.3z M411.3,47.3v-5.5h3.3v5.5H411.3z"/>
<path class="st1" d="M423.6,36.1v-24h3.4v24H423.6z M423.6,47.3v-5.5h3.4v5.5H423.6z"/>
<path class="st1" d="M435,59H298V5h137V59z M299,58h135V6H299V58z"/>
<path class="st1" d="M94.5,131.7h-4.4v11.1h-1.2v-11.1h-4.3v-1.1h9.9V131.7z"/>
<path class="st1" d="M103.6,142.9h-1.2v-5c0.1-0.8-0.1-1.6-0.5-2.3c-0.3-0.5-0.9-0.8-1.5-0.8c-0.3,0-0.7,0.1-1,0.2
	c-0.3,0.1-0.6,0.3-0.9,0.5s-0.5,0.5-0.7,0.8s-0.4,0.6-0.5,1v5.5h-1.2v-12.5h1.2v5.6c0.3-0.7,0.8-1.2,1.5-1.6c0.6-0.4,1.3-0.6,2-0.6
	c0.4,0,0.9,0.1,1.3,0.3s0.7,0.5,0.9,0.8c0.2,0.4,0.4,0.8,0.5,1.2c0.1,0.5,0.2,1,0.2,1.6L103.6,142.9z"/>
<path class="st1" d="M109.9,143c-0.6,0-1.2-0.1-1.8-0.4c-0.5-0.2-1-0.6-1.4-1s-0.7-0.9-0.9-1.5c-0.2-0.6-0.3-1.2-0.3-1.8
	s0.1-1.2,0.3-1.8c0.4-1.1,1.3-2,2.3-2.5c0.6-0.3,1.2-0.4,1.8-0.4c0.6,0,1.2,0.1,1.8,0.4c0.5,0.2,1,0.6,1.4,1s0.7,0.9,0.9,1.5
	c0.2,0.6,0.3,1.2,0.3,1.8v0.3c0,0.1,0,0.1,0,0.2h-7.7c0,0.5,0.1,0.9,0.3,1.3c0.2,0.4,0.4,0.8,0.7,1.1c0.6,0.6,1.4,0.9,2.3,0.9
	c0.3,0,0.6,0,0.8-0.1c0.3-0.1,0.5-0.2,0.8-0.3c0.2-0.1,0.5-0.3,0.7-0.5s0.3-0.4,0.4-0.7l1,0.3c-0.1,0.3-0.3,0.6-0.6,0.9
	c-0.3,0.3-0.5,0.5-0.9,0.7c-0.3,0.2-0.7,0.4-1.1,0.5C110.8,143,110.4,143,109.9,143z M113.2,137.9c0-0.5-0.1-0.9-0.3-1.3
	c-0.2-0.4-0.4-0.7-0.7-1c-0.3-0.3-0.6-0.5-1-0.7s-0.8-0.2-1.2-0.2c-0.8,0-1.7,0.3-2.3,0.9c-0.3,0.3-0.5,0.6-0.7,1s-0.3,0.9-0.3,1.3
	H113.2z"/>
<path class="st1" d="M125.1,143c-0.7,0-1.4-0.2-2-0.6c-0.6-0.4-1-0.9-1.4-1.4v5.5h-1.2v-12.6h1v1.7c0.4-0.6,0.8-1,1.4-1.4
	c0.6-0.3,1.2-0.5,1.9-0.5c0.6,0,1.2,0.1,1.7,0.4c0.5,0.2,1,0.6,1.3,1c0.8,0.9,1.2,2,1.2,3.2c0,0.6-0.1,1.2-0.3,1.8
	c-0.2,0.5-0.5,1-0.8,1.5c-0.4,0.4-0.8,0.8-1.3,1C126.2,142.8,125.7,143,125.1,143z M124.8,142c0.5,0,0.9-0.1,1.3-0.3s0.7-0.5,1-0.8
	s0.5-0.7,0.6-1.1c0.2-0.4,0.2-0.9,0.2-1.3c0-0.5-0.1-0.9-0.3-1.4c-0.2-0.4-0.4-0.8-0.7-1.2c-0.3-0.3-0.7-0.6-1.1-0.8
	s-0.9-0.3-1.3-0.3c-0.3,0-0.6,0.1-0.9,0.2c-0.3,0.1-0.6,0.3-0.9,0.5s-0.5,0.4-0.7,0.7c-0.2,0.2-0.3,0.5-0.4,0.9v2.7
	c0.1,0.3,0.3,0.6,0.5,0.9c0.2,0.3,0.4,0.5,0.7,0.7c0.3,0.2,0.6,0.4,0.9,0.5C124.1,141.9,124.4,142,124.8,142z"/>
<path class="st1" d="M133.4,143c-0.4,0-0.8-0.1-1.2-0.2c-0.3-0.1-0.7-0.3-0.9-0.6c-0.3-0.3-0.5-0.6-0.6-0.9
	c-0.2-0.3-0.2-0.7-0.2-1.1c0-0.4,0.1-0.7,0.3-1.1c0.2-0.3,0.5-0.6,0.8-0.9c0.4-0.2,0.8-0.4,1.2-0.6c0.5-0.1,1-0.2,1.5-0.2
	s0.9,0,1.4,0.1c0.4,0.1,0.9,0.2,1.3,0.3V137c0-0.7-0.2-1.4-0.7-1.9s-1.2-0.7-1.9-0.7c-0.5,0-1,0.1-1.4,0.3c-0.5,0.2-1,0.5-1.5,0.8
	l-0.4-0.8c1-0.7,2.2-1.1,3.4-1.2c1,0,1.9,0.3,2.6,1c0.7,0.7,1,1.6,1,2.6v4c0,0.3,0.1,0.5,0.4,0.5v1c-0.1,0-0.3,0-0.4,0
	c-0.3,0-0.5-0.1-0.7-0.2c-0.2-0.2-0.3-0.4-0.3-0.6v-0.7c-0.4,0.5-0.9,1-1.6,1.2C134.8,142.8,134.1,143,133.4,143z M133.7,142.1
	c0.6,0,1.2-0.1,1.7-0.3s0.9-0.5,1.2-0.9c0.1-0.1,0.2-0.2,0.2-0.3s0.1-0.2,0.1-0.3v-1.5c-0.4-0.1-0.8-0.3-1.2-0.3
	c-0.4-0.1-0.9-0.1-1.3-0.1c-0.7,0-1.4,0.1-2,0.5c-0.5,0.3-0.8,0.8-0.8,1.4c0,0.3,0.1,0.5,0.2,0.8c0.1,0.2,0.3,0.5,0.4,0.6
	c0.2,0.2,0.4,0.3,0.7,0.4C133.1,142.1,133.4,142.1,133.7,142.1L133.7,142.1z"/>
<path class="st1" d="M143.5,143c-0.7,0-1.4-0.1-2-0.3s-1.2-0.6-1.7-1l0.5-0.8c0.5,0.4,1,0.7,1.5,0.9s1.1,0.3,1.7,0.3
	c0.6,0,1.2-0.1,1.7-0.4c0.4-0.3,0.7-0.7,0.6-1.2c0-0.2-0.1-0.4-0.2-0.6c-0.1-0.2-0.3-0.3-0.5-0.4c-0.3-0.1-0.5-0.3-0.8-0.3
	c-0.3-0.1-0.7-0.2-1.2-0.3s-1-0.3-1.3-0.4c-0.3-0.1-0.6-0.2-0.9-0.4c-0.2-0.1-0.4-0.3-0.6-0.6c-0.1-0.3-0.2-0.6-0.2-0.9
	c0-0.4,0.1-0.8,0.3-1.2c0.2-0.3,0.4-0.6,0.7-0.9c0.3-0.2,0.7-0.4,1.1-0.5c0.4-0.1,0.9-0.2,1.3-0.2c0.6,0,1.3,0.1,1.9,0.3
	c0.5,0.2,1,0.5,1.4,0.9l-0.6,0.7c-0.3-0.4-0.8-0.6-1.2-0.8c-0.5-0.2-1-0.3-1.5-0.3c-0.3,0-0.6,0-0.9,0.1c-0.2,0.1-0.5,0.2-0.7,0.3
	s-0.4,0.3-0.5,0.5s-0.2,0.5-0.2,0.7s0,0.4,0.1,0.6c0.1,0.2,0.2,0.3,0.4,0.4c0.2,0.1,0.5,0.2,0.7,0.3c0.3,0.1,0.6,0.2,1,0.3
	c0.6,0.1,1.1,0.3,1.5,0.4c0.4,0.1,0.7,0.3,1.1,0.5c0.3,0.2,0.5,0.4,0.7,0.7s0.2,0.7,0.2,1c0,0.8-0.3,1.5-0.9,1.9
	C145.3,142.8,144.4,143.1,143.5,143z"/>
<path class="st1" d="M151.8,143c-0.7,0-1.4-0.1-2-0.3s-1.2-0.6-1.7-1l0.5-0.8c0.5,0.4,1,0.7,1.5,0.9s1.1,0.3,1.7,0.3
	c0.6,0,1.2-0.1,1.7-0.4c0.4-0.3,0.7-0.7,0.6-1.2c0-0.2-0.1-0.4-0.2-0.6c-0.1-0.2-0.3-0.3-0.5-0.4c-0.3-0.1-0.5-0.3-0.8-0.3
	c-0.3-0.1-0.7-0.2-1.2-0.3s-1-0.3-1.3-0.4c-0.3-0.1-0.6-0.2-0.9-0.4c-0.2-0.1-0.4-0.4-0.6-0.6c-0.1-0.3-0.2-0.6-0.2-0.9
	c0-0.4,0.1-0.8,0.3-1.2c0.2-0.3,0.4-0.6,0.7-0.9c0.3-0.2,0.7-0.4,1.1-0.5c0.4-0.1,0.9-0.2,1.3-0.2c0.6,0,1.3,0.1,1.9,0.3
	c0.5,0.2,1,0.5,1.4,0.9l-0.6,0.7c-0.3-0.3-0.8-0.6-1.2-0.8c-0.5-0.2-1-0.3-1.5-0.3c-0.3,0-0.6,0-0.9,0.1c-0.2,0.1-0.5,0.2-0.7,0.3
	s-0.4,0.3-0.5,0.5s-0.2,0.5-0.2,0.7s0,0.4,0.1,0.6c0.1,0.2,0.2,0.3,0.4,0.4c0.2,0.1,0.4,0.2,0.7,0.3s0.6,0.2,1,0.3
	c0.6,0.1,1.1,0.3,1.5,0.4c0.4,0.1,0.7,0.3,1.1,0.5c0.6,0.3,0.9,1,0.9,1.6c0,0.8-0.3,1.5-0.9,1.9C153.6,142.8,152.7,143.1,151.8,143z
	"/>
<path class="st1" d="M168.3,133.9h1.1l-3.9,8.9h-1l-1.9-4.6l-1.9,4.6h-1l-3.8-8.9h1.1l3.3,7.7l1.7-4.1l-1.5-3.6h1l1.2,2.9l1.2-2.9h1
	l-1.5,3.6l1.7,4.1L168.3,133.9z"/>
<path class="st1" d="M174.5,143c-1.2,0-2.4-0.5-3.2-1.4c-0.4-0.4-0.7-0.9-0.9-1.5s-0.3-1.2-0.3-1.8c0-1.2,0.5-2.4,1.3-3.3
	c0.4-0.4,0.9-0.8,1.4-1c0.6-0.3,1.2-0.4,1.8-0.4s1.2,0.1,1.8,0.4c0.5,0.2,1,0.6,1.4,1s0.7,0.9,0.9,1.5s0.3,1.2,0.3,1.8
	s-0.1,1.2-0.3,1.8c-0.2,0.5-0.5,1-0.9,1.5C176.9,142.5,175.7,143,174.5,143L174.5,143z M171.3,138.4c0,0.5,0.1,1,0.3,1.4
	s0.4,0.8,0.7,1.1s0.6,0.6,1,0.8s0.8,0.3,1.3,0.3c0.4,0,0.9-0.1,1.3-0.3c0.4-0.2,0.7-0.5,1-0.8c0.9-1.1,1.2-2.6,0.7-3.9
	c-0.2-0.4-0.4-0.8-0.7-1.1s-0.6-0.6-1-0.8s-0.8-0.3-1.3-0.3c-0.4,0-0.9,0.1-1.3,0.3c-0.4,0.2-0.7,0.5-1,0.8s-0.5,0.7-0.7,1.2
	C171.3,137.4,171.2,137.9,171.3,138.4L171.3,138.4z"/>
<path class="st1" d="M185.4,135c-0.7,0-1.5,0.2-2.1,0.6c-0.6,0.4-1,1-1.2,1.7v5.6h-1.2V134h1.1v2.1c0.3-0.6,0.8-1.2,1.3-1.6
	c0.5-0.4,1.2-0.6,1.8-0.6h0.2L185.4,135L185.4,135z"/>
<path class="st1" d="M190.2,143c-0.6,0-1.2-0.1-1.7-0.4c-0.5-0.2-1-0.6-1.4-1s-0.7-0.9-0.9-1.5s-0.3-1.1-0.3-1.7
	c0-1.2,0.4-2.4,1.2-3.3c0.4-0.4,0.8-0.8,1.3-1c1.2-0.6,2.6-0.5,3.6,0.2c0.6,0.4,1,0.9,1.4,1.4v-5.5h1.2v11c0,0.3,0.1,0.5,0.4,0.5v1
	c-0.1,0-0.3,0-0.4,0c-0.3,0-0.5-0.1-0.7-0.3s-0.3-0.4-0.3-0.6V141c-0.4,0.6-0.8,1.1-1.4,1.4C191.5,142.8,190.8,143,190.2,143z
	 M190.4,142c0.3,0,0.6-0.1,0.9-0.2c0.3-0.1,0.6-0.3,0.9-0.5c0.3-0.2,0.5-0.4,0.7-0.7s0.3-0.6,0.4-0.9V137c-0.1-0.3-0.3-0.6-0.5-0.9
	c-0.2-0.3-0.5-0.5-0.7-0.7c-0.3-0.2-0.6-0.4-0.9-0.5c-0.3-0.1-0.6-0.2-0.9-0.2c-0.5,0-0.9,0.1-1.3,0.3c-0.4,0.2-0.7,0.5-1,0.8
	s-0.5,0.7-0.6,1.2c-0.2,0.4-0.2,0.9-0.2,1.3c0,0.9,0.4,1.8,1,2.5c0.3,0.3,0.7,0.6,1.1,0.8C189.5,141.9,190,142,190.4,142z"/>
<path class="st1" d="M86.1,166.2h0.3h0.3c0.2,0,0.3,0,0.5-0.1s0.3-0.2,0.3-0.4c0.2-0.3,0.3-0.5,0.4-0.8c0.1-0.4,0.3-0.9,0.6-1.5
	l-3.9-8.9h1.2l3.3,7.9l3.1-7.9h1.1L88.6,166c-0.1,0.3-0.3,0.6-0.6,0.9c-0.3,0.3-0.8,0.4-1.2,0.4h-0.3c-0.1,0-0.2,0-0.4,0V166.2z"/>
<path class="st1" d="M98.4,163.6c-0.6,0-1.2-0.1-1.8-0.4c-0.5-0.2-1-0.6-1.4-1s-0.7-0.9-0.9-1.5c-0.2-0.6-0.3-1.2-0.3-1.8
	c0-1.2,0.5-2.4,1.3-3.3c0.4-0.4,0.9-0.8,1.4-1c0.6-0.3,1.2-0.4,1.8-0.4c0.6,0,1.2,0.1,1.8,0.4c0.5,0.2,1,0.6,1.4,1s0.7,0.9,0.9,1.5
	c0.2,0.6,0.3,1.2,0.3,1.8s-0.1,1.2-0.3,1.8c-0.2,0.5-0.5,1-0.9,1.5c-0.4,0.4-0.9,0.8-1.4,1C99.7,163.5,99,163.6,98.4,163.6z
	 M95.2,159c0,0.5,0.1,1,0.3,1.4c0.2,0.4,0.4,0.8,0.7,1.1c0.3,0.3,0.6,0.6,1,0.8s0.8,0.3,1.3,0.3c0.4,0,0.9-0.1,1.3-0.3
	s0.7-0.5,1-0.8c0.9-1.1,1.2-2.6,0.7-3.9c-0.2-0.4-0.4-0.8-0.7-1.1c-0.3-0.3-0.6-0.6-1-0.8s-0.8-0.3-1.3-0.3c-0.4,0-0.9,0.1-1.3,0.3
	s-0.7,0.5-1,0.8C95.5,157.1,95.1,158,95.2,159L95.2,159z"/>
<path class="st1" d="M107.6,163.6c-0.8,0.1-1.7-0.3-2.2-1c-0.5-0.9-0.8-1.9-0.7-2.9v-5.3h1.2v5c0,2,0.7,3,2.1,3
	c0.7,0,1.4-0.2,1.9-0.7c0.3-0.2,0.5-0.5,0.8-0.8c0.2-0.3,0.4-0.6,0.5-1v-5.6h1.2v7.6c0,0.3,0.1,0.5,0.4,0.5v1c-0.1,0-0.2,0-0.3,0
	h-0.2c-0.3,0-0.5-0.1-0.7-0.3s-0.3-0.5-0.3-0.7v-1c-0.4,0.7-0.9,1.2-1.6,1.6C109.1,163.4,108.4,163.6,107.6,163.6z"/>
<path class="st1" d="M122.3,163.6c-0.7,0-1.4-0.1-2-0.4c-0.6-0.2-1.2-0.6-1.7-1l0.5-0.8c0.5,0.4,1,0.7,1.5,0.9s1.1,0.3,1.7,0.3
	s1.2-0.1,1.7-0.4c0.4-0.3,0.7-0.7,0.6-1.2c0-0.2-0.1-0.4-0.2-0.6c-0.1-0.2-0.3-0.3-0.5-0.4c-0.3-0.1-0.6-0.2-0.8-0.3
	c-0.3-0.1-0.7-0.2-1.2-0.3s-1-0.3-1.3-0.4c-0.3-0.1-0.6-0.2-0.9-0.4c-0.2-0.1-0.4-0.4-0.6-0.6c-0.1-0.3-0.2-0.6-0.2-0.9
	c0-0.4,0.1-0.8,0.3-1.2c0.2-0.3,0.4-0.6,0.7-0.9c0.3-0.2,0.7-0.4,1.1-0.5c1-0.3,2.2-0.2,3.2,0.2c0.5,0.2,1,0.5,1.4,0.9l-0.6,0.7
	c-0.3-0.4-0.8-0.6-1.2-0.8c-0.5-0.2-1-0.3-1.5-0.3c-0.3,0-0.6,0-0.9,0.1c-0.2,0.1-0.5,0.2-0.7,0.3s-0.4,0.3-0.5,0.5
	s-0.2,0.5-0.2,0.8c0,0.2,0,0.4,0.1,0.6c0.1,0.2,0.2,0.3,0.4,0.4c0.2,0.1,0.5,0.2,0.7,0.3c0.3,0.1,0.6,0.2,1,0.3
	c0.6,0.1,1.1,0.3,1.5,0.4c0.4,0.1,0.7,0.3,1.1,0.5c0.3,0.2,0.5,0.4,0.7,0.7s0.2,0.7,0.2,1c0,0.8-0.4,1.5-1,1.9
	C124.1,163.5,123.2,163.7,122.3,163.6z"/>
<path class="st1" d="M132,163c-0.1,0.1-0.2,0.1-0.3,0.1c-0.1,0.1-0.3,0.1-0.5,0.2c-0.2,0.1-0.4,0.1-0.6,0.2c-0.2,0-0.5,0.1-0.7,0.1
	s-0.5,0-0.7-0.1s-0.4-0.2-0.6-0.3c-0.2-0.2-0.3-0.3-0.4-0.6c-0.1-0.2-0.2-0.5-0.2-0.8v-6.4h-1.2v-0.9h1.2v-3h1.2v3h2.1v0.9h-2.1v6.1
	c0,0.3,0.1,0.6,0.4,0.7c0.2,0.2,0.5,0.2,0.7,0.2c0.3,0,0.6-0.1,0.9-0.2c0.2-0.1,0.3-0.1,0.5-0.2L132,163z"/>
<path class="st1" d="M137.1,163.6c-0.6,0-1.2-0.1-1.8-0.4c-0.5-0.2-1-0.6-1.4-1s-0.7-0.9-0.9-1.5s-0.3-1.2-0.3-1.8s0.1-1.2,0.3-1.8
	c0.2-0.5,0.5-1.1,0.9-1.5s0.9-0.8,1.4-1c0.6-0.3,1.2-0.4,1.8-0.4s1.2,0.1,1.8,0.4c0.5,0.2,1,0.6,1.4,1s0.7,0.9,0.9,1.5
	s0.3,1.2,0.3,1.8s-0.1,1.2-0.3,1.8c-0.2,0.5-0.5,1.1-0.9,1.5C139.5,163.2,138.3,163.7,137.1,163.6L137.1,163.6z M133.8,159
	c0,0.5,0.1,1,0.3,1.4s0.4,0.8,0.7,1.1s0.6,0.6,1,0.8s0.8,0.3,1.3,0.3c0.4,0,0.9-0.1,1.3-0.3c0.4-0.2,0.7-0.5,1-0.8
	c0.9-1.1,1.2-2.6,0.7-3.9c-0.2-0.4-0.4-0.8-0.7-1.1s-0.6-0.6-1-0.8s-0.8-0.3-1.3-0.3c-0.4,0-0.9,0.1-1.3,0.3c-0.4,0.2-0.7,0.5-1,0.8
	C134.2,157.1,133.8,158,133.8,159L133.8,159z"/>
<path class="st1" d="M148,155.6c-0.7,0-1.5,0.2-2.1,0.6c-0.6,0.4-1,1-1.2,1.7v5.6h-1.2v-8.9h1.1v2.1c0.3-0.6,0.8-1.2,1.3-1.6
	c0.5-0.4,1.2-0.6,1.8-0.6h0.2L148,155.6L148,155.6z"/>
<path class="st1" d="M152.9,163.6c-1.2,0-2.4-0.5-3.2-1.4s-1.3-2.1-1.3-3.3c0-0.6,0.1-1.2,0.3-1.8c0.2-0.5,0.5-1,0.9-1.5
	c0.4-0.4,0.9-0.8,1.4-1c1.1-0.5,2.4-0.5,3.6,0c0.5,0.2,1,0.6,1.4,1c0.8,0.9,1.2,2,1.2,3.2v0.3c0,0.1,0,0.1,0,0.2h-7.7
	c0.1,0.9,0.4,1.7,1.1,2.4c0.3,0.3,0.6,0.5,1,0.7s0.8,0.3,1.2,0.3c0.3,0,0.6,0,0.9-0.1c0.3-0.1,0.5-0.2,0.8-0.3
	c0.2-0.1,0.5-0.3,0.6-0.5c0.2-0.2,0.3-0.4,0.4-0.7l1,0.3c-0.1,0.3-0.3,0.6-0.6,0.9c-0.3,0.3-0.6,0.5-0.9,0.7
	c-0.3,0.2-0.7,0.4-1.1,0.5C153.8,163.6,153.4,163.6,152.9,163.6z M156.2,158.5c-0.1-0.9-0.4-1.7-1.1-2.3c-0.3-0.3-0.6-0.5-1-0.7
	s-0.8-0.2-1.2-0.2c-0.8,0-1.7,0.3-2.3,0.9c-0.3,0.3-0.5,0.6-0.7,1s-0.3,0.9-0.3,1.3H156.2z"/>
<path class="st1" d="M174.3,154.5h1.1l-3.9,8.9h-1l-1.9-4.6l-1.9,4.6h-1l-3.8-8.9h1.1l3.3,7.7l1.7-4.1l-1.5-3.6h1l1.2,2.9l1.2-2.9h1
	l-1.5,3.6l1.7,4.1L174.3,154.5z"/>
<path class="st1" d="M177,152.6v-1.7h1.2v1.7H177z M177,163.5v-8.9h1.2v8.9H177z"/>
<path class="st1" d="M185.1,163c-0.1,0.1-0.2,0.1-0.3,0.1c-0.1,0.1-0.3,0.1-0.4,0.2c-0.2,0.1-0.4,0.1-0.6,0.2
	c-0.2,0-0.5,0.1-0.7,0.1s-0.5,0-0.7-0.1s-0.4-0.2-0.6-0.3c-0.2-0.2-0.3-0.3-0.4-0.6c-0.1-0.2-0.2-0.5-0.1-0.8v-6.4h-1.2v-0.9h1.2v-3
	h1.2v3h2.1v0.9h-2.1v6.1c0,0.3,0.1,0.6,0.4,0.7c0.2,0.2,0.5,0.2,0.7,0.2c0.3,0,0.6-0.1,0.9-0.2c0.2-0.1,0.3-0.1,0.5-0.2L185.1,163z"
	/>
<path class="st1" d="M194.1,163.5h-1.2v-5c0.1-0.8-0.1-1.6-0.5-2.3c-0.3-0.5-0.9-0.8-1.5-0.8c-0.3,0-0.7,0.1-1,0.2
	c-0.7,0.3-1.3,0.7-1.7,1.4c-0.2,0.3-0.4,0.6-0.5,1v5.5h-1.2V151h1.2v5.6c0.3-0.7,0.9-1.2,1.5-1.6c0.6-0.4,1.3-0.6,2-0.6
	c0.5,0,0.9,0.1,1.3,0.3c0.3,0.2,0.6,0.5,0.9,0.8c0.2,0.4,0.4,0.8,0.5,1.2c0.1,0.5,0.2,1,0.2,1.6V163.5z"/>
<path class="st1" d="M203.7,163.6c-0.8,0.1-1.7-0.3-2.2-1c-0.5-0.9-0.8-1.9-0.7-2.9v-5.3h1.2v5c0,2,0.7,3,2.1,3c0.3,0,0.7-0.1,1-0.2
	c0.3-0.1,0.6-0.3,0.9-0.5c0.3-0.2,0.5-0.5,0.8-0.8c0.2-0.3,0.4-0.6,0.5-1v-5.6h1.2v7.6c0,0.3,0.1,0.5,0.4,0.5v1c-0.1,0-0.2,0-0.3,0
	h-0.2c-0.3,0-0.5-0.1-0.7-0.3s-0.3-0.5-0.3-0.7v-1c-0.4,0.7-0.9,1.2-1.6,1.6C205.2,163.4,204.5,163.6,203.7,163.6z"/>
<path class="st1" d="M214.1,163.6c-0.7,0-1.4-0.1-2-0.4c-0.6-0.2-1.2-0.6-1.7-1l0.5-0.8c0.5,0.4,1,0.7,1.5,0.9s1.1,0.3,1.7,0.3
	c0.6,0,1.2-0.1,1.7-0.4c0.4-0.3,0.7-0.7,0.6-1.2c0-0.2-0.1-0.4-0.2-0.6c-0.1-0.2-0.3-0.3-0.5-0.4c-0.3-0.1-0.5-0.2-0.8-0.3
	s-0.7-0.2-1.2-0.3s-1-0.3-1.3-0.4c-0.3-0.1-0.6-0.2-0.9-0.4c-0.2-0.1-0.4-0.3-0.6-0.6c-0.1-0.3-0.2-0.6-0.2-0.9
	c0-0.4,0.1-0.8,0.3-1.2c0.2-0.3,0.4-0.6,0.7-0.9c0.3-0.2,0.7-0.4,1.1-0.5c0.4-0.1,0.9-0.2,1.3-0.2c0.6,0,1.3,0.1,1.9,0.3
	c0.5,0.2,1,0.5,1.4,0.9l-0.6,0.7c-0.3-0.3-0.8-0.6-1.2-0.8c-0.5-0.2-1-0.3-1.5-0.3c-0.3,0-0.6,0-0.9,0.1c-0.2,0.1-0.5,0.2-0.7,0.3
	s-0.4,0.3-0.5,0.5s-0.2,0.5-0.2,0.8c0,0.2,0,0.4,0.1,0.6c0.1,0.2,0.2,0.3,0.4,0.4c0.2,0.1,0.5,0.2,0.7,0.3c0.3,0.1,0.6,0.2,1,0.3
	c0.6,0.1,1.1,0.3,1.5,0.4c0.4,0.1,0.7,0.3,1.1,0.5c0.3,0.2,0.5,0.4,0.7,0.7s0.2,0.7,0.2,1c0,0.8-0.3,1.5-0.9,1.9
	C215.9,163.5,215,163.7,214.1,163.6z"/>
<path class="st1" d="M269.6,103.4h-4.4v11.1H264v-11.1h-4.3v-1.1h9.9V103.4z"/>
<path class="st1" d="M278.7,114.5h-1.2v-5c0.1-0.8-0.1-1.6-0.5-2.3c-0.3-0.5-0.9-0.8-1.5-0.8c-0.3,0-0.7,0.1-1,0.2s-0.6,0.3-0.9,0.5
	s-0.5,0.5-0.8,0.8c-0.2,0.3-0.4,0.6-0.5,1v5.5h-1.2V102h1.2v5.6c0.3-0.7,0.8-1.2,1.5-1.6c0.6-0.4,1.3-0.6,2-0.6
	c0.5,0,0.9,0.1,1.3,0.3c0.4,0.2,0.7,0.5,0.9,0.8c0.2,0.4,0.4,0.8,0.5,1.2c0.1,0.5,0.2,1,0.1,1.6L278.7,114.5z"/>
<path class="st1" d="M285.1,114.7c-0.6,0-1.2-0.1-1.8-0.4c-1.7-0.8-2.7-2.5-2.7-4.3c0-0.6,0.1-1.2,0.3-1.8c0.2-0.5,0.5-1,0.9-1.5
	c0.4-0.4,0.9-0.8,1.4-1c0.6-0.2,1.2-0.4,1.8-0.4c0.6,0,1.2,0.1,1.8,0.4c0.5,0.2,1,0.6,1.4,1s0.7,0.9,0.9,1.5
	c0.2,0.6,0.3,1.2,0.3,1.8v0.3c0,0.1,0,0.1,0,0.2h-7.7c0,0.5,0.1,0.9,0.3,1.3c0.2,0.4,0.4,0.8,0.7,1.1c0.3,0.3,0.6,0.5,1,0.7
	s0.8,0.2,1.2,0.2c0.3,0,0.6,0,0.9-0.1s0.5-0.2,0.8-0.3c0.2-0.1,0.5-0.3,0.6-0.5c0.2-0.2,0.3-0.4,0.5-0.7l1,0.3
	c-0.1,0.3-0.3,0.6-0.6,0.9c-0.3,0.3-0.5,0.5-0.9,0.7c-0.3,0.2-0.7,0.4-1.1,0.5C285.9,114.6,285.5,114.7,285.1,114.7z M288.4,109.6
	c0-0.5-0.1-0.9-0.3-1.3c-0.2-0.4-0.4-0.7-0.7-1c-0.3-0.3-0.6-0.5-1-0.7s-0.8-0.2-1.2-0.2c-0.4,0-0.8,0.1-1.2,0.2
	c-0.4,0.2-0.7,0.4-1,0.7c-0.3,0.3-0.5,0.6-0.7,1s-0.3,0.9-0.3,1.3H288.4z"/>
<path class="st1" d="M296.5,102l-0.3,1.8h0.4v1.8h-1.1v-1.8l0.4-1.8H296.5z M298.6,102l-0.3,1.8h0.4v1.8h-1.1v-1.8l0.4-1.8H298.6z"
	/>
<path class="st1" d="M300.2,110c0-0.6,0.1-1.2,0.3-1.8c0.2-0.5,0.5-1,0.9-1.5c0.4-0.4,0.9-0.8,1.4-1c0.6-0.3,1.2-0.4,1.8-0.4
	c0.8,0,1.5,0.2,2.2,0.6c0.6,0.4,1.1,0.9,1.4,1.6l-1.1,0.4c-0.2-0.5-0.6-0.8-1.1-1.1c-0.5-0.3-1-0.4-1.5-0.4c-0.4,0-0.9,0.1-1.3,0.3
	c-0.4,0.2-0.7,0.4-1,0.8c-0.3,0.3-0.5,0.7-0.7,1.1c-0.2,0.5-0.2,0.9-0.2,1.4s0.1,1,0.3,1.4c0.2,0.4,0.4,0.8,0.7,1.2
	c0.3,0.3,0.6,0.6,1,0.8c0.4,0.2,0.8,0.3,1.3,0.3c0.3,0,0.6,0,0.9-0.1s0.5-0.2,0.8-0.3c0.2-0.1,0.4-0.3,0.6-0.5s0.3-0.4,0.4-0.6
	l1.1,0.3c-0.1,0.3-0.3,0.6-0.5,0.9s-0.5,0.5-0.9,0.7c-0.3,0.2-0.7,0.4-1.1,0.5s-0.8,0.2-1.2,0.2c-0.6,0-1.2-0.1-1.8-0.4
	c-0.5-0.2-1-0.6-1.4-1C300.6,112.4,300.2,111.2,300.2,110z"/>
<path class="st1" d="M314,114.7c-0.6,0-1.2-0.1-1.8-0.4c-0.5-0.2-1-0.6-1.4-1s-0.7-0.9-0.9-1.5c-0.2-0.6-0.3-1.2-0.3-1.8
	c0-1.2,0.4-2.4,1.3-3.3c0.4-0.4,0.9-0.8,1.4-1c0.6-0.3,1.2-0.4,1.8-0.4c0.6,0,1.2,0.1,1.8,0.4c0.5,0.2,1,0.6,1.4,1
	c1.2,1.4,1.6,3.3,0.9,5c-0.4,1.1-1.2,2-2.3,2.5C315.2,114.6,314.6,114.7,314,114.7z M310.8,110.1c0,0.5,0.1,1,0.3,1.4
	c0.2,0.4,0.4,0.8,0.7,1.1c0.3,0.3,0.6,0.6,1,0.8c0.4,0.2,0.8,0.3,1.3,0.3c0.4,0,0.9-0.1,1.3-0.3c0.4-0.2,0.7-0.5,1-0.8
	s0.5-0.7,0.7-1.1c0.5-1.4,0.3-2.9-0.7-4c-0.3-0.3-0.6-0.6-1-0.8c-0.4-0.2-0.8-0.3-1.3-0.3c-0.4,0-0.9,0.1-1.3,0.3
	c-0.4,0.2-0.7,0.5-1,0.8C311.1,108.2,310.7,109.1,310.8,110.1L310.8,110.1z"/>
<path class="st1" d="M333.7,114.5h-1.2v-5c0.1-0.8-0.1-1.6-0.5-2.3c-0.3-0.5-0.9-0.8-1.5-0.7c-0.3,0-0.7,0.1-1,0.2s-0.6,0.3-0.9,0.5
	c-0.5,0.5-0.9,1.1-1.1,1.9v5.5h-1.2v-5c0.1-0.8-0.1-1.6-0.5-2.3c-0.3-0.5-0.9-0.8-1.5-0.7c-0.7,0-1.3,0.2-1.8,0.7s-0.9,1.1-1.1,1.9
	v5.5h-1.2v-9h1.1v2c0.3-0.7,0.8-1.2,1.5-1.6c0.6-0.4,1.3-0.6,2-0.6s1.3,0.2,1.8,0.6s0.8,1,0.8,1.7c0.6-1.4,1.9-2.3,3.5-2.3
	c0.4,0,0.9,0.1,1.3,0.3c0.3,0.2,0.6,0.4,0.8,0.8c0.2,0.4,0.4,0.8,0.5,1.2c0.1,0.5,0.2,1.1,0.1,1.6L333.7,114.5z"/>
<path class="st1" d="M349.5,114.5h-1.2v-5c0.1-0.8-0.1-1.6-0.5-2.3c-0.3-0.5-0.9-0.8-1.5-0.7c-0.3,0-0.7,0.1-1,0.2s-0.6,0.3-0.8,0.5
	c-0.3,0.2-0.5,0.5-0.7,0.8s-0.3,0.6-0.5,1v5.5h-1.2v-5c0.1-0.8-0.1-1.6-0.5-2.3c-0.3-0.5-0.9-0.8-1.5-0.7c-0.7,0-1.3,0.2-1.8,0.7
	s-0.9,1.1-1.1,1.9v5.5H336v-9h1.1v2c0.3-0.7,0.8-1.2,1.4-1.6s1.3-0.6,2-0.6s1.3,0.2,1.8,0.6s0.8,1,0.8,1.7c0.6-1.4,1.9-2.3,3.5-2.3
	c0.4,0,0.9,0.1,1.3,0.3c0.3,0.2,0.6,0.4,0.8,0.8c0.2,0.4,0.4,0.8,0.5,1.2c0.1,0.5,0.1,1.1,0.1,1.6L349.5,114.5z"/>
<path class="st1" d="M355.8,114.7c-0.6,0-1.2-0.1-1.8-0.4c-0.5-0.2-1-0.6-1.4-1s-0.7-0.9-0.9-1.5c-0.2-0.6-0.3-1.2-0.3-1.8
	c0-1.2,0.4-2.4,1.3-3.3c0.4-0.4,0.9-0.8,1.4-1c0.6-0.3,1.2-0.4,1.8-0.4c0.6,0,1.2,0.1,1.8,0.4c0.5,0.2,1,0.6,1.4,1s0.7,0.9,0.9,1.5
	c0.2,0.6,0.3,1.2,0.3,1.8c0,0.6-0.1,1.2-0.3,1.8c-0.2,0.5-0.5,1-0.9,1.5C358.1,114.2,357,114.7,355.8,114.7L355.8,114.7z
	 M352.5,110.1c0,0.9,0.4,1.8,1,2.5c0.3,0.3,0.6,0.6,1,0.8c0.4,0.2,0.8,0.3,1.3,0.3c0.4,0,0.9-0.1,1.3-0.3c0.4-0.2,0.7-0.5,1-0.8
	s0.5-0.7,0.7-1.1c0.5-1.4,0.3-2.9-0.7-4c-0.3-0.3-0.6-0.6-1-0.8c-0.8-0.4-1.7-0.4-2.5,0c-0.4,0.2-0.7,0.5-1,0.8
	C352.9,108.2,352.5,109.1,352.5,110.1L352.5,110.1z"/>
<path class="st1" d="M369.7,114.5h-1.2v-5c0.1-0.8-0.1-1.6-0.5-2.3c-0.3-0.5-0.9-0.8-1.5-0.7c-0.3,0-0.7,0.1-1,0.2s-0.7,0.3-1,0.5
	s-0.6,0.5-0.8,0.8c-0.2,0.3-0.4,0.6-0.5,1v5.5H362v-9h1.1v2c0.8-1.4,2.2-2.2,3.8-2.2c0.4,0,0.9,0.1,1.3,0.3c0.3,0.2,0.6,0.4,0.8,0.8
	c0.2,0.4,0.4,0.8,0.5,1.2c0.1,0.5,0.1,1.1,0.1,1.6L369.7,114.5z"/>
<path class="st1" d="M381.1,114.7c-0.7,0-1.4-0.2-2-0.6s-1-0.9-1.4-1.4v5.5h-1.2v-12.6h1v1.7c0.4-0.5,0.9-1,1.4-1.3
	c0.6-0.3,1.2-0.5,1.9-0.5c0.6,0,1.2,0.1,1.7,0.4c0.5,0.2,1,0.6,1.3,1c0.8,0.9,1.2,2,1.2,3.2c0,0.6-0.1,1.2-0.3,1.8
	c-0.2,0.5-0.5,1-0.8,1.5c-0.4,0.4-0.8,0.8-1.3,1C382.2,114.6,381.7,114.7,381.1,114.7z M380.8,113.7c0.5,0,0.9-0.1,1.3-0.3
	c0.4-0.2,0.7-0.5,1-0.8s0.5-0.7,0.6-1.2c0.1-0.4,0.2-0.9,0.2-1.3c0-0.5-0.1-0.9-0.3-1.4c-0.2-0.4-0.4-0.8-0.7-1.2
	c-0.3-0.3-0.6-0.6-1-0.8c-0.4-0.2-0.9-0.3-1.3-0.3c-0.3,0-0.6,0.1-0.9,0.2s-0.6,0.3-0.9,0.5s-0.5,0.4-0.7,0.7
	c-0.2,0.2-0.3,0.5-0.4,0.8v2.8c0.1,0.3,0.3,0.6,0.5,0.9s0.4,0.5,0.7,0.7c0.3,0.2,0.6,0.4,0.9,0.5
	C380.2,113.6,380.5,113.7,380.8,113.7L380.8,113.7z"/>
<path class="st1" d="M389.4,114.7c-0.8,0-1.5-0.3-2.1-0.8c-0.3-0.2-0.5-0.5-0.6-0.9c-0.1-0.3-0.2-0.7-0.2-1.1s0.1-0.8,0.3-1.1
	c0.2-0.3,0.5-0.6,0.8-0.8c0.4-0.3,0.8-0.4,1.2-0.6c0.5-0.1,1-0.2,1.5-0.2s0.9,0,1.4,0.1c0.4,0.1,0.8,0.2,1.3,0.3v-0.8
	c0-0.7-0.2-1.4-0.7-1.9s-1.2-0.7-1.9-0.7c-0.5,0-1,0.1-1.4,0.3c-0.5,0.2-1,0.5-1.5,0.8l-0.4-0.8c1-0.7,2.1-1.1,3.4-1.2
	c1-0.1,1.9,0.3,2.6,0.9c0.7,0.7,1,1.6,1,2.6v4c0,0.3,0.1,0.5,0.4,0.5v1c-0.1,0-0.3,0-0.5,0s-0.5-0.1-0.7-0.2
	c-0.2-0.2-0.3-0.4-0.3-0.6v-0.7c-0.4,0.5-0.9,1-1.6,1.2C390.8,114.5,390.1,114.7,389.4,114.7z M389.7,113.8c0.6,0,1.1-0.1,1.7-0.3
	c0.5-0.2,0.9-0.5,1.2-0.9c0.1-0.1,0.2-0.2,0.2-0.3c0.1-0.1,0.1-0.2,0.1-0.3v-1.5c-0.4-0.1-0.8-0.3-1.2-0.3c-0.4-0.1-0.9-0.1-1.3-0.1
	c-0.7,0-1.4,0.1-2,0.5c-0.5,0.3-0.8,0.8-0.8,1.4c0,0.3,0.1,0.5,0.2,0.8c0.1,0.2,0.3,0.5,0.5,0.6c0.2,0.2,0.4,0.3,0.7,0.4
	C389.1,113.8,389.4,113.8,389.7,113.8z"/>
<path class="st1" d="M399.5,114.7c-0.7,0-1.4-0.1-2-0.3c-0.6-0.2-1.2-0.6-1.7-1l0.5-0.8c0.5,0.4,1,0.7,1.5,0.9
	c0.5,0.2,1.1,0.3,1.7,0.3s1.2-0.1,1.7-0.4c0.4-0.3,0.7-0.7,0.6-1.3c0-0.2-0.1-0.4-0.2-0.6s-0.3-0.3-0.5-0.4
	c-0.3-0.1-0.5-0.3-0.8-0.3c-0.3-0.1-0.7-0.2-1.2-0.3s-1-0.3-1.3-0.4s-0.6-0.2-0.9-0.4c-0.2-0.1-0.4-0.3-0.5-0.6
	c-0.1-0.3-0.2-0.6-0.2-0.9c0-0.4,0.1-0.8,0.3-1.2c0.2-0.3,0.4-0.6,0.7-0.8c0.3-0.2,0.7-0.4,1.1-0.5s0.9-0.2,1.3-0.2
	c0.6,0,1.3,0.1,1.9,0.3c0.5,0.2,1,0.5,1.4,0.9l-0.6,0.7c-0.3-0.3-0.8-0.6-1.2-0.8c-0.5-0.2-1-0.3-1.5-0.3c-0.3,0-0.6,0-0.9,0.1
	c-0.2,0.1-0.5,0.2-0.7,0.3c-0.2,0.1-0.4,0.3-0.5,0.5s-0.2,0.5-0.2,0.8c0,0.2,0,0.4,0.1,0.6s0.2,0.3,0.4,0.4c0.2,0.1,0.4,0.2,0.7,0.3
	c0.3,0.1,0.6,0.2,1,0.3c0.6,0.1,1.1,0.3,1.5,0.4s0.8,0.3,1.1,0.5c0.3,0.2,0.5,0.4,0.7,0.7c0.2,0.3,0.2,0.7,0.2,1
	c0,0.8-0.3,1.5-0.9,2C401.3,114.5,400.4,114.8,399.5,114.7z"/>
<path class="st1" d="M407.9,114.7c-0.7,0-1.4-0.1-2-0.3c-0.6-0.2-1.2-0.6-1.7-1l0.5-0.8c0.5,0.4,1,0.7,1.5,0.9
	c0.5,0.2,1.1,0.3,1.7,0.3s1.2-0.1,1.7-0.4c0.4-0.3,0.7-0.7,0.6-1.3c0-0.2,0-0.4-0.2-0.6c-0.1-0.2-0.3-0.3-0.5-0.4
	c-0.3-0.1-0.5-0.3-0.8-0.3c-0.3-0.1-0.7-0.2-1.2-0.3c-0.4-0.1-0.9-0.2-1.3-0.4c-0.3-0.1-0.6-0.2-0.9-0.4c-0.2-0.1-0.4-0.3-0.5-0.6
	c-0.1-0.3-0.2-0.6-0.2-0.9c0-0.4,0.1-0.8,0.3-1.2c0.2-0.3,0.4-0.6,0.7-0.8c0.3-0.2,0.7-0.4,1.1-0.5s0.9-0.2,1.3-0.2
	c0.6,0,1.3,0.1,1.9,0.3c0.5,0.2,1,0.5,1.4,0.9l-0.6,0.7c-0.3-0.3-0.8-0.6-1.2-0.8c-0.5-0.2-1-0.3-1.5-0.3c-0.3,0-0.6,0-0.9,0.1
	s-0.5,0.2-0.7,0.3c-0.2,0.1-0.4,0.3-0.5,0.5s-0.2,0.5-0.2,0.8c0,0.2,0,0.4,0.1,0.6s0.2,0.3,0.4,0.4c0.2,0.1,0.5,0.2,0.7,0.3
	c0.3,0.1,0.6,0.2,1,0.3c0.6,0.1,1.1,0.3,1.5,0.4s0.8,0.3,1.1,0.5c0.3,0.2,0.5,0.4,0.7,0.7c0.2,0.3,0.2,0.7,0.2,1c0,0.8-0.3,1.5-1,2
	C409.7,114.6,408.8,114.8,407.9,114.7z"/>
<path class="st1" d="M424.3,105.6h1.1l-3.9,9h-1l-1.9-4.6l-1.9,4.6h-1l-3.9-9h1.1l3.3,7.7l1.7-4.1l-1.5-3.6h1l1.2,2.9l1.2-2.9h1
	l-1.5,3.6l1.7,4.1L424.3,105.6z"/>
<path class="st1" d="M430.5,114.7c-0.6,0-1.2-0.1-1.8-0.4c-0.5-0.2-1-0.6-1.4-1s-0.7-0.9-0.9-1.5c-0.2-0.6-0.3-1.2-0.3-1.8
	c0-1.2,0.4-2.4,1.3-3.3c0.4-0.4,0.9-0.8,1.4-1c0.6-0.3,1.2-0.4,1.8-0.4c0.6,0,1.2,0.1,1.8,0.4c0.5,0.2,1,0.6,1.4,1
	c0.8,0.9,1.3,2.1,1.3,3.3c0,0.6-0.1,1.2-0.3,1.8c-0.2,0.5-0.5,1-0.9,1.5C432.9,114.2,431.7,114.7,430.5,114.7L430.5,114.7z
	 M427.3,110.1c0,0.9,0.4,1.8,1,2.5c0.3,0.3,0.6,0.6,1,0.8c0.4,0.2,0.8,0.3,1.3,0.3c0.4,0,0.9-0.1,1.3-0.3c0.4-0.2,0.7-0.5,1-0.8
	s0.5-0.7,0.7-1.1c0.5-1.4,0.3-2.9-0.7-4c-0.3-0.3-0.6-0.6-1-0.8c-0.4-0.2-0.8-0.3-1.3-0.3c-0.4,0-0.9,0.1-1.3,0.3
	c-0.4,0.2-0.7,0.5-1,0.8s-0.5,0.7-0.7,1.2C427.4,109.1,427.3,109.6,427.3,110.1z"/>
<path class="st1" d="M441.4,106.6c-0.7,0-1.5,0.2-2.1,0.7c-0.6,0.4-1,1-1.2,1.7v5.6h-1.2v-9h1.1v2.2c0.3-0.6,0.8-1.2,1.3-1.6
	s1.2-0.6,1.8-0.6h0.2L441.4,106.6z"/>
<path class="st1" d="M446.2,114.7c-0.6,0-1.2-0.1-1.7-0.4c-0.5-0.2-1-0.6-1.4-1s-0.7-0.9-0.9-1.5c-0.2-0.6-0.3-1.1-0.3-1.7
	s0.1-1.2,0.3-1.8c0.2-0.5,0.5-1,0.9-1.5c0.4-0.4,0.8-0.8,1.3-1s1.1-0.4,1.6-0.4c0.7,0,1.4,0.2,2,0.6s1,0.9,1.4,1.4V102h1.2v11
	c0,0.3,0.1,0.5,0.4,0.5v1c-0.1,0-0.3,0-0.4,0c-0.3,0-0.5-0.1-0.7-0.3c-0.2-0.2-0.3-0.4-0.3-0.6v-0.9c-0.3,0.6-0.8,1.1-1.4,1.4
	C447.5,114.5,446.9,114.7,446.2,114.7z M446.4,113.7c0.3,0,0.6-0.1,0.9-0.2s0.6-0.3,0.9-0.5s0.5-0.4,0.7-0.7
	c0.2-0.3,0.3-0.6,0.4-0.9v-2.8c-0.1-0.3-0.3-0.6-0.5-0.9s-0.5-0.5-0.8-0.7s-0.6-0.4-0.9-0.5s-0.6-0.2-0.9-0.2
	c-0.5,0-0.9,0.1-1.3,0.3c-0.4,0.2-0.7,0.5-1,0.8s-0.5,0.7-0.6,1.2c-0.1,0.4-0.2,0.9-0.2,1.3c0,0.5,0.1,0.9,0.3,1.4
	c0.3,0.8,0.9,1.5,1.8,1.9C445.5,113.6,446,113.7,446.4,113.7L446.4,113.7z"/>
<path class="st1" d="M453.1,105.6l0.3-1.8H453V102h1.1v1.8l-0.4,1.8C453.7,105.6,453.1,105.6,453.1,105.6z M455.2,105.6l0.3-1.8
	h-0.4V102h1.1v1.8l-0.4,1.8C455.8,105.6,455.2,105.6,455.2,105.6z"/>
<path class="st1" d="M261.3,137.9h0.3h0.3c0.2,0,0.3,0,0.5-0.1s0.3-0.2,0.4-0.4c0.1-0.3,0.3-0.6,0.4-0.8c0.1-0.4,0.4-0.9,0.6-1.5
	l-3.9-9h1.2l3.3,7.9l3.1-7.9h1.1l-4.6,11.5c-0.1,0.3-0.3,0.6-0.6,0.9c-0.3,0.3-0.8,0.4-1.2,0.4h-0.3h-0.4L261.3,137.9z"/>
<path class="st1" d="M273.5,135.3c-0.6,0-1.2-0.1-1.8-0.4c-0.5-0.2-1-0.6-1.4-1s-0.7-0.9-0.9-1.5c-0.4-1.1-0.4-2.4,0-3.6
	c0.2-0.5,0.5-1.1,0.9-1.5s0.9-0.8,1.4-1c1.1-0.5,2.4-0.5,3.5,0c0.5,0.2,1,0.6,1.4,1c0.8,0.9,1.3,2,1.3,3.3c0,0.6-0.1,1.2-0.3,1.8
	c-0.2,0.5-0.5,1-0.9,1.5c-0.4,0.4-0.9,0.8-1.4,1C274.8,135.2,274.2,135.3,273.5,135.3z M270.3,130.7c0,0.5,0.1,1,0.3,1.4
	c0.2,0.4,0.4,0.8,0.7,1.1c0.3,0.3,0.6,0.6,1,0.8c0.8,0.4,1.7,0.4,2.5,0c0.4-0.2,0.7-0.5,1-0.8s0.5-0.7,0.7-1.1
	c0.3-0.9,0.3-1.9,0-2.8c-0.2-0.4-0.4-0.8-0.7-1.1c-0.3-0.3-0.6-0.6-1-0.8c-0.4-0.2-0.8-0.3-1.3-0.3c-0.4,0-0.9,0.1-1.3,0.3
	c-0.4,0.2-0.7,0.5-1,0.8s-0.5,0.7-0.7,1.2C270.4,129.8,270.3,130.2,270.3,130.7z"/>
<path class="st1" d="M282.8,135.3c-0.8,0.1-1.7-0.3-2.2-1c-0.5-0.9-0.8-1.9-0.7-2.9v-5.2h1.1v5.1c0,2,0.7,3,2.1,3
	c0.3,0,0.7-0.1,1-0.2c0.3-0.1,0.6-0.3,0.9-0.5s0.5-0.5,0.8-0.8c0.2-0.3,0.4-0.6,0.5-1v-5.6h1.2v7.4c0,0.3,0.1,0.5,0.4,0.5v1h-0.3
	h-0.2c-0.3,0-0.5-0.1-0.7-0.3s-0.3-0.5-0.3-0.7v-1c-0.4,0.7-0.9,1.2-1.6,1.6C284.2,135.1,283.5,135.3,282.8,135.3z"/>
<path class="st1" d="M307.8,135.1h-1.2v-5c0.1-0.8-0.1-1.6-0.5-2.3c-0.3-0.5-0.9-0.8-1.5-0.7c-0.3,0-0.7,0.1-1,0.2s-0.6,0.3-0.8,0.5
	c-0.3,0.2-0.5,0.5-0.7,0.8s-0.3,0.6-0.5,1v5.5h-1.2v-5c0.1-0.8-0.1-1.6-0.5-2.3c-0.3-0.5-0.9-0.8-1.5-0.7c-0.7,0-1.3,0.2-1.8,0.7
	s-0.9,1.1-1.1,1.9v5.5h-1.2v-9h1.1v2c0.3-0.7,0.8-1.2,1.4-1.6s1.3-0.6,2-0.6s1.3,0.2,1.8,0.6s0.8,1,0.8,1.7c0.6-1.4,1.9-2.3,3.5-2.3
	c0.4,0,0.9,0.1,1.3,0.3c0.3,0.2,0.6,0.4,0.8,0.8c0.2,0.4,0.4,0.8,0.5,1.2c0.1,0.5,0.1,1.1,0.1,1.6L307.8,135.1z"/>
<path class="st1" d="M314.2,135.3c-0.6,0-1.2-0.1-1.8-0.4c-0.5-0.2-1-0.6-1.4-1s-0.7-0.9-0.9-1.5c-0.2-0.6-0.3-1.2-0.3-1.8
	s0.1-1.2,0.3-1.8c0.2-0.5,0.5-1,0.9-1.5c0.8-0.9,2-1.4,3.2-1.4c0.6,0,1.2,0.1,1.8,0.4c0.5,0.2,1,0.6,1.4,1s0.7,0.9,0.9,1.5
	c0.2,0.6,0.3,1.2,0.3,1.8v0.3c0,0.1,0,0.1,0,0.2h-7.7c0.1,0.9,0.4,1.7,1.1,2.4c0.3,0.3,0.6,0.5,1,0.7s0.8,0.2,1.2,0.3
	c0.3,0,0.6,0,0.9-0.1s0.5-0.2,0.8-0.3c0.2-0.1,0.5-0.3,0.6-0.5c0.2-0.2,0.3-0.4,0.5-0.7l1,0.3c-0.1,0.3-0.3,0.6-0.6,0.9
	c-0.3,0.3-0.6,0.5-0.9,0.7s-0.7,0.4-1.1,0.5C315,135.3,314.6,135.3,314.2,135.3z M317.5,130.2c0-0.5-0.1-0.9-0.3-1.3
	c-0.2-0.4-0.4-0.7-0.7-1c-0.3-0.3-0.6-0.5-1-0.7c-0.8-0.3-1.7-0.3-2.5,0c-0.4,0.2-0.7,0.4-1,0.7c-0.3,0.3-0.5,0.6-0.7,1
	s-0.3,0.9-0.3,1.3H317.5z"/>
<path class="st1" d="M333.7,135.1h-1.2v-5c0.1-0.8-0.1-1.6-0.5-2.3c-0.3-0.5-0.9-0.8-1.5-0.7c-0.3,0-0.7,0.1-1,0.2s-0.6,0.3-0.8,0.5
	c-0.3,0.2-0.5,0.5-0.7,0.8s-0.3,0.6-0.4,1v5.5h-1.2v-5c0.1-0.8-0.1-1.6-0.5-2.3c-0.3-0.5-0.9-0.8-1.5-0.7c-0.7,0-1.3,0.2-1.8,0.7
	s-0.9,1.1-1.1,1.9v5.5h-1.1v-9h1.1v2c0.3-0.6,0.8-1.2,1.4-1.6s1.3-0.6,2-0.6s1.3,0.2,1.8,0.6s0.8,1,0.8,1.7c0.6-1.4,2-2.2,3.5-2.2
	c0.4,0,0.9,0.1,1.3,0.3c0.3,0.2,0.6,0.4,0.8,0.8c0.2,0.4,0.4,0.8,0.5,1.2c0.1,0.5,0.2,1.1,0.1,1.6L333.7,135.1z"/>
<path class="st1" d="M340,135.3c-1.2,0-2.4-0.5-3.2-1.4c-0.4-0.4-0.7-0.9-0.9-1.5c-0.2-0.6-0.3-1.2-0.3-1.8s0.1-1.2,0.3-1.8
	c0.2-0.5,0.5-1,0.9-1.5c0.4-0.4,0.9-0.8,1.4-1c0.6-0.3,1.2-0.4,1.8-0.4c0.6,0,1.2,0.1,1.8,0.4c0.5,0.2,1,0.6,1.4,1s0.7,0.9,0.9,1.5
	c0.2,0.6,0.3,1.2,0.3,1.8s-0.1,1.2-0.3,1.8c-0.2,0.5-0.5,1-0.9,1.5C342.4,134.8,341.2,135.3,340,135.3L340,135.3z M336.8,130.7
	c0,0.5,0.1,1,0.3,1.4c0.2,0.4,0.4,0.8,0.7,1.1c0.3,0.3,0.6,0.6,1,0.8s0.8,0.3,1.3,0.3c0.4,0,0.9-0.1,1.3-0.3s0.7-0.4,1-0.8
	c0.3-0.3,0.5-0.7,0.7-1.1c0.3-0.9,0.3-1.9,0-2.8c-0.2-0.4-0.4-0.8-0.7-1.1c-0.3-0.3-0.6-0.6-1-0.8c-0.8-0.4-1.7-0.4-2.5,0
	c-0.4,0.2-0.7,0.5-1,0.8C337.1,128.8,336.7,129.8,336.8,130.7L336.8,130.7z"/>
<path class="st1" d="M350.9,127.2c-0.7,0-1.5,0.2-2.1,0.6s-1,1-1.2,1.7v5.6h-1.2v-9h1.1v2.1c0.3-0.6,0.8-1.2,1.3-1.6
	s1.2-0.6,1.8-0.6h0.2v1.2H350.9z"/>
<path class="st1" d="M352.4,124.3v-1.7h1.2v1.7H352.4z M352.4,135.1v-9h1.2v9H352.4z"/>
<path class="st1" d="M355.4,134.4l6-7.3h-5.9v-0.9h7.2v0.8l-6,7.3h6v0.9h-7.3L355.4,134.4z"/>
<path class="st1" d="M368.2,135.3c-1.2,0-2.4-0.5-3.2-1.4c-0.4-0.4-0.7-0.9-0.9-1.5c-0.2-0.6-0.3-1.2-0.3-1.8c0-1.2,0.4-2.4,1.3-3.2
	c0.4-0.4,0.9-0.8,1.4-1c0.6-0.2,1.2-0.4,1.8-0.4c0.6,0,1.2,0.1,1.8,0.4c0.5,0.2,1,0.6,1.4,1c0.8,0.9,1.2,2,1.2,3.2v0.3
	c0,0.1,0,0.1,0,0.2H365c0,0.5,0.1,0.9,0.3,1.3c0.2,0.4,0.4,0.8,0.7,1.1c0.6,0.6,1.4,1,2.3,1c0.6,0,1.1-0.2,1.6-0.4
	c0.2-0.1,0.5-0.3,0.7-0.5s0.3-0.4,0.4-0.7l1,0.3c-0.1,0.3-0.3,0.6-0.6,0.9c-0.5,0.6-1.2,1-2,1.2
	C369.1,135.3,368.7,135.3,368.2,135.3z M371.5,130.2c0-0.9-0.4-1.7-1-2.3c-0.3-0.3-0.6-0.5-1-0.7s-0.8-0.2-1.2-0.2
	c-0.4,0-0.8,0.1-1.2,0.2c-0.4,0.2-0.7,0.4-1,0.7c-0.3,0.3-0.5,0.6-0.7,1s-0.3,0.9-0.3,1.3H371.5z"/>
<path class="st1" d="M374.6,136.5l0.3-1.4h-0.4v-1.6h1.1v1.6l-0.4,1.4H374.6z"/>
<path class="st1" d="M385,135.3c-0.8,0-1.5-0.3-2.1-0.8c-0.3-0.2-0.5-0.5-0.6-0.9c-0.2-0.3-0.2-0.7-0.2-1.1c0-0.4,0.1-0.7,0.3-1.1
	c0.2-0.3,0.5-0.6,0.8-0.9c0.4-0.3,0.8-0.4,1.2-0.6c0.5-0.1,1-0.2,1.5-0.2s0.9,0,1.4,0.1c0.4,0.1,0.8,0.2,1.3,0.3v-0.8
	c0-0.7-0.2-1.4-0.7-1.9s-1.2-0.7-1.9-0.7c-0.5,0-1,0.1-1.4,0.3c-0.5,0.2-1,0.5-1.5,0.8l-0.4-0.8c1-0.7,2.1-1.1,3.4-1.2
	c1,0,1.9,0.3,2.6,1s1,1.6,1,2.6v4c0,0.3,0.1,0.5,0.4,0.5v1c-0.1,0-0.3,0-0.5,0c-0.3,0-0.5-0.1-0.7-0.2c-0.2-0.2-0.3-0.4-0.3-0.6
	v-0.7c-0.4,0.5-0.9,1-1.6,1.2C386.4,135.2,385.7,135.3,385,135.3z M385.3,134.4c0.6,0,1.1-0.1,1.7-0.4c0.5-0.2,0.9-0.5,1.2-0.9
	c0.1-0.1,0.2-0.2,0.2-0.3s0.1-0.2,0.1-0.3V131c-0.4-0.1-0.8-0.3-1.2-0.3c-0.4-0.1-0.9-0.1-1.3-0.1c-0.7,0-1.4,0.1-2,0.5
	c-0.5,0.3-0.8,0.8-0.8,1.4c0,0.3,0.1,0.5,0.2,0.8c0.1,0.2,0.3,0.5,0.5,0.6c0.2,0.2,0.4,0.3,0.7,0.4
	C384.7,134.3,385,134.4,385.3,134.4L385.3,134.4z"/>
<path class="st1" d="M399.6,135.1h-1.2v-5c0.1-0.8-0.1-1.6-0.5-2.3c-0.3-0.5-0.9-0.8-1.5-0.7c-0.3,0-0.7,0.1-1,0.2s-0.7,0.3-1,0.5
	s-0.6,0.5-0.8,0.8c-0.2,0.3-0.4,0.6-0.5,1v5.5h-1.2v-9h1.1v2c0.8-1.3,2.2-2.2,3.8-2.2c0.4,0,0.9,0.1,1.3,0.3
	c0.3,0.2,0.6,0.4,0.8,0.8c0.2,0.4,0.4,0.8,0.5,1.2c0.1,0.5,0.1,1.1,0.1,1.6L399.6,135.1z"/>
<path class="st1" d="M405.8,135.3c-0.6,0-1.2-0.1-1.7-0.4c-0.5-0.2-1-0.6-1.4-1s-0.7-0.9-0.9-1.5c-0.2-0.6-0.3-1.1-0.3-1.7
	c0-0.6,0.1-1.2,0.3-1.8c0.2-0.5,0.5-1,0.9-1.5c0.4-0.4,0.8-0.8,1.3-1s1.1-0.4,1.6-0.4c0.7,0,1.4,0.2,2,0.6s1,0.9,1.4,1.4v-5.5h1.2
	v11c0,0.3,0.1,0.5,0.4,0.5v1c-0.1,0-0.3,0-0.4,0c-0.3,0-0.5-0.1-0.7-0.3s-0.3-0.4-0.3-0.6v-0.9c-0.4,0.6-0.9,1.1-1.5,1.4
	C407.1,135.1,406.4,135.3,405.8,135.3z M406,134.3c0.3,0,0.6-0.1,0.9-0.2c0.3-0.1,0.6-0.3,0.9-0.5s0.5-0.4,0.7-0.7s0.3-0.6,0.4-0.9
	v-2.8c-0.1-0.3-0.3-0.6-0.5-0.9c-0.2-0.3-0.5-0.5-0.8-0.7s-0.6-0.4-0.9-0.5s-0.6-0.2-0.9-0.2c-0.5,0-0.9,0.1-1.3,0.3
	c-0.4,0.2-0.7,0.5-1,0.8s-0.5,0.7-0.6,1.2c-0.1,0.4-0.2,0.9-0.2,1.3c0,0.5,0.1,0.9,0.3,1.4c0.2,0.4,0.4,0.8,0.7,1.1
	c0.3,0.3,0.7,0.6,1.1,0.8C405.1,134.2,405.6,134.3,406,134.3L406,134.3z"/>
<path class="st1" d="M419.9,135.3c-0.8,0.1-1.7-0.3-2.2-1c-0.5-0.9-0.8-1.9-0.7-2.9v-5.2h1.2v5.1c0,2,0.7,3,2.1,3
	c0.3,0,0.7-0.1,1-0.2c0.3-0.1,0.6-0.3,0.9-0.5s0.5-0.5,0.8-0.8c0.2-0.3,0.4-0.6,0.5-1v-5.6h1.2v7.4c0,0.3,0.1,0.5,0.4,0.5v1h-0.3
	h-0.2c-0.3,0-0.5-0.1-0.7-0.3s-0.3-0.5-0.3-0.7v-1c-0.4,0.7-0.9,1.2-1.6,1.6C421.4,135.1,420.7,135.3,419.9,135.3z"/>
<path class="st1" d="M430.3,135.3c-0.7,0-1.4-0.1-2-0.4c-0.6-0.2-1.2-0.5-1.7-1l0.5-0.8c0.5,0.4,1,0.7,1.5,0.9s1.1,0.3,1.7,0.3
	s1.2-0.1,1.7-0.4c0.4-0.3,0.7-0.7,0.6-1.3c0-0.2-0.1-0.4-0.2-0.6c-0.1-0.2-0.3-0.3-0.5-0.4c-0.3-0.1-0.5-0.3-0.8-0.3
	c-0.3-0.1-0.7-0.2-1.2-0.3s-0.9-0.2-1.3-0.4c-0.3-0.1-0.6-0.2-0.9-0.4c-0.2-0.1-0.4-0.3-0.5-0.6s-0.2-0.6-0.2-0.9
	c0-0.4,0.1-0.8,0.3-1.2c0.2-0.3,0.4-0.6,0.7-0.9c0.3-0.2,0.7-0.4,1.1-0.5c1-0.3,2.2-0.2,3.2,0.2c0.5,0.2,1,0.5,1.4,0.9L433,128
	c-0.3-0.3-0.8-0.6-1.2-0.8c-0.5-0.2-1-0.3-1.5-0.3c-0.3,0-0.6,0-0.9,0.1c-0.2,0.1-0.5,0.2-0.7,0.3c-0.4,0.3-0.7,0.8-0.6,1.3
	c0,0.2,0,0.4,0.1,0.6c0.1,0.2,0.2,0.3,0.4,0.4c0.2,0.1,0.5,0.2,0.7,0.3c0.3,0.1,0.6,0.2,1,0.3c0.6,0.1,1.1,0.3,1.5,0.4
	c0.4,0.1,0.8,0.3,1.1,0.5c0.3,0.2,0.5,0.4,0.7,0.7s0.2,0.7,0.2,1c0,0.8-0.3,1.5-1,2C432.1,135.2,431.2,135.4,430.3,135.3z"/>
<path class="st1" d="M439.6,135.3c-0.6,0-1.2-0.1-1.8-0.4c-0.5-0.2-1-0.6-1.4-1s-0.7-0.9-0.9-1.5c-0.2-0.6-0.3-1.2-0.3-1.8
	c0-1.2,0.4-2.4,1.3-3.2c1.3-1.3,3.3-1.7,5-1c0.5,0.2,1,0.6,1.4,1s0.7,0.9,0.9,1.5c0.2,0.6,0.3,1.2,0.3,1.8v0.3c0,0.1,0,0.1,0,0.2
	h-7.7c0.1,0.9,0.4,1.7,1.1,2.4c0.3,0.3,0.6,0.5,1,0.7s0.8,0.2,1.2,0.3c0.3,0,0.6,0,0.9-0.1s0.5-0.2,0.8-0.3c0.2-0.1,0.5-0.3,0.6-0.5
	c0.2-0.2,0.3-0.4,0.5-0.7l1,0.3c-0.1,0.3-0.3,0.6-0.6,0.9c-0.3,0.3-0.6,0.5-0.9,0.7s-0.7,0.4-1.1,0.5
	C440.4,135.3,440,135.3,439.6,135.3z M442.9,130.2c0-0.5-0.1-0.9-0.3-1.3c-0.2-0.4-0.4-0.7-0.7-1c-0.3-0.3-0.6-0.5-1-0.7
	c-0.8-0.3-1.7-0.3-2.5,0c-0.4,0.2-0.7,0.4-1,0.7c-0.3,0.3-0.5,0.6-0.7,1s-0.3,0.9-0.3,1.3H442.9z"/>
<path class="st1" d="M450.2,124.3v-1.7h1.2v1.7H450.2z M450.2,135.1v-9h1.2v9H450.2z"/>
<path class="st1" d="M461.4,135.1h-1.2v-5c0.1-0.8-0.1-1.6-0.5-2.3c-0.3-0.5-0.9-0.8-1.5-0.7c-0.3,0-0.7,0.1-1,0.2s-0.7,0.3-1,0.5
	s-0.6,0.5-0.8,0.8c-0.2,0.3-0.4,0.6-0.5,1v5.5h-1.2v-9h1.1v2c0.8-1.3,2.2-2.2,3.8-2.2c0.4,0,0.9,0.1,1.3,0.3
	c0.3,0.2,0.6,0.4,0.8,0.8c0.2,0.4,0.4,0.8,0.5,1.2c0.1,0.5,0.1,1.1,0.1,1.6L461.4,135.1z"/>
<path class="st1" d="M260.1,151.3c0-0.6,0.1-1.2,0.3-1.8c0.2-0.5,0.5-1,0.9-1.5c0.4-0.4,0.9-0.8,1.4-1c0.6-0.2,1.2-0.4,1.8-0.4
	c0.8,0,1.5,0.2,2.2,0.6c0.6,0.4,1.1,0.9,1.4,1.6l-1.1,0.4c-0.2-0.4-0.6-0.8-1.1-1.1s-1-0.4-1.5-0.4c-0.4,0-0.9,0.1-1.3,0.3
	s-0.7,0.4-1,0.8c-0.3,0.3-0.5,0.7-0.7,1.1c-0.2,0.5-0.3,0.9-0.3,1.4s0.1,1,0.3,1.4c0.2,0.4,0.4,0.8,0.7,1.2c0.3,0.3,0.6,0.6,1,0.8
	s0.8,0.3,1.3,0.3c0.3,0,0.6,0,0.9-0.1s0.5-0.2,0.8-0.3c0.2-0.1,0.4-0.3,0.6-0.5s0.3-0.4,0.4-0.6l1.1,0.3c-0.1,0.3-0.3,0.6-0.5,0.9
	c-0.2,0.3-0.5,0.5-0.9,0.7c-0.3,0.2-0.7,0.4-1.1,0.5s-0.8,0.2-1.2,0.2c-0.6,0-1.2-0.1-1.8-0.4c-1.1-0.5-1.9-1.4-2.4-2.5
	C260.2,152.5,260.1,151.9,260.1,151.3z"/>
<path class="st1" d="M273.9,155.9c-0.6,0-1.2-0.1-1.8-0.4c-0.5-0.2-1-0.6-1.4-1s-0.7-0.9-0.9-1.5c-0.2-0.6-0.3-1.2-0.3-1.8
	s0.1-1.2,0.3-1.8c0.2-0.5,0.5-1,0.9-1.5c0.4-0.4,0.9-0.8,1.4-1c0.6-0.3,1.2-0.4,1.8-0.4c0.6,0,1.2,0.1,1.8,0.4c0.5,0.2,1,0.6,1.4,1
	c0.8,0.9,1.3,2.1,1.3,3.3c0,0.6-0.1,1.2-0.3,1.8c-0.2,0.5-0.5,1-0.9,1.5C276.3,155.5,275.1,156,273.9,155.9L273.9,155.9z
	 M270.6,151.3c0,0.5,0.1,1,0.3,1.4c0.2,0.4,0.4,0.8,0.7,1.1c0.3,0.3,0.6,0.6,1,0.8c0.8,0.4,1.7,0.4,2.5,0c0.4-0.2,0.7-0.5,1-0.8
	c1-1.1,1.2-2.6,0.7-4c-0.2-0.4-0.4-0.8-0.7-1.1c-0.3-0.3-0.6-0.6-1-0.8s-0.8-0.3-1.3-0.3c-0.4,0-0.9,0.1-1.3,0.3s-0.7,0.5-1,0.8
	C271,149.4,270.6,150.3,270.6,151.3L270.6,151.3z"/>
<path class="st1" d="M293.6,155.8h-1.2v-5c0.1-0.8-0.1-1.6-0.5-2.3c-0.3-0.5-0.9-0.8-1.5-0.7c-0.3,0-0.7,0.1-1,0.2
	c-0.3,0.1-0.6,0.3-0.8,0.5c-0.3,0.2-0.5,0.5-0.7,0.8s-0.3,0.6-0.5,1v5.5h-1.2v-5c0.1-0.8-0.1-1.6-0.5-2.3c-0.3-0.5-0.9-0.8-1.5-0.7
	c-0.7,0-1.3,0.2-1.8,0.7s-0.9,1.1-1.1,1.9v5.5h-1.2V147h1.1v2c0.3-0.7,0.8-1.2,1.4-1.6c0.6-0.4,1.3-0.6,2-0.6s1.3,0.2,1.8,0.6
	c0.5,0.4,0.8,1,0.8,1.7c0.6-1.4,1.9-2.3,3.5-2.3c0.4,0,0.9,0.1,1.3,0.3c0.3,0.2,0.6,0.4,0.8,0.8c0.2,0.4,0.4,0.8,0.5,1.2
	c0.1,0.5,0.2,1.1,0.1,1.6L293.6,155.8z"/>
<path class="st1" d="M300.5,155.9c-0.7,0-1.4-0.2-2-0.5s-1-0.8-1.4-1.4v1.7h-1v-12.5h1.2v5.5c0.4-0.6,0.9-1.1,1.4-1.5
	c1.1-0.7,2.5-0.7,3.6-0.2c0.5,0.2,0.9,0.6,1.3,1c0.4,0.5,0.6,1,0.8,1.5c0.2,0.6,0.3,1.1,0.3,1.7c0,0.6-0.1,1.2-0.3,1.8
	c-0.2,0.5-0.5,1-0.9,1.5c-0.4,0.4-0.8,0.8-1.4,1C301.6,155.8,301.1,155.9,300.5,155.9z M300.2,154.9c0.5,0,0.9-0.1,1.4-0.3
	c0.4-0.2,0.8-0.5,1-0.8c0.3-0.3,0.5-0.7,0.7-1.1c0.2-0.4,0.2-0.9,0.3-1.3c0-0.5-0.1-0.9-0.2-1.4c-0.1-0.4-0.4-0.8-0.6-1.2
	c-0.3-0.3-0.6-0.6-1-0.8s-0.8-0.3-1.3-0.3c-0.3,0-0.7,0.1-1,0.2c-0.3,0.1-0.6,0.3-0.9,0.5s-0.5,0.5-0.7,0.7
	c-0.2,0.3-0.4,0.5-0.5,0.9v2.8c0,0.3,0.2,0.6,0.4,0.9c0.2,0.3,0.4,0.5,0.7,0.7c0.3,0.2,0.6,0.4,0.9,0.5
	C299.6,154.9,299.9,154.9,300.2,154.9L300.2,154.9z"/>
<path class="st1" d="M306.7,144.9v-1.7h1.2v1.7H306.7z M306.7,155.8v-8.9h1.2v8.9H306.7z"/>
<path class="st1" d="M317.9,155.8h-1.2v-5c0.1-0.8-0.1-1.6-0.5-2.3c-0.3-0.5-0.9-0.8-1.5-0.7c-0.3,0-0.7,0.1-1,0.2
	c-0.3,0.1-0.7,0.3-1,0.5s-0.6,0.5-0.8,0.8c-0.2,0.3-0.4,0.6-0.5,1v5.5h-1.2v-8.9h1.1v2c0.4-0.7,0.9-1.2,1.6-1.6
	c0.7-0.4,1.4-0.6,2.2-0.6c0.4,0,0.9,0.1,1.3,0.3c0.3,0.2,0.6,0.4,0.8,0.8c0.2,0.4,0.4,0.8,0.4,1.2c0.1,0.5,0.1,1.1,0.1,1.6
	L317.9,155.8z"/>
<path class="st1" d="M322.7,155.9c-0.4,0-0.8-0.1-1.2-0.2c-0.3-0.1-0.7-0.3-0.9-0.6c-0.3-0.2-0.5-0.5-0.6-0.9
	c-0.1-0.3-0.2-0.7-0.2-1.1c0-0.4,0.1-0.8,0.3-1.1c0.2-0.3,0.5-0.6,0.8-0.9c0.4-0.3,0.8-0.4,1.2-0.6c0.5-0.1,1-0.2,1.5-0.2
	s0.9,0,1.4,0.1c0.4,0.1,0.9,0.2,1.3,0.3v-0.8c0-0.7-0.2-1.4-0.7-1.9s-1.2-0.7-1.9-0.7c-0.5,0-1,0.1-1.4,0.3c-0.5,0.2-1,0.5-1.5,0.8
	l-0.4-0.8c1-0.7,2.2-1.1,3.4-1.2c1-0.1,1.9,0.3,2.6,0.9c0.7,0.7,1,1.6,1,2.6v4c0,0.3,0.1,0.5,0.4,0.5v1c-0.1,0-0.3,0.1-0.5,0.1
	c-0.3,0-0.5-0.1-0.7-0.2c-0.2-0.2-0.3-0.4-0.3-0.6V154c-0.4,0.5-0.9,1-1.5,1.2C324.1,155.8,323.4,155.9,322.7,155.9z M323,155
	c0.6,0,1.1-0.1,1.7-0.3c0.5-0.2,0.9-0.5,1.2-0.9c0.1-0.1,0.2-0.2,0.2-0.3s0.1-0.2,0.1-0.3v-1.5c-0.4-0.1-0.8-0.3-1.2-0.3
	c-0.4-0.1-0.9-0.1-1.3-0.1c-0.7,0-1.4,0.1-2,0.5c-0.5,0.3-0.8,0.8-0.8,1.4c0,0.3,0.1,0.5,0.2,0.8c0.1,0.2,0.3,0.5,0.5,0.6
	c0.2,0.2,0.4,0.3,0.7,0.4C322.4,155,322.7,155,323,155L323,155z"/>
<path class="st1" d="M334,155.3l-0.3,0.1c-0.3,0.1-0.7,0.2-1,0.3c-0.2,0-0.5,0.1-0.7,0.1s-0.5,0-0.7-0.1s-0.4-0.2-0.6-0.3
	c-0.2-0.2-0.3-0.3-0.4-0.5s-0.2-0.5-0.1-0.8v-6.4H329v-0.9h1.2v-3h1.2v3h2.1v0.9h-2.1v6.1c0,0.3,0.1,0.6,0.4,0.7
	c0.2,0.2,0.5,0.2,0.7,0.2c0.3,0,0.6-0.1,0.9-0.2c0.2-0.1,0.3-0.1,0.5-0.2L334,155.3z"/>
<path class="st1" d="M335.5,144.9v-1.7h1.2v1.7H335.5z M335.5,155.8v-8.9h1.2v8.9H335.5z"/>
<path class="st1" d="M343,155.9c-0.6,0-1.2-0.1-1.8-0.4c-0.5-0.2-1-0.6-1.4-1s-0.7-0.9-0.9-1.5c-0.2-0.6-0.3-1.2-0.3-1.8
	s0.1-1.2,0.3-1.8c0.2-0.5,0.5-1,0.9-1.5c0.4-0.4,0.9-0.8,1.4-1c0.6-0.3,1.2-0.4,1.8-0.4c0.6,0,1.2,0.1,1.8,0.4c0.5,0.2,1,0.6,1.4,1
	s0.7,0.9,0.9,1.5c0.2,0.6,0.3,1.2,0.3,1.8s-0.1,1.2-0.3,1.8c-0.4,1.1-1.2,2-2.3,2.5C344.2,155.8,343.6,155.9,343,155.9z
	 M339.8,151.3c0,0.5,0.1,1,0.3,1.4c0.2,0.4,0.4,0.8,0.7,1.1c0.3,0.3,0.6,0.6,1,0.8c0.8,0.4,1.7,0.4,2.5,0c0.4-0.2,0.7-0.5,1-0.8
	s0.5-0.7,0.7-1.1c0.3-0.9,0.3-1.9,0-2.8c-0.2-0.4-0.4-0.8-0.7-1.1c-0.3-0.3-0.6-0.6-1-0.8s-0.8-0.3-1.3-0.3c-0.4,0-0.9,0.1-1.3,0.3
	s-0.7,0.5-1,0.8s-0.5,0.7-0.7,1.2C339.9,150.4,339.8,150.8,339.8,151.3L339.8,151.3z"/>
<path class="st1" d="M357,155.8h-1.2v-5c0.1-0.8-0.1-1.6-0.5-2.3c-0.3-0.5-0.9-0.8-1.5-0.7c-0.3,0-0.7,0.1-1,0.2
	c-0.3,0.1-0.7,0.3-1,0.5s-0.6,0.5-0.8,0.8c-0.2,0.3-0.4,0.6-0.5,1v5.5h-1.2v-8.9h1.1v2c0.4-0.7,0.9-1.2,1.6-1.6
	c0.7-0.4,1.4-0.6,2.2-0.6c0.4,0,0.9,0.1,1.3,0.3c0.3,0.2,0.6,0.4,0.8,0.8c0.2,0.4,0.4,0.8,0.4,1.2c0.1,0.5,0.1,1.1,0.1,1.6
	L357,155.8z"/>
<path class="st1" d="M374.6,146.8h1.1l-3.8,8.9h-1l-1.9-4.6l-1.9,4.6h-1l-3.8-8.9h1.1l3.3,7.7l1.7-4.1l-1.5-3.6h1l1.2,2.9l1.2-2.9h1
	l-1.5,3.6l1.7,4.1L374.6,146.8z"/>
<path class="st1" d="M377.3,144.9v-1.7h1.2v1.7H377.3z M377.3,155.8v-8.9h1.2v8.9H377.3z"/>
<path class="st1" d="M385.4,155.3l-0.3,0.1c-0.3,0.1-0.7,0.2-1,0.3c-0.2,0-0.5,0.1-0.7,0.1s-0.5,0-0.7-0.1s-0.4-0.2-0.6-0.3
	c-0.4-0.3-0.6-0.8-0.6-1.3v-6.4h-1.2v-0.9h1.2v-3h1.2v3h2.1v0.9h-2.1v6.1c0,0.3,0.1,0.6,0.4,0.7c0.2,0.2,0.5,0.2,0.7,0.2
	c0.3,0,0.6-0.1,0.9-0.2c0.2-0.1,0.3-0.1,0.5-0.2L385.4,155.3z"/>
<path class="st1" d="M394.4,155.8h-1.2v-5c0.1-0.8-0.1-1.6-0.5-2.3c-0.3-0.5-0.9-0.8-1.5-0.8c-0.3,0-0.7,0.1-1,0.2
	c-0.3,0.1-0.6,0.3-0.9,0.6c-0.3,0.2-0.5,0.5-0.7,0.8s-0.4,0.6-0.5,1v5.5h-1.2v-12.5h1.2v5.6c0.3-0.7,0.9-1.2,1.5-1.6
	c0.6-0.4,1.3-0.6,2-0.6c0.4,0,0.9,0.1,1.3,0.3s0.7,0.5,0.9,0.8c0.2,0.4,0.4,0.8,0.5,1.2c0.1,0.5,0.2,1,0.2,1.6L394.4,155.8z"/>
<path class="st1" d="M403.5,155.9c-0.4,0-0.8-0.1-1.2-0.2c-0.3-0.1-0.7-0.3-0.9-0.6c-0.3-0.2-0.5-0.5-0.6-0.9
	c-0.1-0.3-0.2-0.7-0.2-1.1c0-0.4,0.1-0.8,0.3-1.1c0.2-0.3,0.5-0.6,0.8-0.9c0.4-0.3,0.8-0.4,1.2-0.6c0.5-0.1,1-0.2,1.5-0.2
	s0.9,0,1.4,0.1c0.4,0.1,0.9,0.2,1.3,0.3v-0.8c0-0.7-0.2-1.4-0.7-1.9s-1.2-0.7-1.9-0.7c-0.5,0-1,0.1-1.4,0.3c-0.5,0.2-1,0.5-1.5,0.8
	l-0.4-0.8c1-0.7,2.2-1.1,3.4-1.2c1-0.1,1.9,0.3,2.6,0.9c0.7,0.7,1,1.6,1,2.6v4c0,0.3,0.1,0.5,0.4,0.5v1c-0.1,0-0.3,0.1-0.4,0.1
	c-0.3,0-0.5-0.1-0.7-0.2c-0.2-0.2-0.3-0.4-0.3-0.6V154c-0.4,0.5-0.9,1-1.5,1.2C404.9,155.8,404.2,155.9,403.5,155.9z M403.7,155
	c0.6,0,1.2-0.1,1.7-0.3s0.9-0.5,1.2-0.9c0.1-0.1,0.2-0.2,0.2-0.3s0.1-0.2,0.1-0.3v-1.5c-0.4-0.1-0.8-0.3-1.2-0.3
	c-0.4-0.1-0.9-0.1-1.3-0.1c-0.7,0-1.4,0.1-2,0.5c-0.5,0.3-0.8,0.8-0.8,1.4c0,0.3,0.1,0.5,0.2,0.8c0.1,0.2,0.3,0.5,0.4,0.6
	c0.2,0.2,0.4,0.3,0.7,0.4C403.2,155,403.5,155,403.7,155L403.7,155z"/>
<path class="st1" d="M410.6,143.2h1.2v10.5c0,0.3,0.1,0.6,0.3,0.8c0.2,0.2,0.5,0.3,0.8,0.3c0.1,0,0.3,0,0.4,0c0.2,0,0.3-0.1,0.5-0.1
	l0.2,1c-0.3,0.1-0.5,0.2-0.8,0.2c-0.3,0.1-0.5,0.1-0.8,0.1c-0.5,0-0.9-0.1-1.3-0.5c-0.3-0.3-0.5-0.8-0.5-1.3L410.6,143.2z"/>
<path class="st1" d="M415.3,143.2h1.2v10.5c0,0.3,0.1,0.6,0.3,0.8c0.2,0.2,0.5,0.3,0.8,0.3c0.1,0,0.3,0,0.4,0c0.2,0,0.3-0.1,0.5-0.1
	l0.2,1c-0.3,0.1-0.5,0.2-0.8,0.2c-0.3,0.1-0.5,0.1-0.8,0.1c-0.9,0.1-1.7-0.6-1.7-1.5c0-0.1,0-0.2,0-0.3L415.3,143.2z"/>
<path class="st1" d="M427.6,155.9c-0.6,0-1.2-0.1-1.8-0.4c-1.1-0.5-1.9-1.4-2.3-2.5c-0.2-0.6-0.3-1.2-0.3-1.8s0.1-1.2,0.3-1.8
	c0.2-0.5,0.5-1,0.9-1.5c0.4-0.4,0.9-0.8,1.4-1c0.6-0.3,1.2-0.4,1.8-0.4c0.6,0,1.2,0.1,1.8,0.4c0.5,0.2,1,0.6,1.4,1s0.7,0.9,0.9,1.5
	c0.2,0.6,0.3,1.2,0.3,1.8s-0.1,1.2-0.3,1.8C431.1,154.8,429.4,155.9,427.6,155.9L427.6,155.9z M424.3,151.3c0,0.5,0.1,1,0.3,1.4
	c0.2,0.4,0.4,0.8,0.7,1.1c0.3,0.3,0.6,0.6,1,0.8c0.8,0.4,1.7,0.4,2.5,0c0.4-0.2,0.7-0.5,1-0.8s0.5-0.7,0.7-1.1
	c0.3-0.9,0.3-1.9,0-2.8c-0.2-0.4-0.4-0.8-0.7-1.1c-0.3-0.3-0.6-0.6-1-0.8c-0.8-0.4-1.7-0.4-2.5,0c-0.4,0.2-0.7,0.5-1,0.8
	s-0.5,0.7-0.7,1.2C424.4,150.4,424.3,150.8,424.3,151.3L424.3,151.3z"/>
<path class="st1" d="M434.3,155.8v-8H433v-0.9h1.2v-0.2c0-0.9,0.2-1.8,0.8-2.6c0.4-0.6,1.2-1,1.9-0.9c0.3,0,0.7,0.1,1,0.1
	c0.3,0.1,0.6,0.2,0.9,0.4l-0.4,0.9c-0.2-0.1-0.4-0.2-0.6-0.3s-0.5-0.1-0.7-0.1c-0.5,0-1,0.2-1.3,0.6c-0.3,0.6-0.5,1.2-0.4,1.8v0.3
	h2.5v0.9h-2.5v8H434.3z"/>
<path class="st1" d="M443.6,158.5h0.3h0.3c0.2,0,0.3,0,0.5-0.1s0.3-0.2,0.4-0.4c0.1-0.3,0.3-0.6,0.4-0.8c0.1-0.4,0.4-0.9,0.6-1.5
	l-3.9-8.9h1.2l3.3,7.9l3.1-7.9h1.1l-4.6,11.5c-0.1,0.3-0.4,0.6-0.6,0.9c-0.3,0.3-0.8,0.4-1.2,0.4H444c-0.1,0-0.3,0-0.4-0.1V158.5z"
	/>
<path class="st1" d="M455.9,155.9c-0.6,0-1.2-0.1-1.8-0.4c-0.5-0.2-1-0.6-1.4-1s-0.7-0.9-0.9-1.5c-0.2-0.6-0.3-1.2-0.3-1.8
	s0.1-1.2,0.3-1.8c0.2-0.5,0.5-1.1,0.9-1.5s0.9-0.8,1.4-1c0.6-0.3,1.2-0.4,1.8-0.4c0.6,0,1.2,0.1,1.8,0.4c0.5,0.2,1,0.6,1.4,1
	s0.7,0.9,0.9,1.5c0.2,0.6,0.3,1.2,0.3,1.8s-0.1,1.2-0.3,1.8c-0.2,0.5-0.5,1-0.9,1.5C458.2,155.5,457.1,156,455.9,155.9L455.9,155.9z
	 M452.6,151.3c0,0.5,0.1,1,0.3,1.4c0.2,0.4,0.4,0.8,0.7,1.1c0.3,0.3,0.6,0.6,1,0.8s0.8,0.3,1.3,0.3c0.4,0,0.9-0.1,1.3-0.3
	s0.7-0.5,1-0.8c1-1.1,1.2-2.6,0.7-4c-0.2-0.4-0.4-0.8-0.7-1.1c-0.3-0.3-0.6-0.6-1-0.8s-0.8-0.3-1.3-0.3c-0.4,0-0.9,0.1-1.3,0.3
	s-0.7,0.5-1,0.8C452.9,149.4,452.6,150.3,452.6,151.3L452.6,151.3z"/>
<path class="st1" d="M465.1,155.9c-0.8,0-1.7-0.3-2.2-1c-0.5-0.9-0.8-1.9-0.7-2.9v-5.3h1.2v5.1c0,2,0.7,3,2.1,3c0.3,0,0.7-0.1,1-0.2
	c0.3-0.1,0.6-0.3,0.9-0.5s0.5-0.5,0.8-0.8c0.2-0.3,0.4-0.6,0.5-1v-5.6h1.2v7.4c0,0.3,0.1,0.5,0.4,0.5v1c-0.1,0-0.2,0-0.3,0h-0.2
	c-0.3,0-0.5-0.1-0.7-0.3s-0.3-0.5-0.3-0.7v-1c-0.4,0.7-0.9,1.2-1.6,1.6C466.6,155.7,465.8,155.9,465.1,155.9z"/>
<path class="st1" d="M476.9,147.8c-0.7,0-1.5,0.2-2.1,0.6c-0.6,0.4-1,1-1.2,1.7v5.6h-1.2v-8.9h1.1v2.2c0.3-0.6,0.8-1.2,1.3-1.6
	c0.5-0.4,1.2-0.6,1.8-0.6h0.2v1H476.9z"/>
<path class="st1" d="M265.3,176.5c-0.7,0-1.4-0.2-2-0.6c-0.6-0.4-1-0.9-1.4-1.4v5.5h-1.2v-12.6h1v1.7c0.4-0.6,0.9-1,1.4-1.4
	c0.6-0.3,1.2-0.5,1.9-0.5c0.6,0,1.2,0.1,1.7,0.4c0.5,0.2,1,0.6,1.3,1c0.4,0.4,0.7,0.9,0.9,1.5c0.2,0.6,0.3,1.1,0.3,1.7
	c0,0.6-0.1,1.2-0.3,1.8c-0.2,0.5-0.5,1-0.8,1.5c-0.4,0.4-0.8,0.8-1.3,1C266.4,176.4,265.9,176.5,265.3,176.5z M265,175.5
	c0.5,0,0.9-0.1,1.3-0.3s0.7-0.5,1-0.8s0.5-0.7,0.6-1.1c0.1-0.4,0.2-0.9,0.2-1.3c0-0.5-0.1-0.9-0.3-1.4c-0.2-0.4-0.4-0.8-0.7-1.1
	c-0.3-0.3-0.7-0.6-1.1-0.8s-0.9-0.3-1.3-0.3c-0.3,0-0.6,0.1-0.9,0.2c-0.3,0.1-0.6,0.3-0.9,0.5s-0.5,0.4-0.7,0.7
	c-0.2,0.2-0.3,0.5-0.4,0.9v2.8c0.1,0.3,0.3,0.6,0.5,0.9c0.2,0.3,0.5,0.5,0.7,0.7c0.3,0.2,0.6,0.4,0.9,0.5
	C264.3,175.5,264.7,175.5,265,175.5L265,175.5z"/>
<path class="st1" d="M273.6,176.5c-0.4,0-0.8-0.1-1.2-0.2c-0.3-0.1-0.7-0.3-0.9-0.6c-0.3-0.2-0.5-0.5-0.6-0.9
	c-0.1-0.3-0.2-0.7-0.2-1.1c0-0.4,0.1-0.8,0.3-1.1c0.2-0.3,0.5-0.6,0.8-0.9c0.4-0.3,0.8-0.4,1.2-0.6c0.5-0.1,1-0.2,1.5-0.2
	s0.9,0,1.4,0.1c0.4,0.1,0.9,0.2,1.3,0.3v-0.8c0-0.7-0.2-1.4-0.7-1.9s-1.2-0.7-1.9-0.7c-0.5,0-1,0.1-1.4,0.3c-0.5,0.2-1,0.5-1.5,0.8
	l-0.4-0.8c1-0.7,2.2-1.1,3.4-1.2c1,0,1.9,0.3,2.6,1s1,1.6,1,2.6v4c0,0.3,0.1,0.5,0.4,0.5v1c-0.1,0-0.3,0-0.4,0
	c-0.3,0-0.5-0.1-0.7-0.2c-0.2-0.2-0.3-0.4-0.3-0.6v-0.7c-0.4,0.5-0.9,1-1.5,1.2C275,176.4,274.3,176.5,273.6,176.5z M273.8,175.6
	c0.6,0,1.2-0.1,1.7-0.3s0.9-0.5,1.2-0.9c0.1-0.1,0.2-0.2,0.2-0.3s0.1-0.2,0.1-0.3v-1.5c-0.4-0.1-0.8-0.3-1.2-0.3
	c-0.4-0.1-0.9-0.1-1.3-0.1c-0.7,0-1.4,0.1-2,0.5c-0.5,0.3-0.8,0.8-0.8,1.4c0,0.3,0.1,0.5,0.2,0.8c0.1,0.2,0.3,0.5,0.4,0.6
	c0.2,0.2,0.4,0.3,0.7,0.4C273.3,175.6,273.6,175.6,273.8,175.6L273.8,175.6z"/>
<path class="st1" d="M283.7,176.5c-0.7,0-1.4-0.1-2-0.3s-1.2-0.6-1.7-1l0.5-0.8c0.5,0.4,1,0.7,1.5,0.9s1.1,0.3,1.7,0.3
	s1.2-0.1,1.7-0.4c0.4-0.3,0.6-0.7,0.6-1.2c0-0.2,0-0.4-0.2-0.6c-0.1-0.2-0.3-0.3-0.5-0.4c-0.3-0.1-0.6-0.3-0.9-0.3
	c-0.3-0.1-0.7-0.2-1.2-0.3s-0.9-0.2-1.3-0.4c-0.3-0.1-0.6-0.2-0.9-0.4c-0.2-0.1-0.4-0.3-0.5-0.6s-0.2-0.6-0.2-0.9
	c0-0.4,0.1-0.8,0.3-1.2c0.2-0.3,0.4-0.6,0.7-0.9c0.3-0.2,0.7-0.4,1.1-0.5s0.9-0.2,1.3-0.2c0.6,0,1.3,0.1,1.9,0.3
	c0.5,0.2,1,0.5,1.4,0.9l-0.6,0.7c-0.3-0.3-0.8-0.6-1.2-0.8c-0.5-0.2-1-0.3-1.5-0.3c-0.3,0-0.6,0-0.9,0.1s-0.5,0.2-0.7,0.3
	s-0.4,0.3-0.5,0.5s-0.2,0.5-0.2,0.7s0,0.4,0.1,0.6c0.1,0.2,0.2,0.3,0.4,0.4c0.2,0.1,0.5,0.2,0.7,0.3c0.3,0.1,0.6,0.2,1,0.3
	c0.6,0.1,1.1,0.3,1.5,0.4c0.4,0.1,0.8,0.3,1.1,0.5c0.3,0.2,0.5,0.4,0.7,0.7s0.2,0.7,0.2,1c0,0.8-0.3,1.5-1,2
	C285.4,176.4,284.5,176.6,283.7,176.5z"/>
<path class="st1" d="M292,176.5c-0.7,0-1.4-0.1-2-0.3s-1.2-0.6-1.7-1l0.5-0.8c0.5,0.4,1,0.7,1.5,0.9s1.1,0.3,1.7,0.3
	s1.2-0.1,1.7-0.4c0.4-0.3,0.7-0.7,0.6-1.3c0-0.2-0.1-0.4-0.2-0.6c-0.1-0.2-0.3-0.3-0.5-0.4c-0.3-0.1-0.5-0.3-0.8-0.3
	c-0.3-0.1-0.7-0.2-1.2-0.3s-1-0.3-1.3-0.4c-0.3-0.1-0.6-0.2-0.9-0.4c-0.2-0.1-0.4-0.3-0.5-0.6s-0.2-0.6-0.2-0.9
	c0-0.4,0.1-0.8,0.3-1.2c0.2-0.3,0.4-0.6,0.7-0.9c0.3-0.2,0.7-0.4,1.1-0.5s0.9-0.2,1.3-0.2c0.6,0,1.3,0.1,1.9,0.3
	c0.5,0.2,1,0.5,1.4,0.9l-0.6,0.7c-0.3-0.3-0.8-0.6-1.2-0.8c-0.5-0.2-1-0.3-1.5-0.3c-0.3,0-0.6,0-0.9,0.1c-0.2,0.1-0.5,0.2-0.7,0.3
	s-0.4,0.3-0.5,0.5s-0.2,0.5-0.2,0.7s0,0.4,0.1,0.6c0.1,0.2,0.2,0.3,0.4,0.4c0.2,0.1,0.4,0.2,0.7,0.3c0.3,0.1,0.6,0.2,1,0.3
	c0.6,0.1,1.1,0.3,1.5,0.4c0.4,0.1,0.8,0.3,1.1,0.5c0.3,0.2,0.5,0.4,0.7,0.7s0.2,0.7,0.2,1c0,0.8-0.3,1.5-0.9,2
	C293.8,176.4,292.9,176.6,292,176.5z"/>
<path class="st1" d="M308.5,167.4h1.1l-3.8,9h-1l-1.9-4.6l-1.9,4.5h-1l-3.9-9h1.1l3.3,7.7l1.7-4.1l-1.5-3.6h1l1.2,2.9l1.2-2.9h1
	l-1.5,3.6l1.7,4.1L308.5,167.4z"/>
<path class="st1" d="M314.7,176.5c-0.6,0-1.2-0.1-1.8-0.4c-0.5-0.2-1-0.6-1.4-1s-0.7-0.9-0.9-1.5c-0.2-0.6-0.3-1.2-0.3-1.8
	s0.1-1.2,0.3-1.8c0.2-0.5,0.5-1.1,0.9-1.5s0.9-0.8,1.4-1c0.6-0.3,1.2-0.4,1.8-0.4c0.6,0,1.2,0.1,1.8,0.4c0.5,0.2,1,0.6,1.4,1
	s0.7,0.9,0.9,1.5c0.2,0.6,0.3,1.2,0.3,1.8s-0.1,1.2-0.3,1.8c-0.2,0.5-0.5,1-0.9,1.5c-0.4,0.4-0.9,0.8-1.4,1
	C315.9,176.4,315.3,176.6,314.7,176.5z M311.5,171.9c0,0.5,0.1,0.9,0.3,1.4c0.2,0.4,0.4,0.8,0.7,1.1c0.3,0.3,0.6,0.6,1,0.8
	c0.8,0.4,1.7,0.4,2.5,0c0.4-0.2,0.7-0.5,1-0.8s0.5-0.7,0.7-1.1c0.3-0.9,0.3-1.9,0-2.8c-0.2-0.4-0.4-0.8-0.7-1.1
	c-0.3-0.3-0.6-0.6-1-0.8s-0.8-0.3-1.3-0.3c-0.4,0-0.9,0.1-1.3,0.3s-0.7,0.5-1,0.8C311.8,170.1,311.4,171,311.5,171.9L311.5,171.9z"
	/>
<path class="st1" d="M325.6,168.4c-0.7,0-1.5,0.2-2.1,0.6c-0.6,0.4-1,1-1.2,1.7v5.6h-1.2v-9h1.1v2.1c0.3-0.6,0.8-1.2,1.3-1.6
	c0.5-0.4,1.2-0.6,1.8-0.6h0.2v1.2H325.6z"/>
<path class="st1" d="M330.4,176.5c-0.6,0-1.2-0.1-1.7-0.4c-0.5-0.2-1-0.6-1.4-1c-0.8-0.9-1.2-2-1.2-3.2c0-0.6,0.1-1.2,0.3-1.8
	c0.2-0.5,0.5-1,0.9-1.5c0.4-0.4,0.8-0.8,1.3-1s1.1-0.4,1.6-0.4c0.7,0,1.4,0.2,2,0.6c0.6,0.4,1,0.9,1.4,1.4v-5.5h1.2v11
	c0,0.3,0.1,0.5,0.4,0.5v1c-0.1,0-0.3,0-0.4,0c-0.3,0-0.5-0.1-0.7-0.3s-0.3-0.4-0.3-0.6v-0.9c-0.3,0.6-0.8,1.1-1.4,1.4
	C331.7,176.3,331,176.5,330.4,176.5z M330.6,175.5c0.3,0,0.6-0.1,0.9-0.2c0.3-0.1,0.6-0.3,0.9-0.5s0.5-0.4,0.7-0.7s0.3-0.6,0.4-0.9
	v-2.8c-0.1-0.3-0.3-0.6-0.5-0.9c-0.2-0.3-0.5-0.5-0.8-0.7s-0.6-0.4-0.9-0.5s-0.7-0.2-1-0.2c-0.5,0-0.9,0.1-1.3,0.3s-0.7,0.5-1,0.8
	s-0.5,0.7-0.6,1.2c-0.2,0.4-0.2,0.9-0.2,1.3c0,0.5,0.1,0.9,0.3,1.4c0.2,0.4,0.4,0.8,0.7,1.1c0.3,0.3,0.7,0.6,1,0.8
	C329.7,175.4,330.2,175.5,330.6,175.5L330.6,175.5z"/>
<path class="st1" d="M340.3,176.5c-0.7,0-1.4-0.1-2-0.3s-1.2-0.6-1.7-1l0.5-0.8c0.5,0.4,1,0.7,1.5,0.9s1.1,0.3,1.7,0.3
	s1.2-0.1,1.7-0.4c0.4-0.3,0.7-0.8,0.6-1.3c0-0.2-0.1-0.4-0.2-0.6c-0.1-0.2-0.3-0.3-0.5-0.4c-0.3-0.1-0.5-0.3-0.8-0.3
	c-0.3-0.1-0.7-0.2-1.2-0.3s-1-0.3-1.3-0.4c-0.3-0.1-0.6-0.2-0.9-0.4c-0.2-0.1-0.4-0.3-0.5-0.6s-0.2-0.6-0.2-0.9
	c0-0.4,0.1-0.8,0.3-1.2c0.2-0.3,0.4-0.6,0.7-0.9c0.3-0.2,0.7-0.4,1.1-0.5s0.9-0.2,1.3-0.2c0.6,0,1.3,0.1,1.9,0.3
	c0.5,0.2,1,0.5,1.4,0.9l-0.6,0.7c-0.3-0.3-0.8-0.6-1.2-0.8c-0.5-0.2-1-0.3-1.5-0.3c-0.3,0-0.6,0-0.9,0.1c-0.2,0.1-0.5,0.2-0.7,0.3
	s-0.4,0.3-0.5,0.5s-0.2,0.5-0.2,0.7s0,0.4,0.1,0.6c0.1,0.2,0.2,0.3,0.4,0.4c0.2,0.1,0.5,0.2,0.7,0.3c0.3,0.1,0.6,0.2,1,0.3
	c0.6,0.1,1.1,0.3,1.5,0.4c0.4,0.1,0.8,0.3,1.1,0.5c0.3,0.2,0.5,0.4,0.7,0.7s0.2,0.7,0.2,1c0,0.8-0.3,1.5-0.9,2
	C342.1,176.4,341.2,176.6,340.3,176.5z"/>
<path class="st1" d="M345.9,177.8l0.3-1.4h-0.4v-1.6h1.2v1.6l-0.4,1.4H345.9z"/>
<path class="st1" d="M356.2,176.5c-0.8,0-1.5-0.3-2.1-0.8c-0.3-0.2-0.5-0.5-0.6-0.9c-0.1-0.3-0.2-0.7-0.2-1.1c0-0.4,0.1-0.8,0.3-1.1
	c0.2-0.3,0.5-0.6,0.8-0.9c0.4-0.3,0.8-0.4,1.2-0.6c0.5-0.1,1-0.2,1.5-0.2s0.9,0,1.4,0.1c0.4,0.1,0.8,0.2,1.3,0.3v-0.8
	c0-0.7-0.2-1.4-0.7-1.9s-1.2-0.7-1.9-0.7c-0.5,0-1,0.1-1.4,0.3c-0.5,0.2-1,0.5-1.5,0.8l-0.4-0.8c1-0.7,2.1-1.1,3.4-1.2
	c1,0,1.9,0.3,2.6,1s1,1.6,1,2.6v4c0,0.3,0.1,0.5,0.4,0.5v1c-0.1,0-0.3,0-0.5,0s-0.5-0.1-0.7-0.2c-0.2-0.2-0.3-0.4-0.3-0.6v-0.7
	c-0.4,0.5-0.9,1-1.6,1.2C357.7,176.4,356.9,176.5,356.2,176.5z M356.5,175.6c0.6,0,1.1-0.1,1.7-0.3c0.5-0.2,0.9-0.5,1.2-0.9
	c0.1-0.1,0.2-0.2,0.2-0.3c0.1-0.1,0.1-0.2,0.1-0.3v-1.5c-0.4-0.1-0.8-0.3-1.2-0.3c-0.4-0.1-0.9-0.1-1.3-0.1c-0.7,0-1.4,0.1-2,0.5
	c-0.5,0.3-0.8,0.8-0.8,1.4c0,0.3,0.1,0.5,0.2,0.8c0.1,0.2,0.3,0.5,0.5,0.6c0.2,0.2,0.4,0.3,0.7,0.4
	C355.9,175.6,356.2,175.6,356.5,175.6z"/>
<path class="st1" d="M370.9,176.4h-1.2v-5c0.1-0.8-0.1-1.6-0.5-2.3c-0.3-0.5-0.9-0.8-1.5-0.7c-0.3,0-0.7,0.1-1,0.2
	c-0.4,0.1-0.7,0.3-1,0.5s-0.6,0.5-0.8,0.8c-0.2,0.3-0.4,0.6-0.5,1v5.5h-1.2v-9h1.1v2c0.4-0.7,0.9-1.2,1.6-1.6
	c0.7-0.4,1.4-0.6,2.2-0.6c0.4,0,0.9,0.1,1.3,0.3c0.3,0.2,0.6,0.4,0.8,0.8c0.2,0.4,0.4,0.8,0.5,1.2c0.1,0.5,0.1,1.1,0.1,1.6
	L370.9,176.4z"/>
<path class="st1" d="M377,176.5c-0.6,0-1.2-0.1-1.7-0.4c-0.5-0.2-1-0.6-1.4-1c-0.8-0.9-1.2-2-1.2-3.2c0-0.6,0.1-1.2,0.3-1.8
	c0.2-0.5,0.5-1,0.9-1.5c0.4-0.4,0.8-0.8,1.3-1s1.1-0.4,1.6-0.4c0.7,0,1.4,0.2,2,0.6c0.6,0.4,1,0.9,1.4,1.4v-5.5h1.2v11
	c0,0.3,0.1,0.5,0.4,0.5v1c-0.1,0-0.3,0-0.4,0c-0.3,0-0.5-0.1-0.7-0.3s-0.3-0.4-0.3-0.6v-0.9C379.6,175.7,378.4,176.4,377,176.5
	L377,176.5z M377.3,175.5c0.3,0,0.6-0.1,0.9-0.2c0.3-0.1,0.6-0.3,0.9-0.5s0.5-0.4,0.7-0.7s0.3-0.6,0.4-0.9v-2.8
	c-0.1-0.3-0.3-0.6-0.5-0.9c-0.2-0.3-0.4-0.5-0.7-0.7c-0.3-0.2-0.6-0.4-0.9-0.5s-0.6-0.2-1-0.2c-0.5,0-0.9,0.1-1.3,0.3
	s-0.7,0.5-1,0.8s-0.5,0.7-0.6,1.2c-0.1,0.4-0.2,0.9-0.2,1.3c0,0.9,0.4,1.8,1,2.5c0.3,0.3,0.7,0.6,1.1,0.8
	C376.4,175.4,376.9,175.5,377.3,175.5L377.3,175.5z"/>
<path class="st1" d="M395.9,176.4h-1.2v-5c0.1-0.8-0.1-1.6-0.5-2.3c-0.3-0.5-0.9-0.8-1.5-0.7c-0.3,0-0.7,0.1-1,0.2
	c-0.4,0.1-0.7,0.3-1,0.5s-0.6,0.5-0.8,0.8c-0.2,0.3-0.4,0.6-0.5,1v5.5h-1.2v-9h1.1v2c0.4-0.7,0.9-1.2,1.6-1.6
	c0.7-0.4,1.4-0.6,2.2-0.6c0.4,0,0.9,0.1,1.3,0.3c0.3,0.2,0.6,0.4,0.8,0.8c0.2,0.4,0.4,0.8,0.4,1.2c0.1,0.5,0.1,1.1,0.1,1.6
	L395.9,176.4z"/>
<path class="st1" d="M402.3,176.5c-0.6,0-1.2-0.1-1.8-0.4c-1.7-0.8-2.7-2.5-2.7-4.3c0-1.2,0.4-2.4,1.3-3.2c0.4-0.4,0.9-0.8,1.4-1
	c0.6-0.2,1.2-0.4,1.8-0.4c0.6,0,1.2,0.1,1.8,0.4c0.5,0.2,1,0.6,1.4,1c0.8,0.9,1.2,2,1.2,3.2v0.3c0,0.1,0,0.1,0,0.2H399
	c0,0.5,0.1,0.9,0.3,1.3c0.2,0.4,0.4,0.8,0.7,1.1c0.6,0.6,1.4,0.9,2.3,0.9c0.3,0,0.6,0,0.9-0.1s0.5-0.2,0.8-0.3
	c0.2-0.1,0.5-0.3,0.7-0.5s0.3-0.4,0.4-0.7l1,0.3c-0.1,0.3-0.3,0.6-0.6,0.9c-0.3,0.3-0.5,0.5-0.9,0.7c-0.3,0.2-0.7,0.4-1.1,0.5
	C403.1,176.5,402.7,176.5,402.3,176.5z M405.6,171.4c0-0.5-0.1-0.9-0.3-1.3c-0.2-0.4-0.4-0.7-0.7-1c-0.3-0.3-0.6-0.5-1-0.7
	s-0.8-0.2-1.2-0.2c-0.8,0-1.7,0.3-2.3,0.9c-0.3,0.3-0.5,0.6-0.7,1s-0.3,0.9-0.3,1.3H405.6z"/>
<path class="st1" d="M410.9,176.4l-3.6-9h1.2l3.1,7.9l3.1-7.9h1.1l-3.6,9H410.9z"/>
<path class="st1" d="M421,176.5c-0.6,0-1.2-0.1-1.8-0.4c-0.5-0.2-1-0.6-1.4-1c-0.8-0.9-1.3-2.1-1.3-3.3c0-0.6,0.1-1.2,0.3-1.8
	c0.2-0.5,0.5-1,0.9-1.5c0.4-0.4,0.9-0.8,1.4-1c1.1-0.5,2.4-0.5,3.6,0c0.5,0.2,1,0.6,1.4,1c0.8,0.9,1.2,2,1.2,3.2v0.3
	c0,0.1,0,0.1,0,0.2h-7.7c0.1,0.9,0.4,1.7,1.1,2.4c0.3,0.3,0.6,0.5,1,0.7s0.8,0.3,1.2,0.3c0.3,0,0.6,0,0.9-0.1s0.5-0.2,0.8-0.3
	c0.2-0.1,0.5-0.3,0.6-0.5c0.2-0.2,0.3-0.4,0.5-0.7l1,0.3c-0.1,0.3-0.3,0.6-0.6,0.9c-0.3,0.3-0.6,0.5-0.9,0.7s-0.7,0.4-1.1,0.5
	C421.8,176.5,421.4,176.5,421,176.5z M424.3,171.4c-0.1-0.9-0.4-1.7-1.1-2.3c-0.3-0.3-0.6-0.5-1-0.7s-0.8-0.2-1.2-0.2
	c-0.8,0-1.7,0.3-2.3,0.9c-0.3,0.3-0.5,0.6-0.7,1s-0.3,0.9-0.3,1.3H424.3z"/>
<path class="st1" d="M431.6,168.4c-0.7,0-1.5,0.2-2.1,0.6c-0.6,0.4-1,1-1.2,1.7v5.6h-1.2v-9h1.1v2.1c0.3-0.6,0.8-1.2,1.3-1.6
	c0.5-0.4,1.2-0.6,1.8-0.6h0.2v1.2H431.6z"/>
<path class="st1" d="M440.8,176.5c-0.6,0-1.2-0.1-1.7-0.4c-0.5-0.2-0.9-0.6-1.3-1s-0.7-0.9-0.9-1.5c-0.2-0.5-0.3-1.1-0.3-1.7
	c0-0.6,0.1-1.2,0.3-1.8c0.2-0.5,0.5-1,0.9-1.5c0.4-0.4,0.8-0.8,1.3-1c0.5-0.3,1.1-0.4,1.7-0.4c0.7,0,1.4,0.2,2,0.6
	c0.6,0.4,1.1,0.9,1.4,1.4v-1.9h1v9c0,0.6-0.1,1.1-0.4,1.6c-0.2,0.5-0.6,0.9-1,1.2s-0.9,0.6-1.4,0.7c-0.5,0.2-1.1,0.3-1.7,0.3
	c-0.9,0-1.7-0.2-2.5-0.6c-0.6-0.4-1.1-0.9-1.5-1.5l0.7-0.6c0.3,0.6,0.8,1,1.4,1.3s1.2,0.4,1.9,0.4c0.4,0,0.8-0.1,1.2-0.2
	c0.4-0.1,0.7-0.3,1-0.5s0.5-0.6,0.7-0.9c0.2-0.4,0.3-0.8,0.3-1.3v-1.8c-0.3,0.6-0.8,1-1.4,1.4C442.1,176.3,441.4,176.5,440.8,176.5z
	 M441.1,175.5c0.3,0,0.7-0.1,1-0.2c0.3-0.1,0.6-0.3,0.9-0.5s0.5-0.4,0.7-0.7c0.2-0.2,0.3-0.5,0.4-0.8v-2.8c-0.1-0.3-0.3-0.6-0.5-0.9
	c-0.2-0.3-0.5-0.5-0.7-0.7c-0.3-0.2-0.6-0.3-0.9-0.5c-0.3-0.1-0.7-0.2-1-0.2c-0.5,0-0.9,0.1-1.4,0.3c-0.4,0.2-0.7,0.5-1,0.8
	s-0.5,0.7-0.6,1.2c-0.1,0.4-0.2,0.9-0.2,1.3c0,0.5,0.1,0.9,0.3,1.4c0.2,0.4,0.4,0.8,0.7,1.1c0.3,0.3,0.7,0.6,1,0.8
	C440.2,175.4,440.6,175.5,441.1,175.5L441.1,175.5z"/>
<path class="st1" d="M447.8,165.5v-1.7h1.2v1.7H447.8z M447.8,176.4v-9h1.2v9H447.8z"/>
<path class="st1" d="M454.2,176.4l-3.6-9h1.2l3.1,7.9l3.1-7.9h1.1l-3.6,9H454.2z"/>
<path class="st1" d="M464.3,176.5c-0.6,0-1.2-0.1-1.8-0.4c-0.5-0.2-1-0.6-1.4-1c-0.8-0.9-1.3-2.1-1.3-3.3s0.4-2.4,1.3-3.2
	c1.3-1.3,3.3-1.7,5-1c0.5,0.2,1,0.6,1.4,1c0.8,0.9,1.2,2,1.2,3.2v0.3c0,0.1,0,0.1,0,0.2H461c0.1,0.9,0.4,1.7,1.1,2.4
	c0.3,0.3,0.6,0.5,1,0.7s0.8,0.3,1.2,0.3c0.3,0,0.6,0,0.9-0.1s0.5-0.2,0.8-0.3c0.2-0.1,0.5-0.3,0.6-0.5c0.2-0.2,0.3-0.4,0.5-0.7
	l1,0.3c-0.1,0.3-0.3,0.6-0.6,0.9c-0.3,0.3-0.6,0.5-0.9,0.7s-0.7,0.4-1.1,0.5C465.1,176.5,464.7,176.5,464.3,176.5z M467.5,171.4
	c-0.1-0.9-0.4-1.7-1.1-2.3c-0.3-0.3-0.6-0.5-1-0.7s-0.8-0.2-1.2-0.2c-0.4,0-0.8,0.1-1.2,0.2c-0.4,0.2-0.7,0.4-1,0.7s-0.5,0.6-0.7,1
	s-0.3,0.9-0.3,1.3H467.5z"/>
<path class="st1" d="M265,196.6l-0.3,0.1l-0.5,0.2l-0.6,0.1c-0.2,0-0.5,0.1-0.7,0.1s-0.5,0-0.7-0.1s-0.4-0.2-0.6-0.3
	c-0.2-0.2-0.3-0.3-0.4-0.5s-0.2-0.5-0.1-0.8V189h-1.2v-1h1.2v-3h1.2v3h2.1v1h-2.1v6c0,0.3,0.1,0.5,0.4,0.7c0.2,0.2,0.5,0.2,0.7,0.2
	c0.3,0,0.6-0.1,0.9-0.2c0.2-0.1,0.3-0.1,0.5-0.2L265,196.6z"/>
<path class="st1" d="M270.1,197.1c-0.6,0-1.2-0.1-1.8-0.4c-0.5-0.2-1-0.6-1.4-1s-0.7-0.9-0.9-1.5c-0.4-1.1-0.4-2.4,0-3.6
	c0.2-0.5,0.5-1.1,0.9-1.5s0.9-0.8,1.4-1c0.6-0.3,1.2-0.4,1.8-0.4c0.6,0,1.2,0.1,1.8,0.4c0.5,0.2,1,0.6,1.4,1s0.7,0.9,0.9,1.5
	c0.4,1.1,0.4,2.4,0,3.6c-0.2,0.5-0.5,1-0.9,1.5c-0.4,0.4-0.9,0.8-1.4,1C271.3,197,270.7,197.2,270.1,197.1z M266.8,192.5
	c0,0.5,0.1,1,0.3,1.4c0.2,0.4,0.4,0.8,0.7,1.1c0.3,0.3,0.6,0.6,1,0.8s0.8,0.3,1.3,0.3c0.4,0,0.9-0.1,1.3-0.3s0.7-0.5,1-0.8
	c0.9-1.1,1.2-2.6,0.7-3.9c-0.2-0.4-0.4-0.8-0.7-1.1c-0.3-0.3-0.6-0.6-1-0.8s-0.8-0.3-1.3-0.3c-0.4,0-0.9,0.1-1.3,0.3s-0.7,0.5-1,0.8
	s-0.5,0.7-0.7,1.2C266.9,191.6,266.8,192.1,266.8,192.5z"/>
<path class="st1" d="M283.1,197.1c-0.4,0-0.8-0.1-1.2-0.2c-0.3-0.1-0.7-0.3-0.9-0.6c-0.3-0.3-0.5-0.6-0.6-0.9
	c-0.2-0.3-0.2-0.7-0.2-1.1c0-0.4,0.1-0.8,0.3-1.1c0.2-0.3,0.5-0.6,0.8-0.9c0.4-0.3,0.8-0.4,1.2-0.6c0.5-0.1,1-0.2,1.5-0.2
	s0.9,0,1.4,0.1c0.4,0.1,0.9,0.2,1.3,0.3v-0.8c0-0.7-0.2-1.4-0.7-1.9s-1.2-0.7-1.9-0.7c-0.5,0-1,0.1-1.4,0.3c-0.5,0.2-1,0.5-1.5,0.8
	l-0.4-0.8c1-0.7,2.2-1.1,3.4-1.2c1-0.1,1.9,0.3,2.6,0.9c0.7,0.7,1,1.6,1,2.6v4c0,0.3,0.1,0.5,0.4,0.5v1c-0.1,0-0.3,0-0.5,0.1
	c-0.3,0-0.5-0.1-0.7-0.2c-0.2-0.2-0.3-0.4-0.3-0.6v-0.7c-0.4,0.5-0.9,1-1.5,1.2C284.5,197,283.8,197.1,283.1,197.1z M283.4,196.3
	c0.6,0,1.1-0.1,1.7-0.3c0.5-0.2,0.9-0.5,1.2-0.9c0.1-0.1,0.2-0.2,0.2-0.3s0.1-0.2,0.1-0.3V193c-0.4-0.1-0.8-0.3-1.2-0.3
	c-0.4-0.1-0.9-0.1-1.3-0.1c-0.7,0-1.4,0.1-2,0.5c-0.5,0.3-0.8,0.8-0.8,1.4c0,0.3,0.1,0.5,0.2,0.8c0.1,0.2,0.3,0.5,0.5,0.6
	c0.2,0.2,0.4,0.3,0.7,0.4C282.8,196.2,283.1,196.3,283.4,196.3L283.4,196.3z"/>
<path class="st1" d="M297.7,197h-1.2v-5c0.1-0.8-0.1-1.6-0.5-2.3c-0.3-0.5-0.9-0.8-1.5-0.7c-0.3,0-0.7,0.1-1,0.2
	c-0.3,0.1-0.7,0.3-1,0.5s-0.6,0.5-0.8,0.8c-0.2,0.3-0.4,0.6-0.5,1v5.5H290v-9h1.1v2c0.4-0.7,0.9-1.2,1.6-1.6
	c0.7-0.4,1.4-0.6,2.2-0.6c0.4,0,0.9,0.1,1.3,0.3c0.3,0.2,0.6,0.4,0.8,0.8c0.2,0.4,0.4,0.8,0.5,1.2c0.1,0.5,0.1,1.1,0.1,1.6
	L297.7,197z"/>
<path class="st1" d="M300.5,199.7h0.3h0.3c0.2,0,0.3,0,0.5-0.1s0.3-0.2,0.4-0.4c0.1-0.3,0.3-0.6,0.4-0.8c0.1-0.4,0.3-0.9,0.6-1.5
	l-4-8.9h1.2l3.3,7.9l3.1-7.9h1.1l-4.6,11.5c-0.1,0.3-0.4,0.6-0.6,0.9c-0.3,0.3-0.8,0.4-1.2,0.4H301c-0.1,0-0.3,0-0.4-0.1v-1H300.5z"
	/>
<path class="st1" d="M312.8,197.1c-0.6,0-1.2-0.1-1.8-0.4c-0.5-0.2-1-0.6-1.4-1s-0.7-0.9-0.9-1.5c-0.4-1.1-0.4-2.4,0-3.6
	c0.2-0.5,0.5-1,0.9-1.5c0.4-0.4,0.9-0.8,1.4-1c0.6-0.3,1.2-0.4,1.8-0.4c0.6,0,1.2,0.1,1.8,0.4c0.5,0.2,1,0.6,1.4,1s0.7,0.9,0.9,1.5
	c0.2,0.6,0.3,1.2,0.3,1.8s-0.1,1.2-0.3,1.8c-0.2,0.5-0.5,1-0.9,1.5c-0.4,0.4-0.9,0.8-1.4,1C314.1,197,313.5,197.2,312.8,197.1z
	 M309.6,192.5c0,0.5,0.1,1,0.3,1.4c0.2,0.4,0.4,0.8,0.7,1.1c0.3,0.3,0.6,0.6,1,0.8s0.8,0.3,1.3,0.3c0.4,0,0.9-0.1,1.3-0.3
	s0.7-0.5,1-0.8c0.9-1.1,1.2-2.6,0.7-3.9c-0.2-0.4-0.4-0.8-0.7-1.1c-0.3-0.3-0.6-0.6-1-0.8s-0.8-0.3-1.3-0.3c-0.4,0-0.9,0.1-1.3,0.3
	s-0.7,0.5-1,0.8s-0.5,0.7-0.7,1.2C309.7,191.6,309.6,192.1,309.6,192.5z"/>
<path class="st1" d="M326.8,197h-1.2v-5c0.1-0.8-0.1-1.6-0.5-2.3c-0.3-0.5-0.9-0.8-1.5-0.7c-0.3,0-0.7,0.1-1,0.2
	c-0.4,0.1-0.7,0.3-1,0.5s-0.6,0.5-0.8,0.8c-0.2,0.3-0.4,0.6-0.5,1v5.5h-1.2v-9h1.1v2c0.4-0.7,0.9-1.2,1.6-1.6
	c0.7-0.4,1.4-0.6,2.2-0.6c0.4,0,0.9,0.1,1.3,0.3c0.3,0.2,0.6,0.4,0.8,0.8c0.2,0.4,0.4,0.8,0.4,1.2c0.1,0.5,0.1,1.1,0.1,1.6
	L326.8,197z"/>
<path class="st1" d="M333.1,197.1c-1.2,0-2.4-0.5-3.2-1.4c-0.4-0.4-0.7-0.9-0.9-1.5c-0.2-0.6-0.3-1.2-0.3-1.8c0-1.2,0.4-2.4,1.3-3.2
	c0.4-0.4,0.9-0.8,1.4-1c1.1-0.5,2.4-0.5,3.6,0c0.5,0.2,1,0.6,1.4,1c0.8,0.9,1.2,2,1.2,3.2v0.3c0,0.1,0,0.1,0,0.2h-7.7
	c0,0.5,0.1,0.9,0.3,1.3c0.2,0.4,0.4,0.8,0.7,1.1c0.8,0.8,2,1.1,3.1,0.8c0.6-0.1,1.1-0.4,1.5-0.8c0.2-0.2,0.3-0.4,0.4-0.7l1,0.3
	c-0.1,0.3-0.3,0.6-0.6,0.9c-0.3,0.3-0.6,0.5-0.9,0.7s-0.7,0.4-1.1,0.5C334,197.1,333.5,197.1,333.1,197.1z M336.4,192
	c0-0.5-0.1-0.9-0.3-1.3c-0.2-0.4-0.4-0.7-0.7-1c-0.3-0.3-0.6-0.5-1-0.7s-0.8-0.2-1.2-0.2c-0.4,0-0.8,0.1-1.2,0.2
	c-0.8,0.3-1.4,0.9-1.7,1.7c-0.2,0.4-0.3,0.9-0.3,1.3H336.4z"/>
<path class="st1" d="M339.2,197v-1.7h1v1.7H339.2z"/>
<path class="st1" d="M365.1,64.1c-2.9,0-5.3-2.4-5.3-5.3s2.4-5.3,5.3-5.3c2.9,0,5.3,2.4,5.3,5.3S368,64.1,365.1,64.1z M365.1,54.5
	c-2.4,0-4.3,1.9-4.3,4.3s1.9,4.3,4.3,4.3s4.3-1.9,4.3-4.3S367.5,54.5,365.1,54.5z"/>
<path class="st1" d="M365.1,88.1c-2.9,0-5.3-2.4-5.3-5.3s2.4-5.3,5.3-5.3c2.9,0,5.3,2.4,5.3,5.3S368,88.1,365.1,88.1z M365.1,78.5
	c-2.4,0-4.3,1.9-4.3,4.3s1.9,4.3,4.3,4.3s4.3-1.9,4.3-4.3S367.5,78.5,365.1,78.5z"/>
<rect x="364.3" y="63" class="st1" width="1" height="15.5"/>
<path class="st1" d="M151.1,64.1c-2.9,0-5.3-2.4-5.3-5.3s2.4-5.3,5.3-5.3s5.3,2.4,5.3,5.3S154,64.1,151.1,64.1z M151.1,54.5
	c-2.4,0-4.3,1.9-4.3,4.3s1.9,4.3,4.3,4.3s4.3-1.9,4.3-4.3S153.5,54.5,151.1,54.5z"/>
<path class="st1" d="M151.1,127.1c-2.9,0-5.3-2.4-5.3-5.3s2.4-5.3,5.3-5.3s5.3,2.4,5.3,5.3S154,127.1,151.1,127.1z M151.1,117.5
	c-2.4,0-4.3,1.9-4.3,4.3s1.9,4.3,4.3,4.3s4.3-1.9,4.3-4.3S153.5,117.5,151.1,117.5z"/>
<rect x="150.6" y="63" class="st1" width="1" height="53.5"/>
<path class="st2" d="M19.4,207.5h-6.1c-7.1,0-12.9-5.8-12.9-12.9V13.4c0-7.1,5.8-12.9,12.9-12.9h459.2c7.1,0,12.9,5.8,12.9,12.9
	v181.2c0,7.1-5.8,12.9-12.9,12.9H114.8"/>
<path class="st1" d="M35.2,211.1c-0.7,0-1.4-0.1-2-0.4c-0.6-0.3-1.1-0.6-1.6-1.1c-0.4-0.5-0.8-1-1-1.6s-0.4-1.3-0.4-2s0.1-1.4,0.4-2
	c0.2-0.6,0.6-1.1,1-1.6s1-0.8,1.6-1.1c0.6-0.3,1.3-0.4,2-0.4s1.4,0.1,2,0.4c0.6,0.3,1.1,0.6,1.5,1.1c0.9,1,1.4,2.2,1.4,3.6v0.3
	c0,0.1,0,0.1,0,0.2h-8.5c0,0.5,0.2,1,0.4,1.5c0.2,0.4,0.5,0.8,0.8,1.2c0.3,0.3,0.7,0.6,1.1,0.8c0.4,0.2,0.9,0.3,1.4,0.3
	c0.3,0,0.6,0,1-0.1c0.3-0.1,0.6-0.2,0.9-0.4c0.3-0.1,0.5-0.3,0.7-0.6c0.2-0.2,0.4-0.5,0.5-0.7l1.1,0.3c-0.2,0.4-0.4,0.7-0.7,1
	s-0.6,0.6-1,0.8s-0.8,0.4-1.2,0.5C36.1,211,35.6,211.1,35.2,211.1z M38.8,205.4c0-0.5-0.2-1-0.4-1.5c-0.2-0.4-0.5-0.8-0.8-1.1
	s-0.7-0.6-1.1-0.7c-0.4-0.2-0.9-0.3-1.4-0.3s-0.9,0.1-1.4,0.3c-0.4,0.2-0.8,0.4-1.1,0.7s-0.6,0.7-0.8,1.1c-0.2,0.5-0.3,1-0.3,1.4
	h7.3V205.4z"/>
<path class="st1" d="M41.9,201l3,3.9l0.2,0.3l0.2-0.3l3-3.9h1.4l-3.8,5l3.8,4.9h-1.4l-3-3.9l-0.2-0.3l-0.2,0.3l-3,3.9h-1.3l3.8-4.9
	l-3.8-5H41.9z"/>
<path class="st1" d="M53.7,211.1c-0.4,0-0.9-0.1-1.3-0.2c-0.4-0.1-0.7-0.4-1-0.6c-0.3-0.3-0.5-0.6-0.7-1s-0.3-0.8-0.3-1.2
	s0.1-0.8,0.3-1.2s0.5-0.7,0.8-1c0.4-0.3,0.8-0.5,1.3-0.6c0.5-0.2,1.1-0.2,1.7-0.2c0.5,0,1,0,1.5,0.1s0.9,0.2,1.4,0.4v-0.9
	c0-0.8-0.2-1.5-0.7-2.1c-0.5-0.5-1.3-0.8-2-0.8c-0.5,0-1.1,0.1-1.6,0.3c-0.6,0.2-1.1,0.5-1.6,0.9l-0.5-0.9c1.1-0.8,2.4-1.2,3.7-1.3
	c1.1-0.1,2.1,0.3,2.9,1c0.7,0.8,1.1,1.8,1.1,2.9v4.5c0,0.4,0.2,0.5,0.5,0.5v1.1c-0.2,0-0.3,0.1-0.5,0.1c-0.3,0-0.6-0.1-0.8-0.3
	s-0.3-0.4-0.3-0.7v-0.8c-0.5,0.6-1,1.1-1.7,1.4C55.3,210.9,54.5,211.1,53.7,211.1z M54,210.1c0.6,0,1.3-0.1,1.9-0.4
	c0.5-0.2,1-0.6,1.3-1c0.1-0.1,0.2-0.2,0.3-0.4c0.1-0.1,0.1-0.2,0.1-0.4v-1.6c-0.4-0.2-0.9-0.3-1.3-0.4c-0.5-0.1-0.9-0.1-1.4-0.1
	c-0.8,0-1.6,0.2-2.2,0.6c-0.5,0.3-0.9,0.9-0.8,1.5c0,0.3,0.1,0.6,0.2,0.9c0.1,0.3,0.3,0.5,0.5,0.7s0.5,0.4,0.7,0.5
	C53.3,210.1,53.7,210.1,54,210.1L54,210.1z"/>
<path class="st1" d="M76.2,210.9H75v-5.5c0.1-0.9-0.1-1.8-0.6-2.6c-0.4-0.5-1-0.8-1.6-0.8c-0.4,0-0.7,0.1-1.1,0.2
	c-0.3,0.1-0.7,0.3-0.9,0.6c-0.3,0.3-0.5,0.6-0.8,0.9c-0.2,0.4-0.4,0.7-0.5,1.1v6h-1.3v-5.5c0.1-0.9-0.1-1.8-0.5-2.6
	c-0.4-0.5-1-0.8-1.6-0.8c-0.7,0-1.5,0.3-2,0.8c-0.6,0.6-1,1.3-1.3,2.1v6.1h-1.3V201h1.2v2.2c0.4-0.7,0.9-1.3,1.6-1.8
	c0.6-0.4,1.4-0.6,2.2-0.6c0.7,0,1.5,0.2,2,0.7s0.8,1.1,0.9,1.9c0.7-1.5,2.2-2.5,3.8-2.6c0.5,0,1,0.1,1.4,0.3s0.7,0.5,0.9,0.9
	c0.2,0.4,0.4,0.9,0.5,1.4c0.1,0.6,0.2,1.2,0.2,1.8L76.2,210.9z"/>
<path class="st1" d="M84,211.1c-0.8,0-1.6-0.2-2.2-0.6c-0.6-0.4-1.2-1-1.6-1.6v6.1H79v-14h1.2v1.9c0.4-0.6,0.9-1.1,1.6-1.5
	c0.6-0.4,1.4-0.6,2.1-0.6s1.3,0.1,1.9,0.4c0.6,0.3,1.1,0.7,1.5,1.1c0.4,0.5,0.8,1,1,1.6s0.4,1.3,0.3,1.9c0,0.7-0.1,1.4-0.3,2
	c-0.2,0.6-0.5,1.2-0.9,1.6c-0.4,0.5-0.9,0.8-1.4,1.1C85.3,211,84.7,211.1,84,211.1z M83.7,210c0.5,0,1-0.1,1.4-0.3s0.8-0.5,1.1-0.9
	c0.3-0.4,0.6-0.8,0.7-1.3c0.2-0.5,0.2-1,0.2-1.5c0-1-0.4-2-1.1-2.8c-0.3-0.4-0.7-0.7-1.2-0.9s-0.9-0.3-1.4-0.3c-0.3,0-0.7,0.1-1,0.2
	c-0.4,0.1-0.7,0.3-1,0.5s-0.6,0.5-0.8,0.8c-0.2,0.3-0.4,0.6-0.4,0.9v3c0.1,0.4,0.3,0.7,0.6,1c0.2,0.3,0.5,0.6,0.8,0.8
	s0.6,0.4,0.9,0.5C83,209.9,83.3,210,83.7,210z"/>
<path class="st1" d="M90.8,197.1h1.3v11.6c0,0.3,0.1,0.6,0.3,0.9c0.2,0.2,0.5,0.3,0.9,0.3c0.2,0,0.3,0,0.5-0.1
	c0.2,0,0.4-0.1,0.5-0.1l0.2,1c-0.3,0.1-0.6,0.2-0.9,0.3s-0.6,0.1-0.9,0.1c-1,0.1-1.8-0.6-1.9-1.6c0-0.1,0-0.2,0-0.3V197.1z"/>
<path class="st1" d="M100.1,211.1c-0.7,0-1.4-0.1-2-0.4c-0.6-0.3-1.1-0.6-1.6-1.1c-0.4-0.5-0.8-1-1-1.6s-0.4-1.3-0.4-2
	s0.1-1.4,0.4-2c0.2-0.6,0.6-1.1,1-1.6s1-0.8,1.6-1.1s1.3-0.4,2-0.4s1.4,0.1,2,0.4c0.6,0.3,1.1,0.6,1.6,1.1c0.9,1,1.4,2.2,1.4,3.6
	v0.3c0,0.1,0,0.1,0,0.2h-8.5c0,0.5,0.2,1,0.4,1.5c0.2,0.4,0.5,0.8,0.8,1.2c0.3,0.3,0.7,0.6,1.1,0.8s0.9,0.3,1.4,0.3
	c0.3,0,0.7,0,1-0.1s0.6-0.2,0.9-0.4c0.3-0.1,0.5-0.3,0.7-0.6c0.2-0.2,0.4-0.5,0.5-0.7l1.1,0.3c-0.2,0.4-0.4,0.7-0.7,1
	c-0.3,0.3-0.6,0.6-1,0.8s-0.8,0.4-1.2,0.5C101.1,211,100.6,211.1,100.1,211.1z M103.8,205.4c0-0.5-0.2-1-0.4-1.5
	c-0.2-0.4-0.5-0.8-0.8-1.1s-0.7-0.6-1.1-0.7c-0.4-0.2-0.9-0.3-1.4-0.3s-0.9,0.1-1.4,0.3c-0.4,0.2-0.8,0.4-1.1,0.7
	c-0.3,0.3-0.6,0.7-0.8,1.1c-0.2,0.5-0.3,1-0.3,1.4L103.8,205.4z"/>
</svg>
