<?xml version="1.0" encoding="UTF-8"?>
<!DOCTYPE svg PUBLIC "-//W3C//DTD SVG 1.1//EN" "http://www.w3.org/Graphics/SVG/1.1/DTD/svg11.dtd">
<!-- Creator: CorelDRAW X8 -->
<svg xmlns="http://www.w3.org/2000/svg" xml:space="preserve" width="6.49215in" height="1.89093in" version="1.1" style="shape-rendering:geometricPrecision; text-rendering:geometricPrecision; image-rendering:optimizeQuality; fill-rule:evenodd; clip-rule:evenodd"
viewBox="0 0 6302 1836"
 xmlns:xlink="http://www.w3.org/1999/xlink">
 <defs>
  <style type="text/css">
   <![CDATA[
    .fil0 {fill:none}
    .fil1 {fill:#E02424}
    .fil2 {fill:black;fill-rule:nonzero}
    .fil3 {fill:#E02424;fill-rule:nonzero}
   ]]>
  </style>
 </defs>
 <g id="Layer_x0020_1">
  <metadata id="CorelCorpID_0Corel-Layer"/>
  <rect class="fil0" width="6302" height="1836"/>
  <g id="_1215646592">
   <path class="fil1" d="M4072 241l1750 0c116,0 211,95 211,211l0 612c0,116 -95,210 -211,210l-1511 0 0 -275c44,53 106,99 207,99 158,0 303,-122 303,-344l0 0 0 -2c0,-223 -148,-344 -303,-344 -98,0 -161,46 -207,108l0 -96 -189 0 0 854 -50 0c-116,0 -210,-94 -210,-210l0 -612c0,-116 94,-211 210,-211zm1735 179l-188 0 -109 405 -127 -407 -162 0 -126 406 -107 -404 -191 0 205 671 169 0 130 -409 128 409 170 0 208 -671zm-1175 334c0,112 -74,184 -162,184 -89,0 -162,-73 -162,-184l0 -2c0,-111 73,-184 162,-184 88,0 162,73 162,184l0 2z"/>
   <path class="fil2" d="M688 346l0 -157c-35,-11 -75,-18 -134,-18 -133,0 -206,67 -206,213l0 42 -78 0 0 156 78 0 0 504 189 0 0 -504 150 0 0 -154 -153 0 0 -26c0,-50 25,-72 68,-72 33,0 59,6 86,16z"/>
   <path class="fil3" d="M1382 754l0 -2c0,-192 -153,-344 -359,-344 -207,0 -361,155 -361,346l0 3c0,153 98,281 243,326l0 65 13 11 61 53 -61 53 -13 11 0 73 49 42 -39 33 3 2 61 53 -61 53 -13 11 0 47 117 75 117 -75 0 -507c145,-47 243,-176 243,-329zm-360 -221c52,0 94,42 94,94 0,51 -42,93 -94,93 -52,0 -94,-42 -94,-93 0,-52 42,-94 94,-94z"/>
   <path class="fil2" d="M1836 605l0 -197c-111,-5 -173,54 -212,146l0 -134 -189 0 0 666 189 0 0 -246c0,-159 77,-235 202,-235l10 0z"/>
   <path class="fil2" d="M2528 935l0 -515 -189 0 0 87c-51,-56 -112,-99 -215,-99 -152,0 -295,112 -295,310l0 3c0,197 140,310 295,310 101,0 162,-41 218,-108l0 32c0,119 -61,182 -190,182 -88,0 -157,-23 -225,-61l-65 141c85,45 187,70 295,70 247,0 371,-101 371,-352zm-186 -214c0,90 -71,154 -163,154 -92,0 -161,-62 -161,-154l0 -3c0,-90 69,-154 161,-154 92,0 163,64 163,154l0 3z"/>
   <path class="fil2" d="M3301 754l0 -2c0,-192 -152,-344 -359,-344 -207,0 -361,155 -361,346l0 3c0,191 153,344 359,344 207,0 361,-156 361,-347zm-186 3c0,98 -65,181 -173,181 -104,0 -175,-86 -175,-184l0 -2c0,-98 65,-182 173,-182 104,0 175,86 175,184l0 3z"/>
   <path class="fil2" d="M3728 1058l0 -151c-27,15 -58,23 -93,23 -42,0 -61,-21 -61,-64l0 -284 157 0 0 -162 -157 0 0 -170 -188 0 0 170 -80 0 0 162 80 0 0 315c0,154 78,200 193,200 64,0 110,-15 149,-39z"/>
  </g>
 </g>
</svg>
