<?xml version="1.0" encoding="utf-8"?>
<!-- Generator: Adobe Illustrator 23.0.1, SVG Export Plug-In . SVG Version: 6.00 Build 0)  -->
<svg version="1.1" id="Layer_1" xmlns="http://www.w3.org/2000/svg" xmlns:xlink="http://www.w3.org/1999/xlink" x="0px" y="0px"
	 viewBox="0 0 467.4 136.1" style="enable-background:new 0 0 467.4 136.1;" xml:space="preserve">
<style type="text/css">
	.st0{fill-rule:evenodd;clip-rule:evenodd;fill:#DE1A25;}
	.st1{fill:#FFFFFF;}
	.st2{fill:#DE1A25;}
</style>
<g>
	<path class="st0" d="M302,23.2h129.8c8.6,0,15.6,7,15.6,15.6v45.4c0,8.6-7,15.6-15.6,15.6h-112V79.4c3.3,3.9,7.9,7.3,15.3,7.3
		c11.7,0,22.5-9,22.5-25.5l0,0v-0.1c0-16.5-11-25.5-22.5-25.5c-7.3,0-11.9,3.4-15.3,8v-7.1h-14v63.3H302c-8.6,0-15.6-7-15.6-15.6
		V38.9C286.4,30.2,293.4,23.2,302,23.2z M430.7,36.5h-13.9l-8.1,30l-9.4-30.2h-12L378,66.4l-7.9-30h-14.2L371,86.2h12.5l9.6-30.3
		l9.5,30.3h12.6L430.7,36.5z M343.5,61.2c0,8.3-5.5,13.6-12,13.6c-6.6,0-12-5.4-12-13.6v-0.1c0-8.2,5.4-13.6,12-13.6
		C338,47.5,343.5,52.9,343.5,61.2L343.5,61.2z"/>
	<path class="st1" d="M51.1,31V19.3c-2.6-0.8-5.6-1.3-9.9-1.3c-9.9,0-15.3,5-15.3,15.8v3.1h-5.8v11.6h5.8v37.4h14V48.5H51V37.1H39.7
		v-1.9c0-3.7,1.9-5.3,5-5.3C47.1,29.8,49.1,30.2,51.1,31z"/>
	<path class="st2" d="M102.5,61.2L102.5,61.2c0-14.3-11.3-25.6-26.6-25.6S49.1,47.1,49.1,61.3v0.2c0,11.3,7.3,20.8,18,24.2v4.8
		l1,0.8l4.5,3.9l-4.5,3.9l-1,0.8v5.4l3.6,3.1l-2.9,2.4l0.2,0.1l4.5,3.9l-4.5,3.9l-1,0.8v3.5l8.7,5.6l8.7-5.6V85.6
		C95.3,82.2,102.5,72.6,102.5,61.2z M75.8,44.9c3.9,0,7,3.1,7,7c0,3.8-3.1,6.9-7,6.9s-7-3.1-7-6.9C68.9,48,72,44.9,75.8,44.9z"/>
	<path class="st1" d="M136.2,50.2V35.6c-8.2-0.4-12.8,4-15.7,10.8v-9.9h-14v49.4h14V67.6c0-11.8,5.7-17.4,15-17.4
		C135.5,50.2,136.2,50.2,136.2,50.2z"/>
	<path class="st1" d="M187.5,74.7V36.5h-14V43c-3.8-4.2-8.3-7.3-15.9-7.3c-11.3,0-21.9,8.3-21.9,23v0.2c0,14.6,10.4,23,21.9,23
		c7.5,0,12-3,16.2-8v2.4c0,8.8-4.5,13.5-14.1,13.5c-6.5,0-11.6-1.7-16.7-4.5l-4.8,10.5c6.3,3.3,13.9,5.2,21.9,5.2
		C178.3,100.8,187.5,93.3,187.5,74.7z M173.7,58.8c0,6.7-5.3,11.4-12.1,11.4s-11.9-4.6-11.9-11.4v-0.2c0-6.7,5.1-11.4,11.9-11.4
		s12.1,4.7,12.1,11.4V58.8z"/>
	<path class="st1" d="M244.8,61.2L244.8,61.2c0-14.3-11.3-25.6-26.6-25.6s-26.8,11.5-26.8,25.7v0.2c0,14.2,11.3,25.5,26.6,25.5
		C233.4,87,244.8,75.4,244.8,61.2z M231,61.5c0,7.3-4.8,13.4-12.8,13.4c-7.7,0-13-6.4-13-13.6v-0.1c0-7.3,4.8-13.5,12.8-13.5
		c7.7,0,13,6.4,13,13.6V61.5z"/>
	<path class="st1" d="M276.5,83.8V72.6c-2,1.1-4.3,1.7-6.9,1.7c-3.1,0-4.5-1.6-4.5-4.7V48.5h11.6v-12h-11.6V23.9h-13.9v12.6h-5.9v12
		h5.9v23.4c0,11.4,5.8,14.8,14.3,14.8C270.2,86.7,273.6,85.6,276.5,83.8z"/>
</g>
</svg>
