<?xml version="1.0" encoding="utf-8"?>
<!-- Generator: Adobe Illustrator 23.0.1, SVG Export Plug-In . SVG Version: 6.00 Build 0)  -->
<svg version="1.1" id="Layer_1" xmlns="http://www.w3.org/2000/svg" xmlns:xlink="http://www.w3.org/1999/xlink" x="0px" y="0px"
	 viewBox="0 0 175.6 175.6" style="enable-background:new 0 0 175.6 175.6;" xml:space="preserve">
<style type="text/css">
	.st0{opacity:0.17;fill:#DE1A25;enable-background:new    ;}
	.st1{fill:#DE1A25;}
</style>
<title>lock</title>
<path class="st0" d="M52.8,66.9c0,0-5.6-40.2,36.5-42.4c0,0,20.3-1.5,31.3,22.2c2.2,6.5,2.9,13.4,2.3,20.3h-17.5V56.8
	c0,0-2.8-14-18-14S70.5,57.4,70.5,57.4l-0.1,9.3C70.4,66.7,52.9,66.8,52.8,66.9z"/>
<path class="st1" d="M161.1,135.9c-0.1,0-0.2,0-0.3-0.1c-0.2-0.1-0.3-0.4-0.1-0.7c26.1-40.2,14.7-94-25.6-120.1
	C103.6-5.4,62.6-3.3,33.3,20.2c-0.2,0.1-0.5,0.1-0.7-0.1c-0.1-0.2-0.1-0.4,0.1-0.6C70.5-11,125.8-5,156.2,32.7
	c23.8,29.6,25.9,71.1,5.3,102.9C161.4,135.8,161.2,135.9,161.1,135.9z"/>
<path class="st1" d="M87.8,175.6C39.3,175.6,0,136.3,0,87.8c0-20.1,6.9-39.6,19.6-55.2c0.2-0.2,0.5-0.2,0.7-0.1c0,0,0,0,0,0
	c0.2,0.2,0.2,0.5,0.1,0.7c0,0,0,0,0,0c-30.2,37.3-24.4,92,12.9,122.1c15.5,12.5,34.8,19.3,54.6,19.3c19.7,0.1,38.9-6.6,54.2-19
	c0.2-0.2,0.5-0.1,0.7,0.1c0.2,0.2,0.1,0.5-0.1,0.7c0,0,0,0,0,0C127.1,168.9,107.8,175.7,87.8,175.6z"/>
<path class="st1" d="M30.7,25.2c-1.9,0-3.4-1.6-3.4-3.4c0-1.5,1-2.8,2.4-3.2c0.9-0.3,1.8-0.2,2.6,0.3c0.8,0.4,1.4,1.1,1.6,2
	c0.5,1.8-0.5,3.7-2.3,4.2C31.4,25.1,31.1,25.1,30.7,25.2z M30.7,19.3c-0.2,0-0.5,0-0.7,0.1c-1.3,0.4-2,1.7-1.7,3c0,0,0,0,0,0
	c0.2,0.6,0.6,1.1,1.1,1.5c0.6,0.3,1.2,0.4,1.9,0.2c1.3-0.4,2-1.7,1.6-3C32.7,20,31.8,19.3,30.7,19.3z"/>
<path class="st1" d="M159.7,141.4c-1.9,0-3.4-1.5-3.4-3.4c0-1.9,1.5-3.4,3.4-3.4c1.9,0,3.4,1.5,3.4,3.4c0,1.5-1,2.8-2.4,3.2l0,0
	C160.3,141.3,160,141.4,159.7,141.4z M159.7,135.6c-0.2,0-0.5,0-0.7,0.1c-0.6,0.2-1.1,0.6-1.4,1.1c-0.3,0.6-0.4,1.2-0.2,1.9
	c0.4,1.3,1.7,2,3,1.7c1.3-0.4,2-1.7,1.7-3C161.7,136.3,160.8,135.6,159.7,135.6z"/>
<path class="st1" d="M122.8,67.6h-17.5c-0.3,0-0.5-0.2-0.5-0.5v-7.8c0-6.1-3.3-11.8-8.6-14.8c-0.2-0.1-0.3-0.4-0.2-0.7c0,0,0,0,0,0
	c0.1-0.2,0.4-0.3,0.7-0.2c5.6,3.2,9.1,9.2,9.1,15.6v7.3h16.5v-7.3c0-19-15.4-34.5-34.4-34.5S53.4,40.3,53.4,59.3c0,0,0,0,0,0v7.3
	h16.5v-7.3c0-6.9,3.9-13.1,10.1-16.1c0.2-0.1,0.5,0,0.7,0.2c0.1,0.2,0,0.5-0.2,0.6c0,0,0,0,0,0c-5.8,2.9-9.5,8.8-9.5,15.3v7.8
	c0,0.3-0.2,0.5-0.5,0.5H52.9c-0.3,0-0.5-0.2-0.5-0.5v-7.8c0-19.6,15.8-35.4,35.4-35.4c19.6,0,35.4,15.8,35.4,35.4c0,0,0,0,0,0v7.8
	C123.2,67.4,123,67.6,122.8,67.6z"/>
<path class="st1" d="M134.4,105.1c-0.3,0-0.5-0.2-0.5-0.5v-22c0-5.1-4.1-9.2-9.2-9.2H51c-5.1,0-9.2,4.1-9.2,9.2l0,0
	c0,0.3-0.2,0.5-0.5,0.5c0,0,0,0,0,0c-0.3,0-0.5-0.2-0.5-0.5c0,0,0,0,0,0c0-5.6,4.6-10.1,10.2-10.2h73.8c5.6,0,10.2,4.6,10.2,10.2v22
	C134.9,104.9,134.7,105.1,134.4,105.1z"/>
<path class="st1" d="M124.7,147.1H51c-5.6,0-10.2-4.6-10.2-10.2V95.7c0-0.3,0.2-0.5,0.5-0.5h0c0.3,0,0.5,0.2,0.5,0.5v41.3
	c0,5.1,4.1,9.2,9.2,9.2h73.8c5.1,0,9.2-4.1,9.2-9.2v-16.2c0-0.3,0.2-0.5,0.5-0.5l0,0c0.3,0,0.5,0.2,0.5,0.5c0,0,0,0,0,0v16.2
	C134.9,142.6,130.3,147.1,124.7,147.1z"/>
<path class="st1" d="M95.6,131.6H80.1c-0.1,0-0.3-0.1-0.4-0.2c-0.1-0.1-0.1-0.3-0.1-0.4l3.3-20.1c-4.9-2.7-6.7-8.8-4.1-13.8
	c0.9-1.6,2.1-2.9,3.6-3.8c0.2-0.1,0.5-0.1,0.7,0.2c0.1,0.2,0.1,0.5-0.2,0.7c0,0,0,0,0,0c-4.3,2.6-5.7,8.3-3.1,12.6
	c0.9,1.5,2.2,2.7,3.8,3.5c0.2,0.1,0.3,0.3,0.3,0.5l-3.3,19.9H95l-3.3-19.9c0-0.2,0.1-0.4,0.3-0.5c4.5-2.3,6.4-7.8,4.1-12.3
	c-0.4-0.9-1-1.7-1.7-2.4c-0.2-0.2-0.2-0.5,0-0.7c0.2-0.2,0.5-0.2,0.7,0c3.9,4,3.9,10.4,0,14.3c-0.7,0.7-1.5,1.3-2.3,1.7l3.3,20.1
	c0,0.1,0,0.3-0.1,0.4C95.9,131.5,95.7,131.6,95.6,131.6z"/>
<path class="st1" d="M93.6,46.3c-1.9,0-3.4-1.5-3.4-3.4c0-1.9,1.5-3.4,3.4-3.4s3.4,1.5,3.4,3.4c0,0.6-0.2,1.1-0.4,1.6
	c-0.4,0.8-1.1,1.4-2,1.6l0,0C94.2,46.3,93.9,46.3,93.6,46.3z M93.6,40.5c-0.2,0-0.5,0-0.7,0.1c-0.6,0.2-1.1,0.6-1.4,1.2
	c-0.3,0.6-0.4,1.2-0.2,1.8c0.4,1.3,1.7,2,3,1.6c1.3-0.4,2-1.7,1.6-3C95.6,41.2,94.6,40.5,93.6,40.5z"/>
<path class="st1" d="M63.5,46.8c-0.6,0-1.1-0.2-1.6-0.4c-1.6-0.9-2.2-3-1.3-4.6c0.9-1.6,3-2.2,4.6-1.3s2.2,3,1.3,4.6
	c-0.4,0.8-1.2,1.4-2,1.6C64.2,46.7,63.8,46.8,63.5,46.8z M63.5,40.9c-0.2,0-0.5,0-0.7,0.1c-1.3,0.4-2,1.7-1.6,3s1.7,2,3,1.6
	s2-1.7,1.6-3C65.5,41.6,64.5,40.9,63.5,40.9z"/>
<path class="st1" d="M108.3,52.7c-1.9,0-3.4-1.5-3.4-3.4c0-1.9,1.5-3.4,3.4-3.4c1.9,0,3.4,1.5,3.4,3.4c0,1.5-1,2.8-2.5,3.2
	C108.9,52.6,108.6,52.7,108.3,52.7z M108.3,46.9c-0.2,0-0.5,0-0.7,0.1c-1.3,0.4-2,1.7-1.7,3c0.4,1.3,1.7,2,3,1.7
	c1.3-0.4,2-1.7,1.7-3c-0.2-0.6-0.6-1.1-1.1-1.4C109.1,47,108.7,46.9,108.3,46.9L108.3,46.9z"/>
<path class="st1" d="M71.1,38.4c-1.9,0-3.4-1.5-3.4-3.4c0-0.6,0.1-1.1,0.4-1.6c0.4-0.8,1.1-1.4,2-1.6c1.8-0.5,3.7,0.5,4.2,2.3
	c0.5,1.8-0.5,3.7-2.3,4.2l0,0C71.7,38.3,71.4,38.4,71.1,38.4z M71.1,32.5c-0.2,0-0.5,0-0.7,0.1c-1.3,0.4-2,1.8-1.6,3
	c0.4,1.2,1.7,1.9,2.9,1.6l0,0c0.6-0.2,1.1-0.6,1.5-1.2c0.3-0.6,0.4-1.2,0.2-1.8C73.1,33.2,72.1,32.5,71.1,32.5z"/>
<path class="st1" d="M92.4,96.8c-1.9,0-3.4-1.5-3.4-3.4c0-1.9,1.5-3.4,3.4-3.4c1.9,0,3.4,1.5,3.4,3.4c0,1.5-1,2.9-2.5,3.3l0,0
	C93.1,96.7,92.7,96.8,92.4,96.8z M92.4,91c-0.2,0-0.5,0-0.7,0.1c-1.3,0.4-2,1.7-1.6,3c0.4,1.3,1.7,2,3,1.6s2-1.7,1.6-3
	C94.4,91.7,93.5,91,92.4,91z"/>
<path class="st1" d="M134.3,111.2c-1.5,0-2.8-1-3.3-2.5c-0.5-1.8,0.6-3.6,2.4-4.1c1.8-0.5,3.6,0.6,4.1,2.4c0.5,1.8-0.6,3.6-2.4,4.1
	C134.9,111.2,134.6,111.2,134.3,111.2z M134.3,105.4c-0.2,0-0.5,0-0.7,0.1c-1.3,0.4-2.1,1.7-1.7,3s1.7,2.1,3,1.7s2.1-1.7,1.7-3
	C136.4,106.1,135.4,105.4,134.3,105.4z"/>
<path class="st1" d="M41.3,96.1c-1.9,0-3.4-1.6-3.4-3.4c0-1.9,1.6-3.4,3.4-3.4s3.4,1.6,3.4,3.4c0,0.6-0.2,1.1-0.4,1.6
	c-0.4,0.8-1.1,1.4-2,1.6l0,0C42,96.1,41.7,96.1,41.3,96.1z M41.3,90.3c-0.2,0-0.4,0-0.7,0.1c-1.3,0.4-2,1.7-1.7,3
	c0.4,1.3,1.7,2,3,1.7l0,0l0,0c0.6-0.2,1.1-0.6,1.5-1.2c0.3-0.6,0.4-1.2,0.2-1.8C43.4,91,42.4,90.2,41.3,90.3L41.3,90.3z"/>
<path class="st1" d="M76.3,116.9c-1.9,0-3.4-1.5-3.4-3.4c0-0.6,0.1-1.1,0.4-1.6c0.4-0.8,1.1-1.4,2-1.6c1.8-0.6,3.7,0.4,4.3,2.1
	c0.6,1.8-0.4,3.7-2.1,4.3c-0.1,0-0.2,0.1-0.3,0.1l0,0C76.9,116.9,76.6,116.9,76.3,116.9z M76.3,111c-0.2,0-0.4,0-0.7,0.1
	c-1.3,0.4-2,1.7-1.7,3c0.2,0.6,0.6,1.1,1.2,1.4c0.6,0.3,1.2,0.4,1.8,0.2l0,0c1.3-0.4,2-1.7,1.6-3C78.4,111.8,77.4,111.1,76.3,111z"
	/>
<path class="st1" d="M84.9,87.5h-0.3c-1.9-0.2-3.2-1.8-3.1-3.7c0,0,0,0,0,0c0.1-0.9,0.5-1.7,1.2-2.3c0.7-0.6,1.6-0.8,2.5-0.8
	c1.9,0.2,3.2,1.8,3.1,3.7c0,0,0,0,0,0l0,0C88.1,86.2,86.6,87.5,84.9,87.5z M84.9,81.7c-1.3,0-2.4,1.1-2.4,2.4c0,1.3,1,2.3,2.2,2.4
	c0.6,0.1,1.3-0.1,1.8-0.6c0.5-0.4,0.8-1,0.9-1.6l0,0c0.1-1.3-0.8-2.5-2.2-2.6c0,0,0,0,0,0L84.9,81.7z"/>
<path class="st1" d="M104.8,84h-0.3c-1.8-0.1-3.3-1.7-3.2-3.5c0.1-1.8,1.7-3.3,3.5-3.2s3.3,1.7,3.2,3.5
	C107.8,82.6,106.5,83.9,104.8,84z M104.8,78.2c-1.4,0.1-2.5,1.2-2.4,2.6c0.1,1.4,1.2,2.5,2.6,2.4c1.4-0.1,2.5-1.2,2.4-2.6
	c-0.1-1.3-1.1-2.3-2.4-2.4H104.8z"/>
<path class="st1" d="M49.1,85h-0.3c-1.8-0.1-3.3-1.7-3.2-3.5c0.1-1.8,1.7-3.3,3.5-3.2s3.3,1.7,3.2,3.5C52.2,83.5,50.8,84.9,49.1,85z
	 M49.1,79.2c-1.3,0-2.4,1.1-2.4,2.4c0,1.3,1.1,2.4,2.4,2.4c1.3,0,2.3-1,2.4-2.2c0.1-1.3-0.8-2.5-2.2-2.6c0,0,0,0,0,0L49.1,79.2z"/>
<path class="st1" d="M120.7,106.1c-1.9,0-3.4-1.5-3.4-3.4c0-1.9,1.5-3.4,3.4-3.4c0.6,0,1.2,0.1,1.7,0.4c1.6,0.9,2.2,3,1.3,4.6
	c-0.4,0.8-1.2,1.4-2,1.6l0,0C121.3,106.1,121,106.1,120.7,106.1z M120.7,100.3c-0.2,0-0.5,0-0.7,0.1c-1.3,0.4-2,1.7-1.7,3
	c0.4,1.3,1.7,2,3,1.7l0,0c1.3-0.4,2-1.7,1.7-3c0,0,0,0,0,0c-0.2-0.6-0.6-1.1-1.2-1.4C121.5,100.4,121.1,100.3,120.7,100.3
	L120.7,100.3z"/>
<path class="st1" d="M101.4,122.2c-0.6,0-1.1-0.1-1.6-0.4c-1.6-0.9-2.2-3-1.3-4.6c0.8-1.7,2.9-2.4,4.5-1.6c1.7,0.8,2.4,2.9,1.6,4.5
	c-0.1,0.1-0.1,0.2-0.2,0.3c-0.4,0.8-1.1,1.4-2,1.6l0,0C102.1,122.2,101.7,122.2,101.4,122.2z M101.4,116.4c-0.2,0-0.5,0-0.7,0.1
	c-1.2,0.5-1.8,2-1.3,3.2c0.4,1,1.5,1.6,2.6,1.4l0,0c0.6-0.2,1.1-0.6,1.5-1.2c0.6-1.2,0.2-2.7-1-3.3
	C102.2,116.5,101.8,116.3,101.4,116.4L101.4,116.4z"/>
<path class="st1" d="M49,142.2c-1.9,0-3.4-1.5-3.4-3.4s1.5-3.4,3.4-3.4c1.9,0,3.4,1.5,3.4,3.4c0,0.6-0.2,1.1-0.4,1.6
	c-0.4,0.8-1.2,1.4-2.1,1.7l0,0C49.6,142.2,49.3,142.2,49,142.2z M49,136.4c-0.2,0-0.5,0-0.7,0.1c-1.3,0.3-2.1,1.6-1.8,2.9
	c0.3,1.3,1.6,2.1,2.9,1.8c0.1,0,0.2-0.1,0.3-0.1l0,0c0.6-0.2,1.1-0.6,1.5-1.1c0.3-0.6,0.4-1.2,0.2-1.9C51,137.1,50,136.4,49,136.4z"
	/>
<path class="st1" d="M68.7,125.4c-1.9,0-3.4-1.5-3.4-3.4c0-1.9,1.5-3.4,3.4-3.4c0.6,0,1.2,0.1,1.7,0.4c1.6,0.9,2.2,3,1.3,4.6
	c-0.4,0.8-1.2,1.4-2,1.6l0,0C69.3,125.3,69,125.4,68.7,125.4z M68.7,119.6c-0.2,0-0.5,0-0.7,0.1c-0.6,0.2-1.1,0.6-1.4,1.2
	c-0.3,0.6-0.4,1.2-0.2,1.8c0.4,1.3,1.7,2,3,1.6s2-1.7,1.6-3c-0.2-0.6-0.6-1.1-1.1-1.4C69.5,119.7,69.1,119.6,68.7,119.6z"/>
<path class="st1" d="M126.7,140.3c-1.9,0-3.4-1.5-3.4-3.4s1.5-3.4,3.4-3.4c0.6,0,1.1,0.1,1.6,0.4c1.6,0.9,2.2,3,1.3,4.6
	C129.1,139.6,127.9,140.3,126.7,140.3z M126.7,134.4c-0.2,0-0.5,0-0.7,0.1c-1.3,0.4-2.1,1.7-1.7,3s1.7,2.1,3,1.7s2.1-1.7,1.7-3
	C128.7,135.2,127.8,134.5,126.7,134.4z"/>
<path class="st1" d="M123.7,137.4H77.9c-1.7,0-2.8-0.4-3.4-1.3c-0.5-0.7-0.5-1.7-0.3-2.5l0.9-4H45.9c-0.3,0-0.5-0.2-0.5-0.5
	s0.2-0.5,0.5-0.5h29.8c0.3,0,0.5,0.2,0.5,0.5c0,0,0,0.1,0,0.1l-1.1,4.6c-0.2,0.5-0.2,1.2,0.1,1.7c0.7,0.7,1.7,1,2.6,0.9h45.8
	c0.3,0,0.5,0.2,0.5,0.5l0,0C124.2,137.2,124,137.4,123.7,137.4C123.8,137.4,123.7,137.4,123.7,137.4z"/>
<path class="st1" d="M55.2,123.2h-9.6c-0.3,0-0.5-0.2-0.5-0.5c0,0,0,0,0,0v-21.8c0-0.3,0.2-0.5,0.5-0.5c0,0,0,0,0,0h24.9
	c0.1,0,0.3,0.1,0.3,0.2c0.1,0.1,0.1,0.2,0.1,0.4c0,0.1-0.3,6.9,3.1,10.3c0.2,0.2,0.2,0.5,0,0.7c0,0,0,0,0,0c-0.2,0.2-0.5,0.2-0.7,0
	c-3.2-3.2-3.4-8.8-3.4-10.5H46.1v20.8h9.1c0.3,0,0.5,0.2,0.5,0.5c0,0,0,0,0,0C55.7,123,55.5,123.2,55.2,123.2z"/>
<path class="st1" d="M68.4,119.5c-0.3,0-0.5-0.2-0.5-0.5c0,0,0,0,0,0V112H48.7c-0.3,0-0.5-0.2-0.5-0.5c0-0.3,0.2-0.5,0.5-0.5
	c0,0,0,0,0,0h19.7c0.3,0,0.5,0.2,0.5,0.5c0,0,0,0,0,0v7.6C68.9,119.3,68.7,119.5,68.4,119.5z"/>
<path class="st1" d="M117.6,103.3h-13.4c-0.3,0-0.5-0.2-0.5-0.5c0,0,0,0,0,0c0-9.3-4.3-12.5-4.3-12.6c-0.2-0.2-0.3-0.5-0.1-0.7
	s0.5-0.3,0.7-0.1l0,0c0.2,0.1,4.6,3.4,4.7,12.8h12.9c0.3,0,0.5,0.2,0.5,0.5C118.1,103,117.8,103.3,117.6,103.3
	C117.6,103.3,117.6,103.3,117.6,103.3z"/>
<path class="st1" d="M126.6,119.4h-22.3c-0.3,0-0.5-0.2-0.5-0.5c0,0,0,0,0,0c0-0.3,0.2-0.5,0.5-0.5c0,0,0,0,0,0h22.3
	c0.3,0,0.5,0.2,0.5,0.5C127.1,119.2,126.9,119.4,126.6,119.4z"/>
<path class="st1" d="M71.3,139.5H51.9c-0.3,0-0.5-0.2-0.5-0.5c0-0.3,0.2-0.5,0.5-0.5h19.4c0.3,0,0.5,0.2,0.5,0.5l0,0
	C71.8,139.3,71.6,139.5,71.3,139.5C71.3,139.5,71.3,139.5,71.3,139.5z"/>
<path class="st1" d="M71.8,93.2h-25c-0.3,0-0.5-0.2-0.5-0.5c0,0,0,0,0,0c0-0.3,0.2-0.5,0.5-0.5c0,0,0,0,0,0h24.7
	c0.7-1.6,4.2-8.6,10.4-8.6c0.3,0,0.5,0.2,0.5,0.5c0,0,0,0,0,0c0,0.3-0.2,0.5-0.5,0.5c-6.3,0-9.7,8.2-9.7,8.3
	C72.1,93.1,72,93.2,71.8,93.2z"/>
<path class="st1" d="M73.7,82.4H52c-0.3,0-0.5-0.2-0.5-0.5s0.2-0.5,0.5-0.5h21.7c0.3,0,0.5,0.2,0.5,0.5S74,82.4,73.7,82.4z"/>
<path class="st1" d="M129.1,96.4h-18.4c-0.3,0-0.5-0.2-0.5-0.5c0-0.3,0.2-0.5,0.5-0.5h0h17.9V84.7c0.1-2.1-1.6-3.8-3.7-3.9
	c-0.1,0-0.1,0-0.2,0h-16.9c-0.3,0-0.5-0.2-0.5-0.5s0.2-0.5,0.5-0.5h17c0.1,0,4.8,0.1,4.8,4.9v11.2C129.7,96.2,129.5,96.4,129.1,96.4
	C129.2,96.4,129.1,96.4,129.1,96.4z"/>
<path class="st1" d="M64.1,62.5h-5.8c-0.3,0-0.5-0.2-0.5-0.5v0c0-11.6,3.5-16.4,3.7-16.6c0.2-0.2,0.5-0.3,0.7-0.1
	c0.2,0.2,0.3,0.5,0.1,0.7c0,0,0,0,0,0c0,0-3.4,4.7-3.5,15.5h4.8c-0.1-1.5-0.3-5.9,0.8-9c0.1-0.2,0.3-0.4,0.6-0.3c0,0,0,0,0,0
	c0.2,0.1,0.4,0.4,0.3,0.6c-1.2,3.4-0.7,9-0.7,9.1c0,0.1,0,0.3-0.1,0.4C64.4,62.4,64.2,62.5,64.1,62.5z"/>
<path class="st1" d="M106.8,47c-0.2,0-0.3-0.1-0.4-0.2C106.3,46.6,100,36,87,36s-16.9,8.7-16.9,8.8c-0.1,0.2-0.4,0.3-0.6,0.3
	c-0.2-0.1-0.4-0.4-0.3-0.6c0-0.1,4.2-9.4,17.8-9.4s20.2,11.1,20.3,11.2c0.1,0.2,0.1,0.5-0.2,0.7C107,46.9,106.9,47,106.8,47z"/>
<path class="st1" d="M117.9,62.6H110c-0.3,0-0.5-0.2-0.5-0.5c0,0,0,0,0,0c0-0.3,0.2-0.5,0.5-0.5c0,0,0,0,0,0h7.4
	c0.1-3,0.2-20.2-13.9-28c-15.4-8.5-29.6-0.4-29.7-0.3c-0.2,0.1-0.5,0.1-0.7-0.2c0,0,0,0,0,0c-0.1-0.2-0.1-0.5,0.2-0.7
	c0.2-0.1,14.8-8.5,30.7,0.3s14.4,29.2,14.4,29.4C118.4,62.4,118.1,62.6,117.9,62.6z"/>
<path class="st0" d="M124.5,72.9H51c-5.4,0-9.7,4.3-9.7,9.7v54.6c0,5.4,4.3,9.7,9.7,9.7h73.5c5.4,0,9.7-4.3,9.7-9.7c0,0,0,0,0,0
	V82.7C134.2,77.3,129.9,72.9,124.5,72.9C124.5,72.9,124.5,72.9,124.5,72.9z M95.6,131.1H80.1l3.3-20.3c-3.8-2.2-5.5-8-5.5-8
	c0-10.3,9.5-10.1,9.5-10.1c2.5-0.1,5,0.8,6.9,2.4c0,0,3.3,2,3.3,7.1s-5.4,8.6-5.4,8.6L95.6,131.1z"/>
</svg>
