<?xml version="1.0" encoding="utf-8"?>
<!-- Generator: Adobe Illustrator 23.0.1, SVG Export Plug-In . SVG Version: 6.00 Build 0)  -->
<svg version="1.1" id="Layer_1" xmlns="http://www.w3.org/2000/svg" xmlns:xlink="http://www.w3.org/1999/xlink" x="0px" y="0px"
	 viewBox="0 0 60 60" style="enable-background:new 0 0 60 60;" xml:space="preserve">
<style type="text/css">
	.st0{fill:#FFFFFF;}
</style>
<g>
	<g>
		<circle class="st0" cx="37.5" cy="8.2" r="2.4"/>
		<circle class="st0" cx="43.9" cy="28.6" r="2.4"/>
		<circle class="st0" cx="23.8" cy="35.1" r="2.4"/>
		<circle class="st0" cx="17" cy="14.9" r="2.4"/>
		<circle class="st0" cx="33.7" cy="4.2" r="2"/>
		<circle class="st0" cx="38.7" cy="13.7" r="2"/>
		<circle class="st0" cx="38.7" cy="29.9" r="2"/>
		<circle class="st0" cx="48" cy="24.6" r="2"/>
		<circle class="st0" cx="27.8" cy="39.1" r="2"/>
		<circle class="st0" cx="22.5" cy="29.9" r="2"/>
		<circle class="st0" cx="22.5" cy="13.4" r="2"/>
		<circle class="st0" cx="12.4" cy="23.5" r="1.7"/>
		<circle class="st0" cx="27.3" cy="14" r="1.7"/>
		<circle class="st0" cx="28.9" cy="3.6" r="1.7"/>
		<circle class="st0" cx="38.5" cy="18.4" r="1.7"/>
		<circle class="st0" cx="48.8" cy="19.8" r="1.7"/>
		<circle class="st0" cx="34" cy="29.6" r="1.7"/>
		<circle class="st0" cx="22.8" cy="25.2" r="1.7"/>
		<circle class="st0" cx="32.6" cy="40" r="1.7"/>
		<circle class="st0" cx="36.4" cy="38.3" r="1.5"/>
		<circle class="st0" cx="25.4" cy="21.5" r="1.5"/>
		<circle class="st0" cx="30.8" cy="16.5" r="1.5"/>
		<circle class="st0" cx="13.9" cy="27.4" r="1.5"/>
		<circle class="st0" cx="47.2" cy="16.1" r="1.5"/>
		<circle class="st0" cx="25" cy="5.1" r="1.5"/>
		<circle class="st0" cx="22.1" cy="8.7" r="1.3"/>
		<circle class="st0" cx="43.7" cy="13.4" r="1.3"/>
		<circle class="st0" cx="30.4" cy="26.9" r="1.3"/>
		<circle class="st0" cx="39.1" cy="34.9" r="1.3"/>
		<circle class="st0" cx="17.5" cy="30.1" r="1.3"/>
		<circle class="st0" cx="33.4" cy="19.1" r="1.2"/>
		<circle class="st0" cx="17.4" cy="25.6" r="1.2"/>
		<circle class="st0" cx="34.6" cy="34.9" r="1.2"/>
		<circle class="st0" cx="43.9" cy="17.7" r="1.2"/>
		<circle class="st0" cx="26.7" cy="8.6" r="1.2"/>
		<circle class="st0" cx="30.9" cy="9.2" r="1.5"/>
		<circle class="st0" cx="17.9" cy="21.5" r="1.5"/>
		<circle class="st0" cx="43.3" cy="22" r="1.5"/>
		<circle class="st0" cx="35.7" cy="21.8" r="1.5"/>
		<circle class="st0" cx="30.4" cy="34.2" r="1.5"/>
		<circle class="st0" cx="28" cy="24.1" r="1.2"/>
		<circle class="st0" cx="33.4" cy="24.3" r="1.2"/>
		<circle class="st0" cx="28.2" cy="19" r="1.2"/>
		<circle class="st0" cx="27.8" cy="31.3" r="1"/>
		<circle class="st0" cx="21" cy="18.9" r="1"/>
		<circle class="st0" cx="40.4" cy="24.7" r="1"/>
		<circle class="st0" cx="33.6" cy="12" r="1"/>
		<circle class="st0" cx="34.1" cy="15.4" r="0.8"/>
		<circle class="st0" cx="24.3" cy="18.1" r="0.8"/>
		<circle class="st0" cx="27.1" cy="28" r="0.8"/>
		<circle class="st0" cx="36.8" cy="25.3" r="0.8"/>
		<circle class="st0" cx="13.3" cy="18.7" r="2"/>
	</g>
	<path class="st0" d="M23.5,58.8c-2.8,0-5.1-2.3-5.1-5.1c0-2.8,2.3-5.1,5.1-5.1s5.1,2.3,5.1,5.1C28.6,56.5,26.3,58.8,23.5,58.8z
		 M23.5,50.5c-1.7,0-3.1,1.4-3.1,3.1c0,1.7,1.4,3.1,3.1,3.1s3.1-1.4,3.1-3.1C26.6,51.9,25.2,50.5,23.5,50.5z"/>
	<polygon class="st0" points="47.4,58.5 50.4,51.9 53.5,58.5 55.6,58.5 51.1,48.8 49.7,48.8 45.3,58.5 	"/>
	<path class="st0" d="M6,58.5h1.9v-7.8h2.5c0.4,0,1.6,0.3,1.6,1.6c0,1.3-1.7,1.5-1.9,1.5c-0.4,0-0.7,0.2-0.8,0.6
		c-0.1,0.3-0.1,0.7,0.1,1l2.6,3.1h2.5L12,55.3c1.1-0.5,2.1-1.4,2.1-3c0-2.5-2.2-3.4-3.4-3.5H6v1.7h0V58.5z"/>
	<path class="st0" d="M37.6,59c-0.2,0-0.4,0-0.6,0c-1.6-0.2-3.4-1.4-3.6-1.5l1.1-1.6c0.4,0.3,1.7,1.1,2.6,1.2
		c0.8,0.1,1.4-0.1,1.8-0.3c0.1-0.1,0.3-0.3,0.3-0.8c0-0.7-1.3-0.9-1.3-0.9c-0.5-0.1-4.4-0.8-4.4-3.5c0-2,1.3-3.2,3.5-3.2
		c1.7,0,3.2,1,3.4,1.1l-1.1,1.6l0.5-0.8l-0.5,0.8c0,0-1.2-0.8-2.3-0.8c-1.5,0-1.6,0.6-1.6,1.3c0,0.9,1.9,1.5,2.7,1.6
		c1,0.1,3,0.9,3,2.8c0,1.2-0.5,1.9-0.9,2.3C39.5,58.8,38.4,59,37.6,59z"/>
</g>
</svg>
