<?xml version="1.0" encoding="utf-8"?>
<!-- Generator: Adobe Illustrator 23.0.1, SVG Export Plug-In . SVG Version: 6.00 Build 0)  -->
<svg version="1.1" id="Layer_1" xmlns="http://www.w3.org/2000/svg" xmlns:xlink="http://www.w3.org/1999/xlink" x="0px" y="0px"
	 viewBox="0 0 175.6 175.6" style="enable-background:new 0 0 175.6 175.6;" xml:space="preserve">
<style type="text/css">
	.st0{fill:#DE1A25;}
	.st1{opacity:0.17;fill:#DE1A25;enable-background:new    ;}
</style>
<title>sms</title>
<path class="st0" d="M161.1,135.9c-0.1,0-0.2,0-0.3-0.1c-0.2-0.1-0.3-0.4-0.1-0.7c26.1-40.2,14.7-94-25.6-120.1
	C103.6-5.5,62.6-3.4,33.3,20.2c-0.2,0.1-0.5,0.1-0.7-0.1c0,0,0,0,0,0c-0.1-0.2-0.1-0.4,0.1-0.6C70.5-11,125.8-5,156.2,32.7
	c23.8,29.6,25.9,71.1,5.3,102.9C161.4,135.8,161.2,135.9,161.1,135.9z"/>
<path class="st0" d="M87.8,175.6C39.3,175.6,0,136.3,0,87.8c0-20.1,6.9-39.6,19.6-55.2c0.2-0.2,0.5-0.2,0.7-0.1l0,0
	c0.2,0.2,0.2,0.5,0.1,0.7c0,0,0,0,0,0l0,0c-30.2,37.3-24.4,92,12.9,122.2c15.5,12.5,34.8,19.4,54.7,19.3c19.7,0.1,38.9-6.6,54.2-19
	c0.2-0.2,0.5-0.1,0.7,0.1c0.2,0.2,0.1,0.5-0.1,0.7l0,0C127.1,168.9,107.8,175.7,87.8,175.6z"/>
<path class="st0" d="M30.7,25.1c-1.9,0-3.4-1.6-3.4-3.4c0-1.5,1-2.8,2.4-3.2c1.8-0.5,3.6,0.5,4.2,2.3c0.5,1.8-0.5,3.7-2.3,4.2
	C31.4,25.1,31.1,25.1,30.7,25.1z M30.7,19.3c-0.2,0-0.5,0-0.7,0.1c-1.3,0.4-2,1.7-1.7,3c0,0,0,0,0,0l0,0c0.2,0.6,0.6,1.1,1.1,1.5
	c0.6,0.3,1.2,0.4,1.9,0.2c1.3-0.4,2-1.7,1.6-3C32.7,20,31.8,19.3,30.7,19.3z"/>
<path class="st0" d="M159.7,141.4c-1.9,0-3.4-1.5-3.4-3.4c0-1.9,1.5-3.4,3.4-3.4c1.9,0,3.4,1.5,3.4,3.4c0,1.5-1,2.8-2.4,3.2l0,0
	C160.3,141.3,160,141.4,159.7,141.4z M159.7,135.6c-0.2,0-0.5,0-0.7,0.1c-0.6,0.2-1.1,0.6-1.4,1.1c-0.3,0.6-0.4,1.2-0.2,1.9
	c0.4,1.3,1.7,2,3,1.7c1.3-0.4,2-1.7,1.7-3C161.7,136.3,160.8,135.6,159.7,135.6z"/>
<path class="st1" d="M133.6,48.7H35.1c-7.2,0-13,5.8-13,13v46.9c0,7.2,5.8,13,13,13l0,0h81.7l20,20v-20.4c5.7-1.5,9.8-6.6,9.8-12.6
	V61.7C146.6,54.5,140.7,48.7,133.6,48.7z M48.2,97.9c-6.1,0-11-4.9-11-11s4.9-11,11-11s11,4.9,11,11S54.3,97.9,48.2,97.9z M84,97.9
	c-6.1,0-11-4.9-11-11s4.9-11,11-11s11,4.9,11,11S90.1,97.9,84,97.9z M119.3,97.9c-6.1,0-11-4.9-11-11s4.9-11,11-11s11,4.9,11,11
	S125.4,97.9,119.3,97.9z"/>
<path class="st0" d="M22.1,96.2c-1.9,0-3.4-1.6-3.4-3.4c0-1.5,1-2.8,2.4-3.2c1.8-0.5,3.7,0.5,4.2,2.3c0.5,1.8-0.6,3.7-2.3,4.2
	C22.7,96.1,22.4,96.2,22.1,96.2z M22.1,90.4c-0.2,0-0.5,0-0.7,0.1c-1.3,0.4-2,1.7-1.7,3c0,0,0,0,0,0l0,0c0.2,0.6,0.6,1.1,1.1,1.4
	c1.2,0.6,2.6,0.2,3.3-1s0.2-2.6-1-3.3C22.8,90.5,22.5,90.4,22.1,90.4z"/>
<path class="st0" d="M30.4,61.4c-1.9,0-3.4-1.6-3.4-3.4c0-1.5,1-2.8,2.4-3.2c0.9-0.3,1.8-0.2,2.6,0.3c1.6,1,2.2,3.1,1.2,4.7
	C32.6,60.7,31.5,61.3,30.4,61.4L30.4,61.4z M30.4,55.5c-0.2,0-0.5,0-0.7,0.1c-1.3,0.4-2,1.7-1.7,3c0,0,0,0,0,0l0,0
	c0.4,1.3,1.7,2,3,1.7c0,0,0,0,0,0c1.3-0.4,2-1.7,1.6-3C32.4,56.3,31.4,55.5,30.4,55.5z"/>
<path class="st0" d="M101.6,100.5c-1.9,0.1-3.5-1.5-3.6-3.4s1.5-3.5,3.4-3.6s3.5,1.5,3.6,3.4c0,1.6-0.9,3-2.4,3.4
	C102.3,100.4,101.9,100.5,101.6,100.5z M101.6,94.6c-0.2,0-0.5,0-0.7,0.1c-1.3,0.4-2,1.7-1.7,3c0,0,0,0,0,0l0,0c0.4,1.3,1.7,2,3,1.7
	c0,0,0,0,0,0c1.3-0.4,2-1.7,1.6-3C103.6,95.4,102.7,94.7,101.6,94.6z"/>
<path class="st0" d="M84.2,111c-1.9,0-3.4-1.6-3.4-3.4c0-1.5,1-2.8,2.4-3.2c0.9-0.3,1.8-0.2,2.6,0.3c1.6,1,2.2,3.1,1.2,4.7
	C86.4,110.3,85.3,111,84.2,111z M84.2,105.2c-0.2,0-0.5,0-0.7,0.1c-1.3,0.4-2,1.7-1.7,3l0,0c0.2,0.6,0.6,1.2,1.2,1.5
	c0.6,0.3,1.2,0.4,1.8,0.2c1.3-0.4,2-1.7,1.6-3C86.2,105.9,85.2,105.2,84.2,105.2L84.2,105.2z"/>
<path class="st0" d="M89.2,69.4c-1.9,0-3.4-1.6-3.4-3.4c0-1.5,1-2.8,2.4-3.2c0.9-0.3,1.8-0.2,2.6,0.3c0.8,0.4,1.4,1.1,1.6,2
	c0.5,1.8-0.5,3.7-2.3,4.2c0,0,0,0,0,0C89.8,69.3,89.5,69.4,89.2,69.4z M89.2,63.5c-0.2,0-0.5,0-0.7,0.1c-1.3,0.4-2,1.7-1.7,3
	c0,0,0,0,0,0l0,0c0.4,1.3,1.7,2,3,1.7c0,0,0,0,0,0c1.3-0.4,2-1.7,1.6-3C91.2,64.3,90.2,63.5,89.2,63.5z"/>
<path class="st0" d="M146.3,108.8c-1.9,0.1-3.5-1.5-3.6-3.4c-0.1-1.9,1.5-3.5,3.4-3.6s3.5,1.5,3.6,3.4c0,1.6-0.9,3-2.4,3.4
	C146.9,108.8,146.6,108.8,146.3,108.8z M146.3,103c-0.2,0-0.5,0-0.7,0.1c-1.3,0.4-2,1.7-1.7,3l0,0c0.2,0.6,0.6,1.1,1.1,1.4
	c0.6,0.3,1.2,0.4,1.9,0.2c1.3-0.4,2-1.7,1.6-3C148.3,103.7,147.4,103,146.3,103L146.3,103z"/>
<path class="st0" d="M146.6,95.4c-0.3,0-0.5-0.2-0.5-0.5V61.7c0-6.9-5.6-12.5-12.5-12.5H35.1c-6.9,0-12.5,5.6-12.5,12.5v27.7
	c0,0.3-0.2,0.5-0.5,0.5s-0.5-0.2-0.5-0.5V61.7c0-7.4,6.1-13.5,13.5-13.5h98.4c7.4,0,13.5,6.1,13.5,13.5v33.2
	C147.1,95.2,146.8,95.4,146.6,95.4z"/>
<path class="st0" d="M136.8,142.1c-0.1,0-0.3-0.1-0.4-0.1l-19.9-19.9H35.1c-7.4,0-13.5-6.1-13.5-13.5c0-0.3,0.2-0.5,0.5-0.5
	s0.5,0.2,0.5,0.5c0,6.9,5.6,12.5,12.5,12.5h81.7c0.1,0,0.3,0.1,0.4,0.1l19.1,19.1v-19.2c0-0.2,0.2-0.4,0.4-0.5
	c5.5-1.4,9.4-6.4,9.4-12.1c0-0.3,0.2-0.5,0.5-0.5c0,0,0,0,0,0c0.3,0,0.5,0.2,0.5,0.5c0,6-4,11.3-9.8,13v20c0,0.2-0.1,0.4-0.3,0.5
	C136.9,142.1,136.8,142.1,136.8,142.1z"/>
<path class="st0" d="M57.1,80.1c0.6-0.8,0.8-1.9,0.5-2.9c-0.5-1.8-2.4-2.8-4.2-2.3c-1.8,0.5-2.8,2.4-2.3,4.2
	c0.4,1.4,1.7,2.4,3.2,2.4c0.3,0,0.6-0.1,0.9-0.2c0.4-0.1,0.8-0.3,1.1-0.6c3.3,4.5,2.3,10.8-2.1,14c-4.5,3.3-10.8,2.3-14-2.1
	c-3.3-4.5-2.3-10.8,2.1-14c1.7-1.3,3.8-2,6-2c0.3,0,0.5-0.2,0.5-0.5c0-0.3-0.2-0.5-0.5-0.5c-6.1,0-11.1,4.9-11.1,11.1
	c0,6.1,4.9,11.1,11.1,11.1s11.1-4.9,11.1-11.1C59.4,84.4,58.6,82,57.1,80.1z M55,80.4c-0.6,0.2-1.3,0.1-1.8-0.2
	c-0.6-0.3-1-0.8-1.2-1.4l0,0c-0.4-1.3,0.4-2.6,1.6-3c0,0,0,0,0,0c0.2-0.1,0.4-0.1,0.7-0.1c1.3,0,2.4,1.1,2.4,2.4
	c0,0.6-0.2,1.1-0.6,1.6c0,0-0.1,0-0.1,0C56,79.7,56,79.8,56,79.9C55.7,80.1,55.4,80.3,55,80.4z"/>
<path class="st0" d="M75.2,93.2c-0.6,0.8-0.8,1.9-0.5,2.9c0.5,1.8,2.4,2.8,4.2,2.3c1.8-0.5,2.8-2.4,2.3-4.2
	c-0.4-1.4-1.7-2.4-3.2-2.4c-0.3,0-0.7,0.1-1,0.2c-0.4,0.1-0.8,0.3-1.1,0.6c-3.3-4.4-2.3-10.7,2.1-14s10.7-2.3,14,2.1
	c3.3,4.4,2.3,10.7-2.1,14c-1.7,1.3-3.8,1.9-5.9,2c-0.3,0-0.5,0.2-0.5,0.5s0.2,0.5,0.5,0.5c6.1,0,11.1-4.9,11.1-11.1
	c0-6.1-4.9-11.1-11.1-11.1c-6.1,0-11.1,4.9-11.1,11.1C72.9,88.9,73.7,91.3,75.2,93.2L75.2,93.2z M77.3,92.9c0.6-0.2,1.3-0.1,1.8,0.2
	c0.6,0.3,1,0.8,1.2,1.4l0,0c0.4,1.3-0.4,2.6-1.7,3c0,0,0,0,0,0c-0.2,0.1-0.4,0.1-0.7,0.1c-1.3,0-2.4-1.1-2.4-2.5
	c0-0.5,0.2-1.1,0.5-1.5l0.1-0.1c0.1-0.1,0.1-0.1,0.1-0.2C76.6,93.2,76.9,93,77.3,92.9z"/>
<path class="st0" d="M120.8,76c-0.2-1-0.8-1.9-1.7-2.5c-0.8-0.4-1.7-0.5-2.6-0.3c-0.9,0.2-1.6,0.8-2,1.6c-0.8,1.7-0.2,3.7,1.5,4.6
	c1.3,0.6,2.8,0.4,3.9-0.6c0.2-0.2,0.4-0.5,0.6-0.8c0.2-0.4,0.3-0.7,0.4-1.1c5.5,0.8,9.2,6,8.3,11.4s-6,9.2-11.4,8.3s-9.2-6-8.3-11.4
	c0.3-2.1,1.3-4,2.8-5.5c0.2-0.2,0.2-0.5,0-0.7s-0.5-0.2-0.7,0c-4.4,4.3-4.4,11.3-0.1,15.7s11.3,4.4,15.7,0.1s4.4-11.3,0.1-15.7
	C125.5,77.4,123.3,76.3,120.8,76z M119.6,77.7c-0.3,0.6-0.8,1-1.4,1.2c-0.6,0.2-1.3,0.1-1.8-0.2l0,0c-1.2-0.7-1.6-2.1-0.9-3.3
	c0.1-0.2,0.2-0.4,0.4-0.5c0.8-0.7,1.9-0.9,2.9-0.4c0.7,0.4,1.2,1.1,1.3,1.9v0.1c0,0.1,0,0.2,0,0.2C119.9,77,119.8,77.4,119.6,77.7
	L119.6,77.7z"/>
<path class="st0" d="M38.4,115c-4.5,0-8.2-3.7-8.2-8.2V61c0-0.3,0.2-0.5,0.5-0.5s0.5,0.2,0.5,0.5v45.8c0,4,3.3,7.2,7.2,7.2
	c0.2,0,0.3,0,0.5,0l54.7,0c0.3,0,0.5,0.2,0.5,0.5s-0.2,0.5-0.5,0.5H38.9C38.8,115,38.6,115,38.4,115z"/>
<path class="st0" d="M101.3,94.5c-0.3,0-0.5-0.2-0.5-0.5V60.4c0-0.1,0.4-2.4-1.2-4.2c-1.3-1.5-3.6-2.3-6.8-2.3H40
	c-0.3,0-0.5-0.2-0.5-0.5s0.2-0.5,0.5-0.5h52.8c3.5,0,6,0.9,7.6,2.7c1.8,2.2,1.4,4.8,1.4,4.9l0,33.5
	C101.8,94.3,101.6,94.5,101.3,94.5z"/>
<path class="st0" d="M85.9,66.4H39.2c-0.3,0-0.5-0.2-0.5-0.5s0.2-0.5,0.5-0.5h46.7c0.3,0,0.5,0.2,0.5,0.5S86.2,66.4,85.9,66.4z"/>
<path class="st0" d="M131.4,108.3c-0.2,0-0.4,0-0.4,0l-43.9,0v-1h44c0.1,0,2.1,0.2,3.9-1.4c2-1.8,3-5,3-9.5v-36h1v36
	c0,4.8-1.1,8.3-3.3,10.3C134,108.1,132.2,108.3,131.4,108.3z"/>
</svg>
