<svg width="27px" height="28px" viewBox="1260 1307 27 28" version="1.1" xmlns="http://www.w3.org/2000/svg" xmlns:xlink="http://www.w3.org/1999/xlink">
    <path d="M1282.95937,1319.629 C1283.38383,1322.48853 1282.51257,1325.48211 1280.27856,1327.67144 C1276.99456,1330.91076 1271.92335,1331.31288 1268.19255,1328.87781 L1270.80634,1326.33103 L1261.20009,1324.99063 L1262.54049,1334.37348 L1265.46705,1331.55862 C1270.73932,1335.44581 1278.20092,1335.06603 1282.98171,1330.35226 C1285.75189,1327.60442 1287.02527,1323.98532 1286.86889,1320.38856 L1282.95937,1319.629 L1282.95937,1319.629 Z M1266.69576,1314.26737 C1269.97976,1311.02805 1275.05097,1310.62592 1278.78177,1313.061 L1276.16797,1315.60777 L1285.77423,1316.94818 L1284.43382,1307.56533 L1281.50726,1310.38018 C1276.23499,1306.493 1268.77339,1306.87278 1263.97026,1311.58655 C1261.20009,1314.33439 1259.94904,1317.95349 1260.10542,1321.55025 L1264.01494,1322.33215 C1263.59048,1319.47262 1264.46174,1316.4567 1266.69576,1314.26737 L1266.69576,1314.26737 Z" id="Shape-Copy" stroke="none" fill="grey" fill-rule="evenodd"></path>
</svg>
