<?xml version="1.0" encoding="UTF-8" standalone="no"?>
<svg width="501px" height="500px" viewBox="0 0 501 500" version="1.1" xmlns="http://www.w3.org/2000/svg" xmlns:xlink="http://www.w3.org/1999/xlink" xmlns:sketch="http://www.bohemiancoding.com/sketch/ns">
    <!-- Generator: Sketch 3.5.1 (25234) - http://www.bohemiancoding.com/sketch -->
    <title>icon-lock</title>
    <desc>Created with Sketch.</desc>
    <defs></defs>
    <g id="Page-1" stroke="none" stroke-width="1" fill="none" fill-rule="evenodd" sketch:type="MSPage">
        <g id="icon-lock" sketch:type="MSLayerGroup">
            <g id="Page-1" sketch:type="MSShapeGroup">
                <g id="lock">
                    <g id="Group">
                        <ellipse id="Oval" fill="#B3E5FC" cx="250.1" cy="250" rx="250.1" ry="250"></ellipse>
                        <path d="M367.4,125.6 C354.7,113.2 337.9,106.5 320.1,106.5 C301.9,106.5 284.8,113.6 272,126.4 C259.2,139.3 252.1,156.3 252.1,174.5 L252.1,199.7 L122,199.7 C116.5,199.7 112.1,204.2 112.1,209.6 L112.1,351 L112.1,351 L112.1,364.2 C112.1,365.2 112.3,366.1 112.6,367 C112.6,367.1 112.6,367.1 112.7,367.2 C112.8,367.6 113,368 113.2,368.4 C113.2,368.5 113.3,368.6 113.3,368.7 C113.7,369.5 114.2,370.3 114.8,370.9 C115,371.1 115.2,371.4 115.5,371.6 L243.8,499.8 C246,499.9 248.1,500 250.3,500 C385.7,500 495.9,392.4 500.2,258.1 L367.4,125.6 L367.4,125.6 L367.4,125.6 Z" id="Shape" fill="#97C2D5"></path>
                        <g transform="translate(112.000000, 106.000000)">
                            <path d="M194.4,103.6 C194.4,98.1 189.9,93.7 184.5,93.7 L10,93.7 C4.5,93.7 0.1,98.2 0.1,103.6 L0.1,258.2 C0.1,263.7 4.6,268.1 10,268.1 L184.5,268.1 C190,268.1 194.4,263.6 194.4,258.2 L194.4,103.6 L194.4,103.6 L194.4,103.6 Z" id="Shape" fill="#F05050"></path>
                            <path d="M140,93.7 L165.3,93.7 L165.3,68.5 C165.3,57.1 169.7,46.3 177.8,38.3 C185.9,30.2 196.6,25.8 208,25.8 C219.4,25.8 230.2,30.2 238.2,38.3 C246.3,46.4 250.7,57.1 250.7,68.5 L250.7,84 C250.7,86.5 251.6,89 253.5,90.8 C255.4,92.7 257.9,93.6 260.3,93.6 L266.2,93.6 C268.7,93.6 271.2,92.7 273,90.8 C274.9,88.9 275.8,86.4 275.8,84 L275.8,68.4 C275.8,50.2 268.7,33.1 255.9,20.3 C243,7.5 226,0.4 207.8,0.4 C189.6,0.4 172.5,7.5 159.7,20.3 C146.8,33.2 139.8,50.2 139.8,68.4 L139.8,93.7 L140,93.7 L140,93.7 Z" id="Shape" fill="#FFFFFF"></path>
                            <g transform="translate(140.000000, 118.000000)">
                                <path d="M2.84217094e-14,92.7 C2.84217094e-14,95.2 1,97.8 2.9,99.7 C4.8,101.6 7.4,102.6 9.9,102.6 L54.4,102.6 L54.4,0.1 L9.9,0.1 C7.4,0.1 4.8,1.1 2.9,3 C1,4.9 0,7.5 0,10 L0,92.7 L2.84217094e-14,92.7 L2.84217094e-14,92.7 Z" id="Shape" fill="#3D3D3D"></path>
                                <g transform="translate(10.000000, 10.000000)">
                                    <path d="M3.3,21 C1.5,21 0,19.5 0,17.7 L0,3.4 C0,1.6 1.5,0.1 3.3,0.1 L51.1,0.1 C52.9,0.1 54.4,1.6 54.4,3.4 L54.4,17.7 C54.4,19.5 52.9,21 51.1,21 L3.3,21 L3.3,21 L3.3,21 Z" id="Shape" fill="#F05050"></path>
                                    <rect id="Rectangle-path" fill="#3D3D3D" x="5.5" y="5.5" width="9.9" height="9.9"></rect>
                                    <rect id="Rectangle-path" fill="#3D3D3D" x="38.9" y="5.5" width="9.9" height="9.9"></rect>
                                </g>
                                <g transform="translate(10.000000, 40.000000)">
                                    <path d="M3.3,21.8 C1.5,21.8 0,20.3 0,18.5 L0,4.2 C0,2.4 1.5,0.9 3.3,0.9 L51.1,0.9 C52.9,0.9 54.4,2.4 54.4,4.2 L54.4,18.5 C54.4,20.3 52.9,21.8 51.1,21.8 L3.3,21.8 L3.3,21.8 L3.3,21.8 Z" id="Shape" fill="#F05050"></path>
                                    <rect id="Rectangle-path" fill="#3D3D3D" x="5.5" y="6.4" width="9.9" height="9.9"></rect>
                                    <rect id="Rectangle-path" fill="#3D3D3D" x="38.9" y="6.4" width="9.9" height="9.9"></rect>
                                </g>
                                <g transform="translate(10.000000, 71.000000)">
                                    <path d="M3.3,21.7 C1.5,21.7 0,20.2 0,18.4 L0,4.1 C0,2.3 1.5,0.8 3.3,0.8 L51.1,0.8 C52.9,0.8 54.4,2.3 54.4,4.1 L54.4,18.4 C54.4,20.2 52.9,21.7 51.1,21.7 L3.3,21.7 L3.3,21.7 L3.3,21.7 Z" id="Shape" fill="#F05050"></path>
                                    <rect id="Rectangle-path" fill="#3D3D3D" x="5.5" y="6.3" width="9.9" height="9.9"></rect>
                                    <rect id="Rectangle-path" fill="#3D3D3D" x="38.9" y="6.3" width="9.9" height="9.9"></rect>
                                </g>
                            </g>
                            <path d="M194.5,245 L194.5,258.2 C194.5,263.7 190,268.1 184.6,268.1 L10,268.1 C4.5,268.1 0.1,263.6 0.1,258.2 L0.1,245 L194.5,245 L194.5,245 L194.5,245 Z" id="Shape" fill="#C14040"></path>
                        </g>
                    </g>
                </g>
            </g>
        </g>
    </g>
</svg>