<?xml version="1.0" standalone="no"?>
<!DOCTYPE svg PUBLIC "-//W3C//DTD SVG 20010904//EN"
 "http://www.w3.org/TR/2001/REC-SVG-20010904/DTD/svg10.dtd">
<svg version="1.0" xmlns="http://www.w3.org/2000/svg"
 width="1500.000000pt" height="1500.000000pt" viewBox="0 0 1500.000000 1500.000000"
 preserveAspectRatio="xMidYMid meet">
<metadata>
Created by potrace 1.11, written by Peter Selinger 2001-2013
</metadata>
<g transform="translate(0.000000,1500.000000) scale(0.100000,-0.100000)"
fill="#000000" stroke="none">
<path d="M2451 10389 c-178 -21 -376 -96 -528 -201 -200 -137 -371 -363 -448
-592 -64 -189 -59 -29 -62 -2049 -4 -2002 -5 -1933 52 -2117 96 -303 303 -549
581 -692 199 -102 315 -128 612 -135 l212 -6 0 2399 0 2399 530 -3 530 -2 0
-266 0 -265 59 73 c134 166 296 299 476 388 194 96 389 140 624 140 790 0
1436 -534 1634 -1351 52 -213 62 -305 62 -584 -1 -278 -11 -382 -60 -582 -59
-243 -166 -485 -293 -662 -327 -459 -841 -710 -1406 -688 -170 7 -286 27 -425
73 -212 70 -371 172 -558 357 l-113 112 0 -768 0 -767 4318 3 4317 3 85 21
c170 43 288 93 414 177 276 185 462 478 512 808 12 84 14 365 11 1935 -3 2020
2 1860 -62 2049 -142 423 -541 743 -988 793 -118 13 -9973 13 -10086 0z m7485
-987 c6 -4 170 -516 364 -1139 195 -623 355 -1131 357 -1130 2 3 186 684 505
1874 l103 383 528 0 c499 0 528 -1 523 -17 -5 -18 -242 -782 -639 -2063 -124
-399 -291 -940 -373 -1202 l-148 -478 -477 0 -478 0 -45 143 c-41 130 -223
709 -547 1745 -73 234 -126 387 -130 379 -7 -12 -676 -2108 -707 -2214 l-15
-53 -476 0 -476 0 -32 103 c-17 56 -95 311 -173 567 -78 256 -183 602 -235
770 -449 1468 -705 2307 -705 2314 0 3 241 6 535 6 l534 0 10 -37 c5 -21 39
-148 75 -283 36 -135 138 -519 226 -855 89 -335 184 -695 212 -800 28 -104 56
-210 62 -234 l12 -45 11 30 c7 16 70 218 142 449 71 231 222 719 336 1085 113
366 210 675 215 688 l10 22 442 0 c244 0 448 -4 454 -8z"/>
<path d="M4661 8550 c-279 -59 -501 -233 -631 -495 -167 -336 -153 -808 34
-1125 215 -364 631 -525 1026 -398 375 120 615 472 637 933 14 309 -73 588
-246 788 -127 146 -262 232 -447 283 -69 19 -306 28 -373 14z"/>
</g>
</svg>
